G04 #@! TF.GenerationSoftware,KiCad,Pcbnew,(5.1.6-0-10_14)*
G04 #@! TF.CreationDate,2020-06-02T19:47:16-04:00*
G04 #@! TF.ProjectId,RX EQ Shield - Faceplate,52582045-5120-4536-9869-656c64202d20,rev?*
G04 #@! TF.SameCoordinates,Original*
G04 #@! TF.FileFunction,Legend,Bot*
G04 #@! TF.FilePolarity,Positive*
%FSLAX46Y46*%
G04 Gerber Fmt 4.6, Leading zero omitted, Abs format (unit mm)*
G04 Created by KiCad (PCBNEW (5.1.6-0-10_14)) date 2020-06-02 19:47:16*
%MOMM*%
%LPD*%
G01*
G04 APERTURE LIST*
%ADD10C,0.150000*%
G04 APERTURE END LIST*
D10*
X118942857Y-152053571D02*
X118800000Y-152101190D01*
X118752380Y-152148809D01*
X118704761Y-152244047D01*
X118704761Y-152386904D01*
X118752380Y-152482142D01*
X118800000Y-152529761D01*
X118895238Y-152577380D01*
X119276190Y-152577380D01*
X119276190Y-151577380D01*
X118942857Y-151577380D01*
X118847619Y-151625000D01*
X118800000Y-151672619D01*
X118752380Y-151767857D01*
X118752380Y-151863095D01*
X118800000Y-151958333D01*
X118847619Y-152005952D01*
X118942857Y-152053571D01*
X119276190Y-152053571D01*
X118419047Y-151577380D02*
X118085714Y-152577380D01*
X117752380Y-151577380D01*
X117419047Y-152577380D02*
X117419047Y-151577380D01*
X117419047Y-152053571D02*
X116847619Y-152053571D01*
X116847619Y-152577380D02*
X116847619Y-151577380D01*
X115609523Y-152196428D02*
X114847619Y-152196428D01*
X113657142Y-152291666D02*
X113180952Y-152291666D01*
X113752380Y-152577380D02*
X113419047Y-151577380D01*
X113085714Y-152577380D01*
X112419047Y-152053571D02*
X112276190Y-152101190D01*
X112228571Y-152148809D01*
X112180952Y-152244047D01*
X112180952Y-152386904D01*
X112228571Y-152482142D01*
X112276190Y-152529761D01*
X112371428Y-152577380D01*
X112752380Y-152577380D01*
X112752380Y-151577380D01*
X112419047Y-151577380D01*
X112323809Y-151625000D01*
X112276190Y-151672619D01*
X112228571Y-151767857D01*
X112228571Y-151863095D01*
X112276190Y-151958333D01*
X112323809Y-152005952D01*
X112419047Y-152053571D01*
X112752380Y-152053571D01*
X111323809Y-151910714D02*
X111323809Y-152577380D01*
X111561904Y-151529761D02*
X111800000Y-152244047D01*
X111180952Y-152244047D01*
X110800000Y-152053571D02*
X110466666Y-152053571D01*
X110323809Y-152577380D02*
X110800000Y-152577380D01*
X110800000Y-151577380D01*
X110323809Y-151577380D01*
X109895238Y-152577380D02*
X109895238Y-151577380D01*
X109323809Y-152577380D01*
X109323809Y-151577380D01*
X117585714Y-153322619D02*
X117538095Y-153275000D01*
X117442857Y-153227380D01*
X117204761Y-153227380D01*
X117109523Y-153275000D01*
X117061904Y-153322619D01*
X117014285Y-153417857D01*
X117014285Y-153513095D01*
X117061904Y-153655952D01*
X117633333Y-154227380D01*
X117014285Y-154227380D01*
X116395238Y-153227380D02*
X116300000Y-153227380D01*
X116204761Y-153275000D01*
X116157142Y-153322619D01*
X116109523Y-153417857D01*
X116061904Y-153608333D01*
X116061904Y-153846428D01*
X116109523Y-154036904D01*
X116157142Y-154132142D01*
X116204761Y-154179761D01*
X116300000Y-154227380D01*
X116395238Y-154227380D01*
X116490476Y-154179761D01*
X116538095Y-154132142D01*
X116585714Y-154036904D01*
X116633333Y-153846428D01*
X116633333Y-153608333D01*
X116585714Y-153417857D01*
X116538095Y-153322619D01*
X116490476Y-153275000D01*
X116395238Y-153227380D01*
X115680952Y-153322619D02*
X115633333Y-153275000D01*
X115538095Y-153227380D01*
X115300000Y-153227380D01*
X115204761Y-153275000D01*
X115157142Y-153322619D01*
X115109523Y-153417857D01*
X115109523Y-153513095D01*
X115157142Y-153655952D01*
X115728571Y-154227380D01*
X115109523Y-154227380D01*
X114490476Y-153227380D02*
X114395238Y-153227380D01*
X114300000Y-153275000D01*
X114252380Y-153322619D01*
X114204761Y-153417857D01*
X114157142Y-153608333D01*
X114157142Y-153846428D01*
X114204761Y-154036904D01*
X114252380Y-154132142D01*
X114300000Y-154179761D01*
X114395238Y-154227380D01*
X114490476Y-154227380D01*
X114585714Y-154179761D01*
X114633333Y-154132142D01*
X114680952Y-154036904D01*
X114728571Y-153846428D01*
X114728571Y-153608333D01*
X114680952Y-153417857D01*
X114633333Y-153322619D01*
X114585714Y-153275000D01*
X114490476Y-153227380D01*
X113728571Y-153846428D02*
X112966666Y-153846428D01*
X112300000Y-153227380D02*
X112204761Y-153227380D01*
X112109523Y-153275000D01*
X112061904Y-153322619D01*
X112014285Y-153417857D01*
X111966666Y-153608333D01*
X111966666Y-153846428D01*
X112014285Y-154036904D01*
X112061904Y-154132142D01*
X112109523Y-154179761D01*
X112204761Y-154227380D01*
X112300000Y-154227380D01*
X112395238Y-154179761D01*
X112442857Y-154132142D01*
X112490476Y-154036904D01*
X112538095Y-153846428D01*
X112538095Y-153608333D01*
X112490476Y-153417857D01*
X112442857Y-153322619D01*
X112395238Y-153275000D01*
X112300000Y-153227380D01*
X111109523Y-153227380D02*
X111300000Y-153227380D01*
X111395238Y-153275000D01*
X111442857Y-153322619D01*
X111538095Y-153465476D01*
X111585714Y-153655952D01*
X111585714Y-154036904D01*
X111538095Y-154132142D01*
X111490476Y-154179761D01*
X111395238Y-154227380D01*
X111204761Y-154227380D01*
X111109523Y-154179761D01*
X111061904Y-154132142D01*
X111014285Y-154036904D01*
X111014285Y-153798809D01*
X111061904Y-153703571D01*
X111109523Y-153655952D01*
X111204761Y-153608333D01*
X111395238Y-153608333D01*
X111490476Y-153655952D01*
X111538095Y-153703571D01*
X111585714Y-153798809D01*
M02*
