G04 #@! TF.GenerationSoftware,KiCad,Pcbnew,(5.1.6-0-10_14)*
G04 #@! TF.CreationDate,2020-06-02T19:47:16-04:00*
G04 #@! TF.ProjectId,RX EQ Shield - Faceplate,52582045-5120-4536-9869-656c64202d20,rev?*
G04 #@! TF.SameCoordinates,Original*
G04 #@! TF.FileFunction,Legend,Top*
G04 #@! TF.FilePolarity,Positive*
%FSLAX46Y46*%
G04 Gerber Fmt 4.6, Leading zero omitted, Abs format (unit mm)*
G04 Created by KiCad (PCBNEW (5.1.6-0-10_14)) date 2020-06-02 19:47:16*
%MOMM*%
%LPD*%
G01*
G04 APERTURE LIST*
%ADD10C,0.010000*%
%ADD11C,0.150000*%
G04 APERTURE END LIST*
D10*
G36*
X146901360Y-146754405D02*
G01*
X148452111Y-148601255D01*
X148459369Y-146754405D01*
X148466628Y-144907556D01*
X149200000Y-144907556D01*
X149200000Y-149620667D01*
X148769611Y-149620657D01*
X148339222Y-149620646D01*
X146787000Y-147771745D01*
X145234777Y-145922844D01*
X145227519Y-147771755D01*
X145220260Y-149620667D01*
X144486888Y-149620667D01*
X144486888Y-144907556D01*
X145350609Y-144907556D01*
X146901360Y-146754405D01*
G37*
X146901360Y-146754405D02*
X148452111Y-148601255D01*
X148459369Y-146754405D01*
X148466628Y-144907556D01*
X149200000Y-144907556D01*
X149200000Y-149620667D01*
X148769611Y-149620657D01*
X148339222Y-149620646D01*
X146787000Y-147771745D01*
X145234777Y-145922844D01*
X145227519Y-147771755D01*
X145220260Y-149620667D01*
X144486888Y-149620667D01*
X144486888Y-144907556D01*
X145350609Y-144907556D01*
X146901360Y-146754405D01*
G36*
X143823666Y-145627222D02*
G01*
X142024500Y-145634487D01*
X140225333Y-145641751D01*
X140225333Y-146911333D01*
X143132222Y-146911333D01*
X143132222Y-147616889D01*
X140225333Y-147616889D01*
X140225333Y-148886471D01*
X142024500Y-148893735D01*
X143823666Y-148901000D01*
X143831565Y-149260833D01*
X143839464Y-149620667D01*
X139491555Y-149620667D01*
X139491555Y-144907556D01*
X143839464Y-144907556D01*
X143823666Y-145627222D01*
G37*
X143823666Y-145627222D02*
X142024500Y-145634487D01*
X140225333Y-145641751D01*
X140225333Y-146911333D01*
X143132222Y-146911333D01*
X143132222Y-147616889D01*
X140225333Y-147616889D01*
X140225333Y-148886471D01*
X142024500Y-148893735D01*
X143823666Y-148901000D01*
X143831565Y-149260833D01*
X143839464Y-149620667D01*
X139491555Y-149620667D01*
X139491555Y-144907556D01*
X143839464Y-144907556D01*
X143823666Y-145627222D01*
G36*
X138221555Y-147701556D02*
G01*
X138898888Y-147701556D01*
X138898888Y-148435333D01*
X138221555Y-148435333D01*
X138221555Y-149620667D01*
X137459555Y-149620667D01*
X137459555Y-148435333D01*
X134355111Y-148435333D01*
X134355111Y-147709109D01*
X134375527Y-147690695D01*
X135458129Y-147690695D01*
X135482521Y-147693196D01*
X135557128Y-147695493D01*
X135675722Y-147697519D01*
X135832076Y-147699206D01*
X136019959Y-147700487D01*
X136233144Y-147701292D01*
X136452962Y-147701556D01*
X137459555Y-147701556D01*
X137459555Y-146066528D01*
X136464722Y-146873182D01*
X136260080Y-147039142D01*
X136069115Y-147194066D01*
X135896252Y-147334358D01*
X135745920Y-147456423D01*
X135622544Y-147556666D01*
X135530550Y-147631492D01*
X135474366Y-147677306D01*
X135458129Y-147690695D01*
X134375527Y-147690695D01*
X135908247Y-146308332D01*
X137461383Y-144907556D01*
X138221555Y-144907556D01*
X138221555Y-147701556D01*
G37*
X138221555Y-147701556D02*
X138898888Y-147701556D01*
X138898888Y-148435333D01*
X138221555Y-148435333D01*
X138221555Y-149620667D01*
X137459555Y-149620667D01*
X137459555Y-148435333D01*
X134355111Y-148435333D01*
X134355111Y-147709109D01*
X134375527Y-147690695D01*
X135458129Y-147690695D01*
X135482521Y-147693196D01*
X135557128Y-147695493D01*
X135675722Y-147697519D01*
X135832076Y-147699206D01*
X136019959Y-147700487D01*
X136233144Y-147701292D01*
X136452962Y-147701556D01*
X137459555Y-147701556D01*
X137459555Y-146066528D01*
X136464722Y-146873182D01*
X136260080Y-147039142D01*
X136069115Y-147194066D01*
X135896252Y-147334358D01*
X135745920Y-147456423D01*
X135622544Y-147556666D01*
X135530550Y-147631492D01*
X135474366Y-147677306D01*
X135458129Y-147690695D01*
X134375527Y-147690695D01*
X135908247Y-146308332D01*
X137461383Y-144907556D01*
X138221555Y-144907556D01*
X138221555Y-147701556D01*
G36*
X133333472Y-144993860D02*
G01*
X133487286Y-145087215D01*
X133604002Y-145200549D01*
X133698888Y-145349790D01*
X133724214Y-145401444D01*
X133744939Y-145448159D01*
X133760800Y-145493604D01*
X133772449Y-145545878D01*
X133780541Y-145613085D01*
X133785726Y-145703326D01*
X133788659Y-145824702D01*
X133789991Y-145985315D01*
X133790377Y-146193266D01*
X133790390Y-146222733D01*
X133789152Y-146452847D01*
X133785389Y-146650079D01*
X133779328Y-146808690D01*
X133771194Y-146922937D01*
X133761216Y-146987083D01*
X133760116Y-146990547D01*
X133745402Y-147049155D01*
X133754793Y-147097906D01*
X133794507Y-147158687D01*
X133815441Y-147185258D01*
X133864818Y-147250391D01*
X133903823Y-147313749D01*
X133933666Y-147382870D01*
X133955552Y-147465290D01*
X133970688Y-147568549D01*
X133980282Y-147700183D01*
X133985541Y-147867729D01*
X133987672Y-148078726D01*
X133987946Y-148262493D01*
X133987668Y-148484059D01*
X133986626Y-148656943D01*
X133984226Y-148788907D01*
X133979874Y-148887714D01*
X133972976Y-148961125D01*
X133962937Y-149016902D01*
X133949163Y-149062808D01*
X133931059Y-149106605D01*
X133921770Y-149126778D01*
X133830326Y-149289253D01*
X133721431Y-149411253D01*
X133579816Y-149508708D01*
X133531028Y-149534362D01*
X133358317Y-149620667D01*
X129275111Y-149620667D01*
X129275111Y-148175733D01*
X130007002Y-148175733D01*
X130007308Y-148340176D01*
X130010100Y-148498082D01*
X130015378Y-148638963D01*
X130023142Y-148752331D01*
X130033392Y-148827698D01*
X130042755Y-148853022D01*
X130078093Y-148860734D01*
X130163580Y-148867536D01*
X130292928Y-148873428D01*
X130459851Y-148878411D01*
X130658059Y-148882483D01*
X130881267Y-148885646D01*
X131123185Y-148887898D01*
X131377526Y-148889241D01*
X131638002Y-148889674D01*
X131898326Y-148889197D01*
X132152210Y-148887810D01*
X132393366Y-148885513D01*
X132615507Y-148882307D01*
X132812344Y-148878190D01*
X132977591Y-148873164D01*
X133104958Y-148867228D01*
X133188160Y-148860381D01*
X133220577Y-148853022D01*
X133232699Y-148813210D01*
X133242336Y-148727497D01*
X133249487Y-148606369D01*
X133254151Y-148460315D01*
X133256331Y-148299822D01*
X133256024Y-148135379D01*
X133253232Y-147977473D01*
X133247954Y-147836592D01*
X133240190Y-147723224D01*
X133229941Y-147647857D01*
X133220577Y-147622533D01*
X133185240Y-147614821D01*
X133099753Y-147608019D01*
X132970404Y-147602127D01*
X132803482Y-147597145D01*
X132605273Y-147593072D01*
X132382066Y-147589910D01*
X132140148Y-147587657D01*
X131885806Y-147586314D01*
X131625330Y-147585881D01*
X131365006Y-147586358D01*
X131111122Y-147587745D01*
X130869966Y-147590042D01*
X130647825Y-147593249D01*
X130450988Y-147597365D01*
X130285742Y-147602392D01*
X130158374Y-147608328D01*
X130075173Y-147615174D01*
X130042755Y-147622533D01*
X130030633Y-147662345D01*
X130020996Y-147748059D01*
X130013846Y-147869187D01*
X130009181Y-148015241D01*
X130007002Y-148175733D01*
X129275111Y-148175733D01*
X129275111Y-146252353D01*
X130008888Y-146252353D01*
X130009332Y-146442034D01*
X130011108Y-146582993D01*
X130014882Y-146682949D01*
X130021320Y-146749621D01*
X130031090Y-146790728D01*
X130044857Y-146813988D01*
X130058277Y-146824406D01*
X130097435Y-146831020D01*
X130186417Y-146836833D01*
X130318607Y-146841842D01*
X130487391Y-146846045D01*
X130686152Y-146849438D01*
X130908277Y-146852019D01*
X131147149Y-146853785D01*
X131396153Y-146854733D01*
X131648675Y-146854861D01*
X131898100Y-146854164D01*
X132137811Y-146852641D01*
X132361194Y-146850289D01*
X132561633Y-146847104D01*
X132732515Y-146843085D01*
X132867222Y-146838227D01*
X132959140Y-146832529D01*
X133001655Y-146825987D01*
X133002299Y-146825674D01*
X133021214Y-146812219D01*
X133035184Y-146789808D01*
X133044952Y-146750631D01*
X133051262Y-146686882D01*
X133054858Y-146590749D01*
X133056485Y-146454427D01*
X133056887Y-146270105D01*
X133056888Y-146252763D01*
X133055567Y-146039746D01*
X133051450Y-145879187D01*
X133044307Y-145767159D01*
X133033907Y-145699733D01*
X133023022Y-145675200D01*
X132987448Y-145667246D01*
X132901940Y-145660265D01*
X132773003Y-145654257D01*
X132607138Y-145649220D01*
X132410849Y-145645157D01*
X132190638Y-145642066D01*
X131953008Y-145639947D01*
X131704463Y-145638801D01*
X131451504Y-145638627D01*
X131200636Y-145639426D01*
X130958361Y-145641197D01*
X130731181Y-145643941D01*
X130525600Y-145647657D01*
X130348121Y-145652346D01*
X130205246Y-145658007D01*
X130103478Y-145664641D01*
X130049321Y-145672247D01*
X130042755Y-145675200D01*
X130029563Y-145709611D01*
X130019816Y-145785480D01*
X130013283Y-145906734D01*
X130009734Y-146077299D01*
X130008888Y-146252353D01*
X129275111Y-146252353D01*
X129275111Y-144907556D01*
X133160762Y-144907556D01*
X133333472Y-144993860D01*
G37*
X133333472Y-144993860D02*
X133487286Y-145087215D01*
X133604002Y-145200549D01*
X133698888Y-145349790D01*
X133724214Y-145401444D01*
X133744939Y-145448159D01*
X133760800Y-145493604D01*
X133772449Y-145545878D01*
X133780541Y-145613085D01*
X133785726Y-145703326D01*
X133788659Y-145824702D01*
X133789991Y-145985315D01*
X133790377Y-146193266D01*
X133790390Y-146222733D01*
X133789152Y-146452847D01*
X133785389Y-146650079D01*
X133779328Y-146808690D01*
X133771194Y-146922937D01*
X133761216Y-146987083D01*
X133760116Y-146990547D01*
X133745402Y-147049155D01*
X133754793Y-147097906D01*
X133794507Y-147158687D01*
X133815441Y-147185258D01*
X133864818Y-147250391D01*
X133903823Y-147313749D01*
X133933666Y-147382870D01*
X133955552Y-147465290D01*
X133970688Y-147568549D01*
X133980282Y-147700183D01*
X133985541Y-147867729D01*
X133987672Y-148078726D01*
X133987946Y-148262493D01*
X133987668Y-148484059D01*
X133986626Y-148656943D01*
X133984226Y-148788907D01*
X133979874Y-148887714D01*
X133972976Y-148961125D01*
X133962937Y-149016902D01*
X133949163Y-149062808D01*
X133931059Y-149106605D01*
X133921770Y-149126778D01*
X133830326Y-149289253D01*
X133721431Y-149411253D01*
X133579816Y-149508708D01*
X133531028Y-149534362D01*
X133358317Y-149620667D01*
X129275111Y-149620667D01*
X129275111Y-148175733D01*
X130007002Y-148175733D01*
X130007308Y-148340176D01*
X130010100Y-148498082D01*
X130015378Y-148638963D01*
X130023142Y-148752331D01*
X130033392Y-148827698D01*
X130042755Y-148853022D01*
X130078093Y-148860734D01*
X130163580Y-148867536D01*
X130292928Y-148873428D01*
X130459851Y-148878411D01*
X130658059Y-148882483D01*
X130881267Y-148885646D01*
X131123185Y-148887898D01*
X131377526Y-148889241D01*
X131638002Y-148889674D01*
X131898326Y-148889197D01*
X132152210Y-148887810D01*
X132393366Y-148885513D01*
X132615507Y-148882307D01*
X132812344Y-148878190D01*
X132977591Y-148873164D01*
X133104958Y-148867228D01*
X133188160Y-148860381D01*
X133220577Y-148853022D01*
X133232699Y-148813210D01*
X133242336Y-148727497D01*
X133249487Y-148606369D01*
X133254151Y-148460315D01*
X133256331Y-148299822D01*
X133256024Y-148135379D01*
X133253232Y-147977473D01*
X133247954Y-147836592D01*
X133240190Y-147723224D01*
X133229941Y-147647857D01*
X133220577Y-147622533D01*
X133185240Y-147614821D01*
X133099753Y-147608019D01*
X132970404Y-147602127D01*
X132803482Y-147597145D01*
X132605273Y-147593072D01*
X132382066Y-147589910D01*
X132140148Y-147587657D01*
X131885806Y-147586314D01*
X131625330Y-147585881D01*
X131365006Y-147586358D01*
X131111122Y-147587745D01*
X130869966Y-147590042D01*
X130647825Y-147593249D01*
X130450988Y-147597365D01*
X130285742Y-147602392D01*
X130158374Y-147608328D01*
X130075173Y-147615174D01*
X130042755Y-147622533D01*
X130030633Y-147662345D01*
X130020996Y-147748059D01*
X130013846Y-147869187D01*
X130009181Y-148015241D01*
X130007002Y-148175733D01*
X129275111Y-148175733D01*
X129275111Y-146252353D01*
X130008888Y-146252353D01*
X130009332Y-146442034D01*
X130011108Y-146582993D01*
X130014882Y-146682949D01*
X130021320Y-146749621D01*
X130031090Y-146790728D01*
X130044857Y-146813988D01*
X130058277Y-146824406D01*
X130097435Y-146831020D01*
X130186417Y-146836833D01*
X130318607Y-146841842D01*
X130487391Y-146846045D01*
X130686152Y-146849438D01*
X130908277Y-146852019D01*
X131147149Y-146853785D01*
X131396153Y-146854733D01*
X131648675Y-146854861D01*
X131898100Y-146854164D01*
X132137811Y-146852641D01*
X132361194Y-146850289D01*
X132561633Y-146847104D01*
X132732515Y-146843085D01*
X132867222Y-146838227D01*
X132959140Y-146832529D01*
X133001655Y-146825987D01*
X133002299Y-146825674D01*
X133021214Y-146812219D01*
X133035184Y-146789808D01*
X133044952Y-146750631D01*
X133051262Y-146686882D01*
X133054858Y-146590749D01*
X133056485Y-146454427D01*
X133056887Y-146270105D01*
X133056888Y-146252763D01*
X133055567Y-146039746D01*
X133051450Y-145879187D01*
X133044307Y-145767159D01*
X133033907Y-145699733D01*
X133023022Y-145675200D01*
X132987448Y-145667246D01*
X132901940Y-145660265D01*
X132773003Y-145654257D01*
X132607138Y-145649220D01*
X132410849Y-145645157D01*
X132190638Y-145642066D01*
X131953008Y-145639947D01*
X131704463Y-145638801D01*
X131451504Y-145638627D01*
X131200636Y-145639426D01*
X130958361Y-145641197D01*
X130731181Y-145643941D01*
X130525600Y-145647657D01*
X130348121Y-145652346D01*
X130205246Y-145658007D01*
X130103478Y-145664641D01*
X130049321Y-145672247D01*
X130042755Y-145675200D01*
X130029563Y-145709611D01*
X130019816Y-145785480D01*
X130013283Y-145906734D01*
X130009734Y-146077299D01*
X130008888Y-146252353D01*
X129275111Y-146252353D01*
X129275111Y-144907556D01*
X133160762Y-144907556D01*
X133333472Y-144993860D01*
G36*
X128022105Y-144975155D02*
G01*
X128200947Y-145087577D01*
X128352334Y-145240567D01*
X128435308Y-145366916D01*
X128499000Y-145486111D01*
X128514524Y-149620667D01*
X127779333Y-149620667D01*
X127779333Y-147983778D01*
X124533777Y-147983778D01*
X124533777Y-149620667D01*
X123800000Y-149620667D01*
X123800000Y-146479533D01*
X124533777Y-146479533D01*
X124533777Y-147250000D01*
X127779333Y-147250000D01*
X127779333Y-146479533D01*
X127778550Y-146228326D01*
X127776089Y-146029461D01*
X127771776Y-145878856D01*
X127765439Y-145772428D01*
X127756908Y-145706096D01*
X127746010Y-145675778D01*
X127745466Y-145675200D01*
X127710129Y-145667488D01*
X127624642Y-145660686D01*
X127495293Y-145654794D01*
X127328371Y-145649811D01*
X127130162Y-145645739D01*
X126906955Y-145642576D01*
X126665036Y-145640324D01*
X126410695Y-145638981D01*
X126150219Y-145638548D01*
X125889895Y-145639025D01*
X125636011Y-145640412D01*
X125394855Y-145642709D01*
X125172714Y-145645915D01*
X124975877Y-145650032D01*
X124810630Y-145655058D01*
X124683263Y-145660995D01*
X124600062Y-145667841D01*
X124567644Y-145675200D01*
X124556636Y-145704007D01*
X124548003Y-145768646D01*
X124541573Y-145873198D01*
X124537173Y-146021746D01*
X124534632Y-146218371D01*
X124533779Y-146467157D01*
X124533777Y-146479533D01*
X123800000Y-146479533D01*
X123800000Y-145537460D01*
X123886304Y-145364750D01*
X123979659Y-145210935D01*
X124092993Y-145094220D01*
X124242234Y-144999334D01*
X124293888Y-144974008D01*
X124435000Y-144908107D01*
X127878111Y-144908107D01*
X128022105Y-144975155D01*
G37*
X128022105Y-144975155D02*
X128200947Y-145087577D01*
X128352334Y-145240567D01*
X128435308Y-145366916D01*
X128499000Y-145486111D01*
X128514524Y-149620667D01*
X127779333Y-149620667D01*
X127779333Y-147983778D01*
X124533777Y-147983778D01*
X124533777Y-149620667D01*
X123800000Y-149620667D01*
X123800000Y-146479533D01*
X124533777Y-146479533D01*
X124533777Y-147250000D01*
X127779333Y-147250000D01*
X127779333Y-146479533D01*
X127778550Y-146228326D01*
X127776089Y-146029461D01*
X127771776Y-145878856D01*
X127765439Y-145772428D01*
X127756908Y-145706096D01*
X127746010Y-145675778D01*
X127745466Y-145675200D01*
X127710129Y-145667488D01*
X127624642Y-145660686D01*
X127495293Y-145654794D01*
X127328371Y-145649811D01*
X127130162Y-145645739D01*
X126906955Y-145642576D01*
X126665036Y-145640324D01*
X126410695Y-145638981D01*
X126150219Y-145638548D01*
X125889895Y-145639025D01*
X125636011Y-145640412D01*
X125394855Y-145642709D01*
X125172714Y-145645915D01*
X124975877Y-145650032D01*
X124810630Y-145655058D01*
X124683263Y-145660995D01*
X124600062Y-145667841D01*
X124567644Y-145675200D01*
X124556636Y-145704007D01*
X124548003Y-145768646D01*
X124541573Y-145873198D01*
X124537173Y-146021746D01*
X124534632Y-146218371D01*
X124533779Y-146467157D01*
X124533777Y-146479533D01*
X123800000Y-146479533D01*
X123800000Y-145537460D01*
X123886304Y-145364750D01*
X123979659Y-145210935D01*
X124092993Y-145094220D01*
X124242234Y-144999334D01*
X124293888Y-144974008D01*
X124435000Y-144908107D01*
X127878111Y-144908107D01*
X128022105Y-144975155D01*
G36*
X113752298Y-143326258D02*
G01*
X114083687Y-143382286D01*
X114262720Y-143437229D01*
X114673325Y-143681609D01*
X115065310Y-144039859D01*
X115387328Y-144459710D01*
X115528218Y-144725476D01*
X115728333Y-145187777D01*
X116194000Y-145189694D01*
X116825409Y-145258976D01*
X117388288Y-145452902D01*
X117858635Y-145758715D01*
X118212451Y-146163658D01*
X118294001Y-146305916D01*
X118432153Y-146706937D01*
X118498230Y-147185057D01*
X118489066Y-147669536D01*
X118401495Y-148089635D01*
X118376721Y-148154000D01*
X118072386Y-148667510D01*
X117648022Y-149070759D01*
X117122002Y-149351050D01*
X116512699Y-149495686D01*
X116422731Y-149504313D01*
X115834717Y-149551000D01*
X116310692Y-150158653D01*
X116520043Y-150430443D01*
X116682456Y-150649903D01*
X116774432Y-150784854D01*
X116786666Y-150810395D01*
X116710537Y-150840286D01*
X116516056Y-150868100D01*
X116367047Y-150880076D01*
X115947428Y-150905667D01*
X116543716Y-151695609D01*
X116774536Y-152006555D01*
X116958739Y-152264629D01*
X117077279Y-152442435D01*
X117111502Y-152512312D01*
X117036134Y-152475026D01*
X116838977Y-152356125D01*
X116539225Y-152167785D01*
X116156075Y-151922182D01*
X115708721Y-151631492D01*
X115305000Y-151366410D01*
X113527000Y-150193746D01*
X114227415Y-150168707D01*
X114927831Y-150143667D01*
X114403671Y-149508667D01*
X112187335Y-149506807D01*
X111509396Y-149505383D01*
X110978127Y-149501369D01*
X110570869Y-149493245D01*
X110264965Y-149479491D01*
X110037754Y-149458584D01*
X109866578Y-149429005D01*
X109728777Y-149389233D01*
X109601692Y-149337746D01*
X109590000Y-149332483D01*
X109076408Y-149016403D01*
X108694899Y-148601144D01*
X108453319Y-148102590D01*
X108359519Y-147536625D01*
X108403731Y-147063566D01*
X110601758Y-147063566D01*
X110752045Y-147252732D01*
X110997982Y-147555262D01*
X111240992Y-147842244D01*
X111455673Y-148084998D01*
X111616623Y-148254841D01*
X111698437Y-148323095D01*
X111700281Y-148323334D01*
X111785443Y-148272883D01*
X111964425Y-148139209D01*
X112202084Y-147948824D01*
X112258528Y-147902150D01*
X112503272Y-147702757D01*
X112695643Y-147553743D01*
X112801054Y-147481699D01*
X112809175Y-147478817D01*
X112873821Y-147541248D01*
X113022868Y-147714781D01*
X113237315Y-147976420D01*
X113498158Y-148303172D01*
X113646985Y-148492667D01*
X114440620Y-149508667D01*
X115118765Y-149508667D01*
X115451910Y-149506201D01*
X115643124Y-149493901D01*
X115719792Y-149464409D01*
X115709298Y-149410370D01*
X115670337Y-149360500D01*
X115504335Y-149159055D01*
X115281268Y-148878433D01*
X115020458Y-148544065D01*
X114741230Y-148181383D01*
X114462906Y-147815817D01*
X114204811Y-147472798D01*
X113986267Y-147177758D01*
X113826600Y-146956127D01*
X113745131Y-146833337D01*
X113738666Y-146818304D01*
X113802718Y-146741109D01*
X113975234Y-146590437D01*
X114226753Y-146391048D01*
X114416000Y-146249000D01*
X114702246Y-146033769D01*
X114928633Y-145854656D01*
X115065847Y-145735369D01*
X115093333Y-145701200D01*
X115017970Y-145656778D01*
X114813127Y-145573201D01*
X114510671Y-145462702D01*
X114166626Y-145345478D01*
X113239920Y-145039319D01*
X111920839Y-146051442D01*
X110601758Y-147063566D01*
X108403731Y-147063566D01*
X108414106Y-146952560D01*
X108500540Y-146653111D01*
X108640334Y-146407973D01*
X108874953Y-146146757D01*
X108907802Y-146114535D01*
X109293231Y-145809737D01*
X109720066Y-145623013D01*
X110232227Y-145538384D01*
X110516492Y-145529334D01*
X110808956Y-145509221D01*
X110937829Y-145448732D01*
X110944733Y-145423500D01*
X110991347Y-145234222D01*
X111113605Y-144956516D01*
X111285380Y-144637294D01*
X111480544Y-144323464D01*
X111672968Y-144061937D01*
X111752833Y-143972660D01*
X112218368Y-143601199D01*
X112745010Y-143381201D01*
X113352964Y-143304456D01*
X113398024Y-143304234D01*
X113752298Y-143326258D01*
G37*
X113752298Y-143326258D02*
X114083687Y-143382286D01*
X114262720Y-143437229D01*
X114673325Y-143681609D01*
X115065310Y-144039859D01*
X115387328Y-144459710D01*
X115528218Y-144725476D01*
X115728333Y-145187777D01*
X116194000Y-145189694D01*
X116825409Y-145258976D01*
X117388288Y-145452902D01*
X117858635Y-145758715D01*
X118212451Y-146163658D01*
X118294001Y-146305916D01*
X118432153Y-146706937D01*
X118498230Y-147185057D01*
X118489066Y-147669536D01*
X118401495Y-148089635D01*
X118376721Y-148154000D01*
X118072386Y-148667510D01*
X117648022Y-149070759D01*
X117122002Y-149351050D01*
X116512699Y-149495686D01*
X116422731Y-149504313D01*
X115834717Y-149551000D01*
X116310692Y-150158653D01*
X116520043Y-150430443D01*
X116682456Y-150649903D01*
X116774432Y-150784854D01*
X116786666Y-150810395D01*
X116710537Y-150840286D01*
X116516056Y-150868100D01*
X116367047Y-150880076D01*
X115947428Y-150905667D01*
X116543716Y-151695609D01*
X116774536Y-152006555D01*
X116958739Y-152264629D01*
X117077279Y-152442435D01*
X117111502Y-152512312D01*
X117036134Y-152475026D01*
X116838977Y-152356125D01*
X116539225Y-152167785D01*
X116156075Y-151922182D01*
X115708721Y-151631492D01*
X115305000Y-151366410D01*
X113527000Y-150193746D01*
X114227415Y-150168707D01*
X114927831Y-150143667D01*
X114403671Y-149508667D01*
X112187335Y-149506807D01*
X111509396Y-149505383D01*
X110978127Y-149501369D01*
X110570869Y-149493245D01*
X110264965Y-149479491D01*
X110037754Y-149458584D01*
X109866578Y-149429005D01*
X109728777Y-149389233D01*
X109601692Y-149337746D01*
X109590000Y-149332483D01*
X109076408Y-149016403D01*
X108694899Y-148601144D01*
X108453319Y-148102590D01*
X108359519Y-147536625D01*
X108403731Y-147063566D01*
X110601758Y-147063566D01*
X110752045Y-147252732D01*
X110997982Y-147555262D01*
X111240992Y-147842244D01*
X111455673Y-148084998D01*
X111616623Y-148254841D01*
X111698437Y-148323095D01*
X111700281Y-148323334D01*
X111785443Y-148272883D01*
X111964425Y-148139209D01*
X112202084Y-147948824D01*
X112258528Y-147902150D01*
X112503272Y-147702757D01*
X112695643Y-147553743D01*
X112801054Y-147481699D01*
X112809175Y-147478817D01*
X112873821Y-147541248D01*
X113022868Y-147714781D01*
X113237315Y-147976420D01*
X113498158Y-148303172D01*
X113646985Y-148492667D01*
X114440620Y-149508667D01*
X115118765Y-149508667D01*
X115451910Y-149506201D01*
X115643124Y-149493901D01*
X115719792Y-149464409D01*
X115709298Y-149410370D01*
X115670337Y-149360500D01*
X115504335Y-149159055D01*
X115281268Y-148878433D01*
X115020458Y-148544065D01*
X114741230Y-148181383D01*
X114462906Y-147815817D01*
X114204811Y-147472798D01*
X113986267Y-147177758D01*
X113826600Y-146956127D01*
X113745131Y-146833337D01*
X113738666Y-146818304D01*
X113802718Y-146741109D01*
X113975234Y-146590437D01*
X114226753Y-146391048D01*
X114416000Y-146249000D01*
X114702246Y-146033769D01*
X114928633Y-145854656D01*
X115065847Y-145735369D01*
X115093333Y-145701200D01*
X115017970Y-145656778D01*
X114813127Y-145573201D01*
X114510671Y-145462702D01*
X114166626Y-145345478D01*
X113239920Y-145039319D01*
X111920839Y-146051442D01*
X110601758Y-147063566D01*
X108403731Y-147063566D01*
X108414106Y-146952560D01*
X108500540Y-146653111D01*
X108640334Y-146407973D01*
X108874953Y-146146757D01*
X108907802Y-146114535D01*
X109293231Y-145809737D01*
X109720066Y-145623013D01*
X110232227Y-145538384D01*
X110516492Y-145529334D01*
X110808956Y-145509221D01*
X110937829Y-145448732D01*
X110944733Y-145423500D01*
X110991347Y-145234222D01*
X111113605Y-144956516D01*
X111285380Y-144637294D01*
X111480544Y-144323464D01*
X111672968Y-144061937D01*
X111752833Y-143972660D01*
X112218368Y-143601199D01*
X112745010Y-143381201D01*
X113352964Y-143304456D01*
X113398024Y-143304234D01*
X113752298Y-143326258D01*
D11*
X112744333Y-132852380D02*
X112268142Y-132852380D01*
X112268142Y-131852380D01*
X113220523Y-132852380D02*
X113125285Y-132804761D01*
X113077666Y-132757142D01*
X113030047Y-132661904D01*
X113030047Y-132376190D01*
X113077666Y-132280952D01*
X113125285Y-132233333D01*
X113220523Y-132185714D01*
X113363380Y-132185714D01*
X113458619Y-132233333D01*
X113506238Y-132280952D01*
X113553857Y-132376190D01*
X113553857Y-132661904D01*
X113506238Y-132757142D01*
X113458619Y-132804761D01*
X113363380Y-132852380D01*
X113220523Y-132852380D01*
X113887190Y-132185714D02*
X114077666Y-132852380D01*
X114268142Y-132376190D01*
X114458619Y-132852380D01*
X114649095Y-132185714D01*
X158885047Y-152662000D02*
X158789809Y-152614380D01*
X158646952Y-152614380D01*
X158504095Y-152662000D01*
X158408857Y-152757238D01*
X158361238Y-152852476D01*
X158313619Y-153042952D01*
X158313619Y-153185809D01*
X158361238Y-153376285D01*
X158408857Y-153471523D01*
X158504095Y-153566761D01*
X158646952Y-153614380D01*
X158742190Y-153614380D01*
X158885047Y-153566761D01*
X158932666Y-153519142D01*
X158932666Y-153185809D01*
X158742190Y-153185809D01*
X159789809Y-153614380D02*
X159789809Y-153090571D01*
X159742190Y-152995333D01*
X159646952Y-152947714D01*
X159456476Y-152947714D01*
X159361238Y-152995333D01*
X159789809Y-153566761D02*
X159694571Y-153614380D01*
X159456476Y-153614380D01*
X159361238Y-153566761D01*
X159313619Y-153471523D01*
X159313619Y-153376285D01*
X159361238Y-153281047D01*
X159456476Y-153233428D01*
X159694571Y-153233428D01*
X159789809Y-153185809D01*
X160266000Y-153614380D02*
X160266000Y-152947714D01*
X160266000Y-152614380D02*
X160218380Y-152662000D01*
X160266000Y-152709619D01*
X160313619Y-152662000D01*
X160266000Y-152614380D01*
X160266000Y-152709619D01*
X160742190Y-152947714D02*
X160742190Y-153614380D01*
X160742190Y-153042952D02*
X160789809Y-152995333D01*
X160885047Y-152947714D01*
X161027904Y-152947714D01*
X161123142Y-152995333D01*
X161170761Y-153090571D01*
X161170761Y-153614380D01*
X158337428Y-132852380D02*
X158337428Y-131852380D01*
X158337428Y-132328571D02*
X158908857Y-132328571D01*
X158908857Y-132852380D02*
X158908857Y-131852380D01*
X159385047Y-132852380D02*
X159385047Y-132185714D01*
X159385047Y-131852380D02*
X159337428Y-131900000D01*
X159385047Y-131947619D01*
X159432666Y-131900000D01*
X159385047Y-131852380D01*
X159385047Y-131947619D01*
X160289809Y-132185714D02*
X160289809Y-132995238D01*
X160242190Y-133090476D01*
X160194571Y-133138095D01*
X160099333Y-133185714D01*
X159956476Y-133185714D01*
X159861238Y-133138095D01*
X160289809Y-132804761D02*
X160194571Y-132852380D01*
X160004095Y-132852380D01*
X159908857Y-132804761D01*
X159861238Y-132757142D01*
X159813619Y-132661904D01*
X159813619Y-132376190D01*
X159861238Y-132280952D01*
X159908857Y-132233333D01*
X160004095Y-132185714D01*
X160194571Y-132185714D01*
X160289809Y-132233333D01*
X160766000Y-132852380D02*
X160766000Y-131852380D01*
X161194571Y-132852380D02*
X161194571Y-132328571D01*
X161146952Y-132233333D01*
X161051714Y-132185714D01*
X160908857Y-132185714D01*
X160813619Y-132233333D01*
X160766000Y-132280952D01*
X135501190Y-132852380D02*
X135501190Y-131852380D01*
X135834523Y-132566666D01*
X136167857Y-131852380D01*
X136167857Y-132852380D01*
X136644047Y-132852380D02*
X136644047Y-132185714D01*
X136644047Y-131852380D02*
X136596428Y-131900000D01*
X136644047Y-131947619D01*
X136691666Y-131900000D01*
X136644047Y-131852380D01*
X136644047Y-131947619D01*
X137548809Y-132852380D02*
X137548809Y-131852380D01*
X137548809Y-132804761D02*
X137453571Y-132852380D01*
X137263095Y-132852380D01*
X137167857Y-132804761D01*
X137120238Y-132757142D01*
X137072619Y-132661904D01*
X137072619Y-132376190D01*
X137120238Y-132280952D01*
X137167857Y-132233333D01*
X137263095Y-132185714D01*
X137453571Y-132185714D01*
X137548809Y-132233333D01*
M02*
