G04 #@! TF.GenerationSoftware,KiCad,Pcbnew,(5.1.6-0-10_14)*
G04 #@! TF.CreationDate,2020-06-02T19:47:16-04:00*
G04 #@! TF.ProjectId,RX EQ Shield - Faceplate,52582045-5120-4536-9869-656c64202d20,rev?*
G04 #@! TF.SameCoordinates,Original*
G04 #@! TF.FileFunction,Soldermask,Bot*
G04 #@! TF.FilePolarity,Negative*
%FSLAX46Y46*%
G04 Gerber Fmt 4.6, Leading zero omitted, Abs format (unit mm)*
G04 Created by KiCad (PCBNEW (5.1.6-0-10_14)) date 2020-06-02 19:47:16*
%MOMM*%
%LPD*%
G01*
G04 APERTURE LIST*
%ADD10C,0.100000*%
G04 APERTURE END LIST*
D10*
G36*
X168938693Y-151733859D02*
G01*
X169204437Y-151786719D01*
X169705087Y-151994095D01*
X169885561Y-152114684D01*
X170155660Y-152295158D01*
X170538842Y-152678340D01*
X170719316Y-152948439D01*
X170839905Y-153128913D01*
X171047281Y-153629563D01*
X171153000Y-154161050D01*
X171153000Y-154702950D01*
X171047281Y-155234437D01*
X170839905Y-155735087D01*
X170719316Y-155915561D01*
X170538842Y-156185660D01*
X170155660Y-156568842D01*
X169885561Y-156749316D01*
X169705087Y-156869905D01*
X169204437Y-157077281D01*
X168938694Y-157130140D01*
X168672951Y-157183000D01*
X168131049Y-157183000D01*
X167865306Y-157130140D01*
X167599563Y-157077281D01*
X167098913Y-156869905D01*
X166918439Y-156749316D01*
X166648340Y-156568842D01*
X166265158Y-156185660D01*
X166084684Y-155915561D01*
X165964095Y-155735087D01*
X165756719Y-155234437D01*
X165651000Y-154702950D01*
X165651000Y-154161050D01*
X165756719Y-153629563D01*
X165964095Y-153128913D01*
X166084684Y-152948439D01*
X166265158Y-152678340D01*
X166648340Y-152295158D01*
X166918439Y-152114684D01*
X167098913Y-151994095D01*
X167599563Y-151786719D01*
X167865307Y-151733859D01*
X168131049Y-151681000D01*
X168672951Y-151681000D01*
X168938693Y-151733859D01*
G37*
G36*
X105184693Y-151733859D02*
G01*
X105450437Y-151786719D01*
X105951087Y-151994095D01*
X106131561Y-152114684D01*
X106401660Y-152295158D01*
X106784842Y-152678340D01*
X106965316Y-152948439D01*
X107085905Y-153128913D01*
X107293281Y-153629563D01*
X107399000Y-154161050D01*
X107399000Y-154702950D01*
X107293281Y-155234437D01*
X107085905Y-155735087D01*
X106965316Y-155915561D01*
X106784842Y-156185660D01*
X106401660Y-156568842D01*
X106131561Y-156749316D01*
X105951087Y-156869905D01*
X105450437Y-157077281D01*
X105184694Y-157130140D01*
X104918951Y-157183000D01*
X104377049Y-157183000D01*
X104111306Y-157130140D01*
X103845563Y-157077281D01*
X103344913Y-156869905D01*
X103164439Y-156749316D01*
X102894340Y-156568842D01*
X102511158Y-156185660D01*
X102330684Y-155915561D01*
X102210095Y-155735087D01*
X102002719Y-155234437D01*
X101897000Y-154702950D01*
X101897000Y-154161050D01*
X102002719Y-153629563D01*
X102210095Y-153128913D01*
X102330684Y-152948439D01*
X102511158Y-152678340D01*
X102894340Y-152295158D01*
X103164439Y-152114684D01*
X103344913Y-151994095D01*
X103845563Y-151786719D01*
X104111307Y-151733859D01*
X104377049Y-151681000D01*
X104918951Y-151681000D01*
X105184693Y-151733859D01*
G37*
G36*
X160801787Y-144279462D02*
G01*
X160801790Y-144279463D01*
X160801789Y-144279463D01*
X161448029Y-144547144D01*
X162029631Y-144935758D01*
X162524242Y-145430369D01*
X162912856Y-146011971D01*
X162912856Y-146011972D01*
X163180538Y-146658213D01*
X163317000Y-147344256D01*
X163317000Y-148043744D01*
X163180538Y-148729787D01*
X163180537Y-148729789D01*
X162912856Y-149376029D01*
X162524242Y-149957631D01*
X162029631Y-150452242D01*
X161448029Y-150840856D01*
X160991068Y-151030135D01*
X160801787Y-151108538D01*
X160115744Y-151245000D01*
X159416256Y-151245000D01*
X158730213Y-151108538D01*
X158540932Y-151030135D01*
X158083971Y-150840856D01*
X157502369Y-150452242D01*
X157007758Y-149957631D01*
X156619144Y-149376029D01*
X156351463Y-148729789D01*
X156351462Y-148729787D01*
X156215000Y-148043744D01*
X156215000Y-147344256D01*
X156351462Y-146658213D01*
X156619144Y-146011972D01*
X156619144Y-146011971D01*
X157007758Y-145430369D01*
X157502369Y-144935758D01*
X158083971Y-144547144D01*
X158730211Y-144279463D01*
X158730210Y-144279463D01*
X158730213Y-144279462D01*
X159416256Y-144143000D01*
X160115744Y-144143000D01*
X160801787Y-144279462D01*
G37*
G36*
X160801787Y-123451462D02*
G01*
X160801790Y-123451463D01*
X160801789Y-123451463D01*
X161448029Y-123719144D01*
X162029631Y-124107758D01*
X162524242Y-124602369D01*
X162912856Y-125183971D01*
X162912856Y-125183972D01*
X163180538Y-125830213D01*
X163317000Y-126516256D01*
X163317000Y-127215744D01*
X163180538Y-127901787D01*
X163180537Y-127901789D01*
X162912856Y-128548029D01*
X162524242Y-129129631D01*
X162029631Y-129624242D01*
X161448029Y-130012856D01*
X160991068Y-130202135D01*
X160801787Y-130280538D01*
X160115744Y-130417000D01*
X159416256Y-130417000D01*
X158730213Y-130280538D01*
X158540932Y-130202135D01*
X158083971Y-130012856D01*
X157502369Y-129624242D01*
X157007758Y-129129631D01*
X156619144Y-128548029D01*
X156351463Y-127901789D01*
X156351462Y-127901787D01*
X156215000Y-127215744D01*
X156215000Y-126516256D01*
X156351462Y-125830213D01*
X156619144Y-125183972D01*
X156619144Y-125183971D01*
X157007758Y-124602369D01*
X157502369Y-124107758D01*
X158083971Y-123719144D01*
X158730211Y-123451463D01*
X158730210Y-123451463D01*
X158730213Y-123451462D01*
X159416256Y-123315000D01*
X160115744Y-123315000D01*
X160801787Y-123451462D01*
G37*
G36*
X137560787Y-123451462D02*
G01*
X137560790Y-123451463D01*
X137560789Y-123451463D01*
X138207029Y-123719144D01*
X138788631Y-124107758D01*
X139283242Y-124602369D01*
X139671856Y-125183971D01*
X139671856Y-125183972D01*
X139939538Y-125830213D01*
X140076000Y-126516256D01*
X140076000Y-127215744D01*
X139939538Y-127901787D01*
X139939537Y-127901789D01*
X139671856Y-128548029D01*
X139283242Y-129129631D01*
X138788631Y-129624242D01*
X138207029Y-130012856D01*
X137750068Y-130202135D01*
X137560787Y-130280538D01*
X136874744Y-130417000D01*
X136175256Y-130417000D01*
X135489213Y-130280538D01*
X135299932Y-130202135D01*
X134842971Y-130012856D01*
X134261369Y-129624242D01*
X133766758Y-129129631D01*
X133378144Y-128548029D01*
X133110463Y-127901789D01*
X133110462Y-127901787D01*
X132974000Y-127215744D01*
X132974000Y-126516256D01*
X133110462Y-125830213D01*
X133378144Y-125183972D01*
X133378144Y-125183971D01*
X133766758Y-124602369D01*
X134261369Y-124107758D01*
X134842971Y-123719144D01*
X135489211Y-123451463D01*
X135489210Y-123451463D01*
X135489213Y-123451462D01*
X136175256Y-123315000D01*
X136874744Y-123315000D01*
X137560787Y-123451462D01*
G37*
G36*
X114446787Y-123451462D02*
G01*
X114446790Y-123451463D01*
X114446789Y-123451463D01*
X115093029Y-123719144D01*
X115674631Y-124107758D01*
X116169242Y-124602369D01*
X116557856Y-125183971D01*
X116557856Y-125183972D01*
X116825538Y-125830213D01*
X116962000Y-126516256D01*
X116962000Y-127215744D01*
X116825538Y-127901787D01*
X116825537Y-127901789D01*
X116557856Y-128548029D01*
X116169242Y-129129631D01*
X115674631Y-129624242D01*
X115093029Y-130012856D01*
X114636068Y-130202135D01*
X114446787Y-130280538D01*
X113760744Y-130417000D01*
X113061256Y-130417000D01*
X112375213Y-130280538D01*
X112185932Y-130202135D01*
X111728971Y-130012856D01*
X111147369Y-129624242D01*
X110652758Y-129129631D01*
X110264144Y-128548029D01*
X109996463Y-127901789D01*
X109996462Y-127901787D01*
X109860000Y-127215744D01*
X109860000Y-126516256D01*
X109996462Y-125830213D01*
X110264144Y-125183972D01*
X110264144Y-125183971D01*
X110652758Y-124602369D01*
X111147369Y-124107758D01*
X111728971Y-123719144D01*
X112375211Y-123451463D01*
X112375210Y-123451463D01*
X112375213Y-123451462D01*
X113061256Y-123315000D01*
X113760744Y-123315000D01*
X114446787Y-123451462D01*
G37*
M02*
