G04 #@! TF.GenerationSoftware,KiCad,Pcbnew,(5.1.6-0-10_14)*
G04 #@! TF.CreationDate,2020-06-02T19:47:16-04:00*
G04 #@! TF.ProjectId,RX EQ Shield - Faceplate,52582045-5120-4536-9869-656c64202d20,rev?*
G04 #@! TF.SameCoordinates,Original*
G04 #@! TF.FileFunction,Copper,L1,Top*
G04 #@! TF.FilePolarity,Positive*
%FSLAX46Y46*%
G04 Gerber Fmt 4.6, Leading zero omitted, Abs format (unit mm)*
G04 Created by KiCad (PCBNEW (5.1.6-0-10_14)) date 2020-06-02 19:47:16*
%MOMM*%
%LPD*%
G01*
G04 APERTURE LIST*
G04 #@! TA.AperFunction,ComponentPad*
%ADD10C,5.400000*%
G04 #@! TD*
G04 #@! TA.AperFunction,NonConductor*
%ADD11C,0.254000*%
G04 #@! TD*
G04 APERTURE END LIST*
D10*
X168402000Y-154432000D03*
X104648000Y-154432000D03*
D11*
G36*
X169274545Y-120078909D02*
G01*
X169625208Y-120184780D01*
X169948625Y-120356744D01*
X170232484Y-120588254D01*
X170465965Y-120870486D01*
X170640183Y-121192695D01*
X170748502Y-121542614D01*
X170790000Y-121937443D01*
X170790001Y-152103598D01*
X170527939Y-151841536D01*
X169981715Y-151476561D01*
X169374784Y-151225162D01*
X168730469Y-151097000D01*
X168073531Y-151097000D01*
X167429216Y-151225162D01*
X166822285Y-151476561D01*
X166276061Y-151841536D01*
X165811536Y-152306061D01*
X165446561Y-152852285D01*
X165195162Y-153459216D01*
X165067000Y-154103531D01*
X165067000Y-154760469D01*
X165195162Y-155404784D01*
X165446561Y-156011715D01*
X165811536Y-156557939D01*
X166073597Y-156820000D01*
X106976403Y-156820000D01*
X107238464Y-156557939D01*
X107603439Y-156011715D01*
X107854838Y-155404784D01*
X107983000Y-154760469D01*
X107983000Y-154103531D01*
X107854838Y-153459216D01*
X107603439Y-152852285D01*
X107238464Y-152306061D01*
X106773939Y-151841536D01*
X106227715Y-151476561D01*
X105620784Y-151225162D01*
X104976469Y-151097000D01*
X104319531Y-151097000D01*
X103675216Y-151225162D01*
X103068285Y-151476561D01*
X102522061Y-151841536D01*
X102260000Y-152103597D01*
X102260000Y-147286738D01*
X155631000Y-147286738D01*
X155631000Y-148101262D01*
X155789906Y-148900135D01*
X156101611Y-149652657D01*
X156554136Y-150329909D01*
X157130091Y-150905864D01*
X157807343Y-151358389D01*
X158559865Y-151670094D01*
X159358738Y-151829000D01*
X160173262Y-151829000D01*
X160972135Y-151670094D01*
X161724657Y-151358389D01*
X162401909Y-150905864D01*
X162977864Y-150329909D01*
X163430389Y-149652657D01*
X163742094Y-148900135D01*
X163901000Y-148101262D01*
X163901000Y-147286738D01*
X163742094Y-146487865D01*
X163430389Y-145735343D01*
X162977864Y-145058091D01*
X162401909Y-144482136D01*
X161724657Y-144029611D01*
X160972135Y-143717906D01*
X160173262Y-143559000D01*
X159358738Y-143559000D01*
X158559865Y-143717906D01*
X157807343Y-144029611D01*
X157130091Y-144482136D01*
X156554136Y-145058091D01*
X156101611Y-145735343D01*
X155789906Y-146487865D01*
X155631000Y-147286738D01*
X102260000Y-147286738D01*
X102260000Y-126458738D01*
X109276000Y-126458738D01*
X109276000Y-127273262D01*
X109434906Y-128072135D01*
X109746611Y-128824657D01*
X110199136Y-129501909D01*
X110775091Y-130077864D01*
X111452343Y-130530389D01*
X112204865Y-130842094D01*
X113003738Y-131001000D01*
X113818262Y-131001000D01*
X114617135Y-130842094D01*
X115369657Y-130530389D01*
X116046909Y-130077864D01*
X116622864Y-129501909D01*
X117075389Y-128824657D01*
X117387094Y-128072135D01*
X117546000Y-127273262D01*
X117546000Y-126458738D01*
X132390000Y-126458738D01*
X132390000Y-127273262D01*
X132548906Y-128072135D01*
X132860611Y-128824657D01*
X133313136Y-129501909D01*
X133889091Y-130077864D01*
X134566343Y-130530389D01*
X135318865Y-130842094D01*
X136117738Y-131001000D01*
X136932262Y-131001000D01*
X137731135Y-130842094D01*
X138483657Y-130530389D01*
X139160909Y-130077864D01*
X139736864Y-129501909D01*
X140189389Y-128824657D01*
X140501094Y-128072135D01*
X140660000Y-127273262D01*
X140660000Y-126458738D01*
X155631000Y-126458738D01*
X155631000Y-127273262D01*
X155789906Y-128072135D01*
X156101611Y-128824657D01*
X156554136Y-129501909D01*
X157130091Y-130077864D01*
X157807343Y-130530389D01*
X158559865Y-130842094D01*
X159358738Y-131001000D01*
X160173262Y-131001000D01*
X160972135Y-130842094D01*
X161724657Y-130530389D01*
X162401909Y-130077864D01*
X162977864Y-129501909D01*
X163430389Y-128824657D01*
X163742094Y-128072135D01*
X163901000Y-127273262D01*
X163901000Y-126458738D01*
X163742094Y-125659865D01*
X163430389Y-124907343D01*
X162977864Y-124230091D01*
X162401909Y-123654136D01*
X161724657Y-123201611D01*
X160972135Y-122889906D01*
X160173262Y-122731000D01*
X159358738Y-122731000D01*
X158559865Y-122889906D01*
X157807343Y-123201611D01*
X157130091Y-123654136D01*
X156554136Y-124230091D01*
X156101611Y-124907343D01*
X155789906Y-125659865D01*
X155631000Y-126458738D01*
X140660000Y-126458738D01*
X140501094Y-125659865D01*
X140189389Y-124907343D01*
X139736864Y-124230091D01*
X139160909Y-123654136D01*
X138483657Y-123201611D01*
X137731135Y-122889906D01*
X136932262Y-122731000D01*
X136117738Y-122731000D01*
X135318865Y-122889906D01*
X134566343Y-123201611D01*
X133889091Y-123654136D01*
X133313136Y-124230091D01*
X132860611Y-124907343D01*
X132548906Y-125659865D01*
X132390000Y-126458738D01*
X117546000Y-126458738D01*
X117387094Y-125659865D01*
X117075389Y-124907343D01*
X116622864Y-124230091D01*
X116046909Y-123654136D01*
X115369657Y-123201611D01*
X114617135Y-122889906D01*
X113818262Y-122731000D01*
X113003738Y-122731000D01*
X112204865Y-122889906D01*
X111452343Y-123201611D01*
X110775091Y-123654136D01*
X110199136Y-124230091D01*
X109746611Y-124907343D01*
X109434906Y-125659865D01*
X109276000Y-126458738D01*
X102260000Y-126458738D01*
X102260000Y-121952279D01*
X102298909Y-121555455D01*
X102404780Y-121204792D01*
X102576744Y-120881375D01*
X102808254Y-120597516D01*
X103090486Y-120364035D01*
X103412695Y-120189817D01*
X103762614Y-120081498D01*
X104157443Y-120040000D01*
X168877721Y-120040000D01*
X169274545Y-120078909D01*
G37*
X169274545Y-120078909D02*
X169625208Y-120184780D01*
X169948625Y-120356744D01*
X170232484Y-120588254D01*
X170465965Y-120870486D01*
X170640183Y-121192695D01*
X170748502Y-121542614D01*
X170790000Y-121937443D01*
X170790001Y-152103598D01*
X170527939Y-151841536D01*
X169981715Y-151476561D01*
X169374784Y-151225162D01*
X168730469Y-151097000D01*
X168073531Y-151097000D01*
X167429216Y-151225162D01*
X166822285Y-151476561D01*
X166276061Y-151841536D01*
X165811536Y-152306061D01*
X165446561Y-152852285D01*
X165195162Y-153459216D01*
X165067000Y-154103531D01*
X165067000Y-154760469D01*
X165195162Y-155404784D01*
X165446561Y-156011715D01*
X165811536Y-156557939D01*
X166073597Y-156820000D01*
X106976403Y-156820000D01*
X107238464Y-156557939D01*
X107603439Y-156011715D01*
X107854838Y-155404784D01*
X107983000Y-154760469D01*
X107983000Y-154103531D01*
X107854838Y-153459216D01*
X107603439Y-152852285D01*
X107238464Y-152306061D01*
X106773939Y-151841536D01*
X106227715Y-151476561D01*
X105620784Y-151225162D01*
X104976469Y-151097000D01*
X104319531Y-151097000D01*
X103675216Y-151225162D01*
X103068285Y-151476561D01*
X102522061Y-151841536D01*
X102260000Y-152103597D01*
X102260000Y-147286738D01*
X155631000Y-147286738D01*
X155631000Y-148101262D01*
X155789906Y-148900135D01*
X156101611Y-149652657D01*
X156554136Y-150329909D01*
X157130091Y-150905864D01*
X157807343Y-151358389D01*
X158559865Y-151670094D01*
X159358738Y-151829000D01*
X160173262Y-151829000D01*
X160972135Y-151670094D01*
X161724657Y-151358389D01*
X162401909Y-150905864D01*
X162977864Y-150329909D01*
X163430389Y-149652657D01*
X163742094Y-148900135D01*
X163901000Y-148101262D01*
X163901000Y-147286738D01*
X163742094Y-146487865D01*
X163430389Y-145735343D01*
X162977864Y-145058091D01*
X162401909Y-144482136D01*
X161724657Y-144029611D01*
X160972135Y-143717906D01*
X160173262Y-143559000D01*
X159358738Y-143559000D01*
X158559865Y-143717906D01*
X157807343Y-144029611D01*
X157130091Y-144482136D01*
X156554136Y-145058091D01*
X156101611Y-145735343D01*
X155789906Y-146487865D01*
X155631000Y-147286738D01*
X102260000Y-147286738D01*
X102260000Y-126458738D01*
X109276000Y-126458738D01*
X109276000Y-127273262D01*
X109434906Y-128072135D01*
X109746611Y-128824657D01*
X110199136Y-129501909D01*
X110775091Y-130077864D01*
X111452343Y-130530389D01*
X112204865Y-130842094D01*
X113003738Y-131001000D01*
X113818262Y-131001000D01*
X114617135Y-130842094D01*
X115369657Y-130530389D01*
X116046909Y-130077864D01*
X116622864Y-129501909D01*
X117075389Y-128824657D01*
X117387094Y-128072135D01*
X117546000Y-127273262D01*
X117546000Y-126458738D01*
X132390000Y-126458738D01*
X132390000Y-127273262D01*
X132548906Y-128072135D01*
X132860611Y-128824657D01*
X133313136Y-129501909D01*
X133889091Y-130077864D01*
X134566343Y-130530389D01*
X135318865Y-130842094D01*
X136117738Y-131001000D01*
X136932262Y-131001000D01*
X137731135Y-130842094D01*
X138483657Y-130530389D01*
X139160909Y-130077864D01*
X139736864Y-129501909D01*
X140189389Y-128824657D01*
X140501094Y-128072135D01*
X140660000Y-127273262D01*
X140660000Y-126458738D01*
X155631000Y-126458738D01*
X155631000Y-127273262D01*
X155789906Y-128072135D01*
X156101611Y-128824657D01*
X156554136Y-129501909D01*
X157130091Y-130077864D01*
X157807343Y-130530389D01*
X158559865Y-130842094D01*
X159358738Y-131001000D01*
X160173262Y-131001000D01*
X160972135Y-130842094D01*
X161724657Y-130530389D01*
X162401909Y-130077864D01*
X162977864Y-129501909D01*
X163430389Y-128824657D01*
X163742094Y-128072135D01*
X163901000Y-127273262D01*
X163901000Y-126458738D01*
X163742094Y-125659865D01*
X163430389Y-124907343D01*
X162977864Y-124230091D01*
X162401909Y-123654136D01*
X161724657Y-123201611D01*
X160972135Y-122889906D01*
X160173262Y-122731000D01*
X159358738Y-122731000D01*
X158559865Y-122889906D01*
X157807343Y-123201611D01*
X157130091Y-123654136D01*
X156554136Y-124230091D01*
X156101611Y-124907343D01*
X155789906Y-125659865D01*
X155631000Y-126458738D01*
X140660000Y-126458738D01*
X140501094Y-125659865D01*
X140189389Y-124907343D01*
X139736864Y-124230091D01*
X139160909Y-123654136D01*
X138483657Y-123201611D01*
X137731135Y-122889906D01*
X136932262Y-122731000D01*
X136117738Y-122731000D01*
X135318865Y-122889906D01*
X134566343Y-123201611D01*
X133889091Y-123654136D01*
X133313136Y-124230091D01*
X132860611Y-124907343D01*
X132548906Y-125659865D01*
X132390000Y-126458738D01*
X117546000Y-126458738D01*
X117387094Y-125659865D01*
X117075389Y-124907343D01*
X116622864Y-124230091D01*
X116046909Y-123654136D01*
X115369657Y-123201611D01*
X114617135Y-122889906D01*
X113818262Y-122731000D01*
X113003738Y-122731000D01*
X112204865Y-122889906D01*
X111452343Y-123201611D01*
X110775091Y-123654136D01*
X110199136Y-124230091D01*
X109746611Y-124907343D01*
X109434906Y-125659865D01*
X109276000Y-126458738D01*
X102260000Y-126458738D01*
X102260000Y-121952279D01*
X102298909Y-121555455D01*
X102404780Y-121204792D01*
X102576744Y-120881375D01*
X102808254Y-120597516D01*
X103090486Y-120364035D01*
X103412695Y-120189817D01*
X103762614Y-120081498D01*
X104157443Y-120040000D01*
X168877721Y-120040000D01*
X169274545Y-120078909D01*
M02*
