M48
; DRILL file {KiCad 5.1.5-52549c5~86~ubuntu18.04.1} date Sun 17 May 2020 06:15:08 PM EDT
; FORMAT={-:-/ absolute / inch / decimal}
; #@! TF.CreationDate,2020-05-17T18:15:08-04:00
; #@! TF.GenerationSoftware,Kicad,Pcbnew,5.1.5-52549c5~86~ubuntu18.04.1
; #@! TF.FileFunction,Plated,1,2,PTH
FMAT,2
INCH
T1C0.0157
T2C0.0394
T3C0.0787
%
G90
G05
T1
X4.1Y-5.75
X4.1Y-5.85
X4.1Y-5.95
X4.1179Y-4.8083
X4.12Y-5.22
X4.2Y-5.75
X4.2Y-5.85
X4.2Y-5.95
X4.25Y-5.55
X4.35Y-5.5
X4.4Y-5.7
X4.4Y-5.9
X4.5Y-5.9
X4.55Y-5.8
X4.65Y-5.775
X4.775Y-5.725
X4.825Y-5.725
X4.84Y-5.36
X4.88Y-5.36
X4.9Y-4.82
X4.9Y-5.18
X4.93Y-5.36
X4.95Y-4.82
X4.95Y-5.18
X4.95Y-5.65
X4.975Y-5.575
X4.98Y-5.36
X5.02Y-5.39
X5.05Y-5.65
X5.075Y-5.8696
X5.1Y-5.5
X5.175Y-5.6
X5.2Y-6.15
X5.225Y-5.7
X5.25Y-5.5
X5.3Y-6.15
X5.35Y-5.7
X5.4Y-6.15
X5.475Y-5.65
X5.5Y-5.8
X5.5Y-6.15
X5.575Y-5.55
X5.6Y-5.8
X5.6Y-5.9
X5.6Y-6.0
X5.6Y-6.15
X5.65Y-5.8
X5.675Y-5.55
X5.7Y-5.375
X5.7Y-6.0
X5.8Y-4.825
X5.8Y-5.175
X5.8Y-5.5
X5.8Y-5.775
X5.8Y-5.925
X5.825Y-5.625
X5.85Y-5.9
X5.8602Y-5.688
X5.875Y-4.825
X5.875Y-5.175
X5.9Y-5.5
X5.925Y-5.85
X5.975Y-5.6274
X5.995Y-5.9737
X6.0Y-5.5
X6.35Y-5.75
X6.35Y-5.85
X6.35Y-5.95
X6.5Y-5.65
X6.5Y-5.95
X6.5Y-6.05
X6.65Y-5.55
X6.65Y-5.65
X6.65Y-5.75
X6.65Y-5.85
X6.65Y-5.95
X6.685Y-4.8062
X6.7Y-5.2
T2
X4.11Y-5.59
X5.2766Y-5.29
X5.375Y-5.29
X5.4734Y-5.29
X6.1916Y-5.29
X6.29Y-5.29
X6.3884Y-5.29
X6.1916Y-6.11
X6.29Y-6.11
X6.3884Y-6.11
X4.675Y-5.625
X4.3666Y-5.29
X4.465Y-5.29
X4.5634Y-5.29
X5.2Y-5.925
X5.2Y-6.025
X5.3Y-5.925
X5.3Y-6.025
X5.4Y-5.925
X5.4Y-6.025
X5.5Y-5.925
X5.5Y-6.025
T3
X5.186Y-5.0144
X5.564Y-5.0144
X6.101Y-5.0144
X6.479Y-5.0144
X6.101Y-5.8344
X6.479Y-5.8344
X4.276Y-5.0144
X4.654Y-5.0144
T0
M30
