G04 #@! TF.GenerationSoftware,KiCad,Pcbnew,5.1.5-52549c5~86~ubuntu18.04.1*
G04 #@! TF.CreationDate,2020-05-17T18:15:10-04:00*
G04 #@! TF.ProjectId,RX EQ Shield,52582045-5120-4536-9869-656c642e6b69,rev?*
G04 #@! TF.SameCoordinates,Original*
G04 #@! TF.FileFunction,Soldermask,Bot*
G04 #@! TF.FilePolarity,Negative*
%FSLAX46Y46*%
G04 Gerber Fmt 4.6, Leading zero omitted, Abs format (unit mm)*
G04 Created by KiCad (PCBNEW 5.1.5-52549c5~86~ubuntu18.04.1) date 2020-05-17 18:15:10*
%MOMM*%
%LPD*%
G04 APERTURE LIST*
%ADD10C,0.100000*%
G04 APERTURE END LIST*
D10*
G36*
X157543395Y-154279546D02*
G01*
X157716466Y-154351234D01*
X157716467Y-154351235D01*
X157872227Y-154455310D01*
X158004690Y-154587773D01*
X158004691Y-154587775D01*
X158108766Y-154743534D01*
X158180454Y-154916605D01*
X158217000Y-155100333D01*
X158217000Y-155287667D01*
X158180454Y-155471395D01*
X158108766Y-155644466D01*
X158089332Y-155673551D01*
X158004690Y-155800227D01*
X157872227Y-155932690D01*
X157793818Y-155985081D01*
X157716466Y-156036766D01*
X157543395Y-156108454D01*
X157359667Y-156145000D01*
X157172333Y-156145000D01*
X156988605Y-156108454D01*
X156815534Y-156036766D01*
X156738182Y-155985081D01*
X156659773Y-155932690D01*
X156527310Y-155800227D01*
X156442668Y-155673551D01*
X156423234Y-155644466D01*
X156351546Y-155471395D01*
X156315000Y-155287667D01*
X156315000Y-155100333D01*
X156351546Y-154916605D01*
X156423234Y-154743534D01*
X156527309Y-154587775D01*
X156527310Y-154587773D01*
X156659773Y-154455310D01*
X156815533Y-154351235D01*
X156815534Y-154351234D01*
X156988605Y-154279546D01*
X157172333Y-154243000D01*
X157359667Y-154243000D01*
X157543395Y-154279546D01*
G37*
G36*
X160043395Y-154279546D02*
G01*
X160216466Y-154351234D01*
X160216467Y-154351235D01*
X160372227Y-154455310D01*
X160504690Y-154587773D01*
X160504691Y-154587775D01*
X160608766Y-154743534D01*
X160680454Y-154916605D01*
X160717000Y-155100333D01*
X160717000Y-155287667D01*
X160680454Y-155471395D01*
X160608766Y-155644466D01*
X160589332Y-155673551D01*
X160504690Y-155800227D01*
X160372227Y-155932690D01*
X160293818Y-155985081D01*
X160216466Y-156036766D01*
X160043395Y-156108454D01*
X159859667Y-156145000D01*
X159672333Y-156145000D01*
X159488605Y-156108454D01*
X159315534Y-156036766D01*
X159238182Y-155985081D01*
X159159773Y-155932690D01*
X159027310Y-155800227D01*
X158942668Y-155673551D01*
X158923234Y-155644466D01*
X158851546Y-155471395D01*
X158815000Y-155287667D01*
X158815000Y-155100333D01*
X158851546Y-154916605D01*
X158923234Y-154743534D01*
X159027309Y-154587775D01*
X159027310Y-154587773D01*
X159159773Y-154455310D01*
X159315533Y-154351235D01*
X159315534Y-154351234D01*
X159488605Y-154279546D01*
X159672333Y-154243000D01*
X159859667Y-154243000D01*
X160043395Y-154279546D01*
G37*
G36*
X162543395Y-154279546D02*
G01*
X162716466Y-154351234D01*
X162716467Y-154351235D01*
X162872227Y-154455310D01*
X163004690Y-154587773D01*
X163004691Y-154587775D01*
X163108766Y-154743534D01*
X163180454Y-154916605D01*
X163217000Y-155100333D01*
X163217000Y-155287667D01*
X163180454Y-155471395D01*
X163108766Y-155644466D01*
X163089332Y-155673551D01*
X163004690Y-155800227D01*
X162872227Y-155932690D01*
X162793818Y-155985081D01*
X162716466Y-156036766D01*
X162543395Y-156108454D01*
X162359667Y-156145000D01*
X162172333Y-156145000D01*
X161988605Y-156108454D01*
X161815534Y-156036766D01*
X161738182Y-155985081D01*
X161659773Y-155932690D01*
X161527310Y-155800227D01*
X161442668Y-155673551D01*
X161423234Y-155644466D01*
X161351546Y-155471395D01*
X161315000Y-155287667D01*
X161315000Y-155100333D01*
X161351546Y-154916605D01*
X161423234Y-154743534D01*
X161527309Y-154587775D01*
X161527310Y-154587773D01*
X161659773Y-154455310D01*
X161815533Y-154351235D01*
X161815534Y-154351234D01*
X161988605Y-154279546D01*
X162172333Y-154243000D01*
X162359667Y-154243000D01*
X162543395Y-154279546D01*
G37*
G36*
X168720433Y-153066893D02*
G01*
X168810657Y-153084839D01*
X168904574Y-153123741D01*
X169065621Y-153190449D01*
X169065622Y-153190450D01*
X169295086Y-153343772D01*
X169490228Y-153538914D01*
X169537294Y-153609354D01*
X169643551Y-153768379D01*
X169749161Y-154023344D01*
X169803000Y-154294012D01*
X169803000Y-154569988D01*
X169749161Y-154840656D01*
X169643551Y-155095621D01*
X169640401Y-155100335D01*
X169490228Y-155325086D01*
X169295086Y-155520228D01*
X169141763Y-155622675D01*
X169065621Y-155673551D01*
X168916267Y-155735415D01*
X168810657Y-155779161D01*
X168720433Y-155797107D01*
X168539988Y-155833000D01*
X168264012Y-155833000D01*
X168083567Y-155797107D01*
X167993343Y-155779161D01*
X167887733Y-155735415D01*
X167738379Y-155673551D01*
X167662237Y-155622675D01*
X167508914Y-155520228D01*
X167313772Y-155325086D01*
X167163599Y-155100335D01*
X167160449Y-155095621D01*
X167054839Y-154840656D01*
X167001000Y-154569988D01*
X167001000Y-154294012D01*
X167054839Y-154023344D01*
X167160449Y-153768379D01*
X167266706Y-153609354D01*
X167313772Y-153538914D01*
X167508914Y-153343772D01*
X167738378Y-153190450D01*
X167738379Y-153190449D01*
X167899426Y-153123741D01*
X167993343Y-153084839D01*
X168083567Y-153066893D01*
X168264012Y-153031000D01*
X168539988Y-153031000D01*
X168720433Y-153066893D01*
G37*
G36*
X104966433Y-153066893D02*
G01*
X105056657Y-153084839D01*
X105150574Y-153123741D01*
X105311621Y-153190449D01*
X105311622Y-153190450D01*
X105541086Y-153343772D01*
X105736228Y-153538914D01*
X105783294Y-153609354D01*
X105889551Y-153768379D01*
X105995161Y-154023344D01*
X106049000Y-154294012D01*
X106049000Y-154569988D01*
X105995161Y-154840656D01*
X105889551Y-155095621D01*
X105886401Y-155100335D01*
X105736228Y-155325086D01*
X105541086Y-155520228D01*
X105387763Y-155622675D01*
X105311621Y-155673551D01*
X105162267Y-155735415D01*
X105056657Y-155779161D01*
X104966433Y-155797107D01*
X104785988Y-155833000D01*
X104510012Y-155833000D01*
X104329567Y-155797107D01*
X104239343Y-155779161D01*
X104133733Y-155735415D01*
X103984379Y-155673551D01*
X103908237Y-155622675D01*
X103754914Y-155520228D01*
X103559772Y-155325086D01*
X103409599Y-155100335D01*
X103406449Y-155095621D01*
X103300839Y-154840656D01*
X103247000Y-154569988D01*
X103247000Y-154294012D01*
X103300839Y-154023344D01*
X103406449Y-153768379D01*
X103512706Y-153609354D01*
X103559772Y-153538914D01*
X103754914Y-153343772D01*
X103984378Y-153190450D01*
X103984379Y-153190449D01*
X104145426Y-153123741D01*
X104239343Y-153084839D01*
X104329567Y-153066893D01*
X104510012Y-153031000D01*
X104785988Y-153031000D01*
X104966433Y-153066893D01*
G37*
G36*
X139813512Y-152138927D02*
G01*
X139962812Y-152168624D01*
X140126784Y-152236544D01*
X140274354Y-152335147D01*
X140399853Y-152460646D01*
X140498456Y-152608216D01*
X140566376Y-152772188D01*
X140601000Y-152946259D01*
X140601000Y-153123741D01*
X140566376Y-153297812D01*
X140498456Y-153461784D01*
X140399853Y-153609354D01*
X140274354Y-153734853D01*
X140126784Y-153833456D01*
X139962812Y-153901376D01*
X139813512Y-153931073D01*
X139788742Y-153936000D01*
X139611258Y-153936000D01*
X139586488Y-153931073D01*
X139437188Y-153901376D01*
X139273216Y-153833456D01*
X139125646Y-153734853D01*
X139000147Y-153609354D01*
X138901544Y-153461784D01*
X138833624Y-153297812D01*
X138799000Y-153123741D01*
X138799000Y-152946259D01*
X138833624Y-152772188D01*
X138901544Y-152608216D01*
X139000147Y-152460646D01*
X139125646Y-152335147D01*
X139273216Y-152236544D01*
X139437188Y-152168624D01*
X139586488Y-152138927D01*
X139611258Y-152134000D01*
X139788742Y-152134000D01*
X139813512Y-152138927D01*
G37*
G36*
X132193512Y-152138927D02*
G01*
X132342812Y-152168624D01*
X132506784Y-152236544D01*
X132654354Y-152335147D01*
X132779853Y-152460646D01*
X132878456Y-152608216D01*
X132946376Y-152772188D01*
X132981000Y-152946259D01*
X132981000Y-153123741D01*
X132946376Y-153297812D01*
X132878456Y-153461784D01*
X132779853Y-153609354D01*
X132654354Y-153734853D01*
X132506784Y-153833456D01*
X132342812Y-153901376D01*
X132193512Y-153931073D01*
X132168742Y-153936000D01*
X131991258Y-153936000D01*
X131966488Y-153931073D01*
X131817188Y-153901376D01*
X131653216Y-153833456D01*
X131505646Y-153734853D01*
X131380147Y-153609354D01*
X131281544Y-153461784D01*
X131213624Y-153297812D01*
X131179000Y-153123741D01*
X131179000Y-152946259D01*
X131213624Y-152772188D01*
X131281544Y-152608216D01*
X131380147Y-152460646D01*
X131505646Y-152335147D01*
X131653216Y-152236544D01*
X131817188Y-152168624D01*
X131966488Y-152138927D01*
X131991258Y-152134000D01*
X132168742Y-152134000D01*
X132193512Y-152138927D01*
G37*
G36*
X134733512Y-152138927D02*
G01*
X134882812Y-152168624D01*
X135046784Y-152236544D01*
X135194354Y-152335147D01*
X135319853Y-152460646D01*
X135418456Y-152608216D01*
X135486376Y-152772188D01*
X135521000Y-152946259D01*
X135521000Y-153123741D01*
X135486376Y-153297812D01*
X135418456Y-153461784D01*
X135319853Y-153609354D01*
X135194354Y-153734853D01*
X135046784Y-153833456D01*
X134882812Y-153901376D01*
X134733512Y-153931073D01*
X134708742Y-153936000D01*
X134531258Y-153936000D01*
X134506488Y-153931073D01*
X134357188Y-153901376D01*
X134193216Y-153833456D01*
X134045646Y-153734853D01*
X133920147Y-153609354D01*
X133821544Y-153461784D01*
X133753624Y-153297812D01*
X133719000Y-153123741D01*
X133719000Y-152946259D01*
X133753624Y-152772188D01*
X133821544Y-152608216D01*
X133920147Y-152460646D01*
X134045646Y-152335147D01*
X134193216Y-152236544D01*
X134357188Y-152168624D01*
X134506488Y-152138927D01*
X134531258Y-152134000D01*
X134708742Y-152134000D01*
X134733512Y-152138927D01*
G37*
G36*
X137273512Y-152138927D02*
G01*
X137422812Y-152168624D01*
X137586784Y-152236544D01*
X137734354Y-152335147D01*
X137859853Y-152460646D01*
X137958456Y-152608216D01*
X138026376Y-152772188D01*
X138061000Y-152946259D01*
X138061000Y-153123741D01*
X138026376Y-153297812D01*
X137958456Y-153461784D01*
X137859853Y-153609354D01*
X137734354Y-153734853D01*
X137586784Y-153833456D01*
X137422812Y-153901376D01*
X137273512Y-153931073D01*
X137248742Y-153936000D01*
X137071258Y-153936000D01*
X137046488Y-153931073D01*
X136897188Y-153901376D01*
X136733216Y-153833456D01*
X136585646Y-153734853D01*
X136460147Y-153609354D01*
X136361544Y-153461784D01*
X136293624Y-153297812D01*
X136259000Y-153123741D01*
X136259000Y-152946259D01*
X136293624Y-152772188D01*
X136361544Y-152608216D01*
X136460147Y-152460646D01*
X136585646Y-152335147D01*
X136733216Y-152236544D01*
X136897188Y-152168624D01*
X137046488Y-152138927D01*
X137071258Y-152134000D01*
X137248742Y-152134000D01*
X137273512Y-152138927D01*
G37*
G36*
X140601000Y-151396000D02*
G01*
X138799000Y-151396000D01*
X138799000Y-149594000D01*
X140601000Y-149594000D01*
X140601000Y-151396000D01*
G37*
G36*
X132193512Y-149598927D02*
G01*
X132342812Y-149628624D01*
X132506784Y-149696544D01*
X132654354Y-149795147D01*
X132779853Y-149920646D01*
X132878456Y-150068216D01*
X132946376Y-150232188D01*
X132981000Y-150406259D01*
X132981000Y-150583741D01*
X132946376Y-150757812D01*
X132878456Y-150921784D01*
X132779853Y-151069354D01*
X132654354Y-151194853D01*
X132506784Y-151293456D01*
X132342812Y-151361376D01*
X132193512Y-151391073D01*
X132168742Y-151396000D01*
X131991258Y-151396000D01*
X131966488Y-151391073D01*
X131817188Y-151361376D01*
X131653216Y-151293456D01*
X131505646Y-151194853D01*
X131380147Y-151069354D01*
X131281544Y-150921784D01*
X131213624Y-150757812D01*
X131179000Y-150583741D01*
X131179000Y-150406259D01*
X131213624Y-150232188D01*
X131281544Y-150068216D01*
X131380147Y-149920646D01*
X131505646Y-149795147D01*
X131653216Y-149696544D01*
X131817188Y-149628624D01*
X131966488Y-149598927D01*
X131991258Y-149594000D01*
X132168742Y-149594000D01*
X132193512Y-149598927D01*
G37*
G36*
X137273512Y-149598927D02*
G01*
X137422812Y-149628624D01*
X137586784Y-149696544D01*
X137734354Y-149795147D01*
X137859853Y-149920646D01*
X137958456Y-150068216D01*
X138026376Y-150232188D01*
X138061000Y-150406259D01*
X138061000Y-150583741D01*
X138026376Y-150757812D01*
X137958456Y-150921784D01*
X137859853Y-151069354D01*
X137734354Y-151194853D01*
X137586784Y-151293456D01*
X137422812Y-151361376D01*
X137273512Y-151391073D01*
X137248742Y-151396000D01*
X137071258Y-151396000D01*
X137046488Y-151391073D01*
X136897188Y-151361376D01*
X136733216Y-151293456D01*
X136585646Y-151194853D01*
X136460147Y-151069354D01*
X136361544Y-150921784D01*
X136293624Y-150757812D01*
X136259000Y-150583741D01*
X136259000Y-150406259D01*
X136293624Y-150232188D01*
X136361544Y-150068216D01*
X136460147Y-149920646D01*
X136585646Y-149795147D01*
X136733216Y-149696544D01*
X136897188Y-149628624D01*
X137046488Y-149598927D01*
X137071258Y-149594000D01*
X137248742Y-149594000D01*
X137273512Y-149598927D01*
G37*
G36*
X134733512Y-149598927D02*
G01*
X134882812Y-149628624D01*
X135046784Y-149696544D01*
X135194354Y-149795147D01*
X135319853Y-149920646D01*
X135418456Y-150068216D01*
X135486376Y-150232188D01*
X135521000Y-150406259D01*
X135521000Y-150583741D01*
X135486376Y-150757812D01*
X135418456Y-150921784D01*
X135319853Y-151069354D01*
X135194354Y-151194853D01*
X135046784Y-151293456D01*
X134882812Y-151361376D01*
X134733512Y-151391073D01*
X134708742Y-151396000D01*
X134531258Y-151396000D01*
X134506488Y-151391073D01*
X134357188Y-151361376D01*
X134193216Y-151293456D01*
X134045646Y-151194853D01*
X133920147Y-151069354D01*
X133821544Y-150921784D01*
X133753624Y-150757812D01*
X133719000Y-150583741D01*
X133719000Y-150406259D01*
X133753624Y-150232188D01*
X133821544Y-150068216D01*
X133920147Y-149920646D01*
X134045646Y-149795147D01*
X134193216Y-149696544D01*
X134357188Y-149628624D01*
X134506488Y-149598927D01*
X134531258Y-149594000D01*
X134708742Y-149594000D01*
X134733512Y-149598927D01*
G37*
G36*
X164868585Y-146672802D02*
G01*
X165018410Y-146702604D01*
X165300674Y-146819521D01*
X165554705Y-146989259D01*
X165770741Y-147205295D01*
X165940479Y-147459326D01*
X166057396Y-147741590D01*
X166117000Y-148041240D01*
X166117000Y-148346760D01*
X166057396Y-148646410D01*
X165940479Y-148928674D01*
X165770741Y-149182705D01*
X165554705Y-149398741D01*
X165300674Y-149568479D01*
X165018410Y-149685396D01*
X164962365Y-149696544D01*
X164718761Y-149745000D01*
X164413239Y-149745000D01*
X164169635Y-149696544D01*
X164113590Y-149685396D01*
X163831326Y-149568479D01*
X163577295Y-149398741D01*
X163361259Y-149182705D01*
X163191521Y-148928674D01*
X163074604Y-148646410D01*
X163015000Y-148346760D01*
X163015000Y-148041240D01*
X163074604Y-147741590D01*
X163191521Y-147459326D01*
X163361259Y-147205295D01*
X163577295Y-146989259D01*
X163831326Y-146819521D01*
X164113590Y-146702604D01*
X164263415Y-146672802D01*
X164413239Y-146643000D01*
X164718761Y-146643000D01*
X164868585Y-146672802D01*
G37*
G36*
X155268585Y-146672802D02*
G01*
X155418410Y-146702604D01*
X155700674Y-146819521D01*
X155954705Y-146989259D01*
X156170741Y-147205295D01*
X156340479Y-147459326D01*
X156457396Y-147741590D01*
X156517000Y-148041240D01*
X156517000Y-148346760D01*
X156457396Y-148646410D01*
X156340479Y-148928674D01*
X156170741Y-149182705D01*
X155954705Y-149398741D01*
X155700674Y-149568479D01*
X155418410Y-149685396D01*
X155362365Y-149696544D01*
X155118761Y-149745000D01*
X154813239Y-149745000D01*
X154569635Y-149696544D01*
X154513590Y-149685396D01*
X154231326Y-149568479D01*
X153977295Y-149398741D01*
X153761259Y-149182705D01*
X153591521Y-148928674D01*
X153474604Y-148646410D01*
X153415000Y-148346760D01*
X153415000Y-148041240D01*
X153474604Y-147741590D01*
X153591521Y-147459326D01*
X153761259Y-147205295D01*
X153977295Y-146989259D01*
X154231326Y-146819521D01*
X154513590Y-146702604D01*
X154663415Y-146672802D01*
X154813239Y-146643000D01*
X155118761Y-146643000D01*
X155268585Y-146672802D01*
G37*
G36*
X119051564Y-141864389D02*
G01*
X119242833Y-141943615D01*
X119242835Y-141943616D01*
X119414973Y-142058635D01*
X119561365Y-142205027D01*
X119676385Y-142377167D01*
X119755611Y-142568436D01*
X119796000Y-142771484D01*
X119796000Y-142978516D01*
X119755611Y-143181564D01*
X119676385Y-143372833D01*
X119676384Y-143372835D01*
X119561365Y-143544973D01*
X119414973Y-143691365D01*
X119242835Y-143806384D01*
X119242834Y-143806385D01*
X119242833Y-143806385D01*
X119051564Y-143885611D01*
X118848516Y-143926000D01*
X118641484Y-143926000D01*
X118438436Y-143885611D01*
X118247167Y-143806385D01*
X118247166Y-143806385D01*
X118247165Y-143806384D01*
X118075027Y-143691365D01*
X117928635Y-143544973D01*
X117813616Y-143372835D01*
X117813615Y-143372833D01*
X117734389Y-143181564D01*
X117694000Y-142978516D01*
X117694000Y-142771484D01*
X117734389Y-142568436D01*
X117813615Y-142377167D01*
X117928635Y-142205027D01*
X118075027Y-142058635D01*
X118247165Y-141943616D01*
X118247167Y-141943615D01*
X118438436Y-141864389D01*
X118641484Y-141824000D01*
X118848516Y-141824000D01*
X119051564Y-141864389D01*
G37*
G36*
X104700564Y-140975389D02*
G01*
X104891833Y-141054615D01*
X104891835Y-141054616D01*
X105063973Y-141169635D01*
X105210365Y-141316027D01*
X105325385Y-141488167D01*
X105404611Y-141679436D01*
X105445000Y-141882484D01*
X105445000Y-142089516D01*
X105404611Y-142292564D01*
X105369568Y-142377165D01*
X105325384Y-142483835D01*
X105210365Y-142655973D01*
X105063973Y-142802365D01*
X104891835Y-142917384D01*
X104891834Y-142917385D01*
X104891833Y-142917385D01*
X104700564Y-142996611D01*
X104497516Y-143037000D01*
X104290484Y-143037000D01*
X104087436Y-142996611D01*
X103896167Y-142917385D01*
X103896166Y-142917385D01*
X103896165Y-142917384D01*
X103724027Y-142802365D01*
X103577635Y-142655973D01*
X103462616Y-142483835D01*
X103418432Y-142377165D01*
X103383389Y-142292564D01*
X103343000Y-142089516D01*
X103343000Y-141882484D01*
X103383389Y-141679436D01*
X103462615Y-141488167D01*
X103577635Y-141316027D01*
X103724027Y-141169635D01*
X103896165Y-141054616D01*
X103896167Y-141054615D01*
X104087436Y-140975389D01*
X104290484Y-140935000D01*
X104497516Y-140935000D01*
X104700564Y-140975389D01*
G37*
G36*
X157543395Y-133451546D02*
G01*
X157716466Y-133523234D01*
X157716467Y-133523235D01*
X157872227Y-133627310D01*
X158004690Y-133759773D01*
X158004691Y-133759775D01*
X158108766Y-133915534D01*
X158180454Y-134088605D01*
X158217000Y-134272333D01*
X158217000Y-134459667D01*
X158180454Y-134643395D01*
X158108766Y-134816466D01*
X158108765Y-134816467D01*
X158004690Y-134972227D01*
X157872227Y-135104690D01*
X157793818Y-135157081D01*
X157716466Y-135208766D01*
X157543395Y-135280454D01*
X157359667Y-135317000D01*
X157172333Y-135317000D01*
X156988605Y-135280454D01*
X156815534Y-135208766D01*
X156738182Y-135157081D01*
X156659773Y-135104690D01*
X156527310Y-134972227D01*
X156423235Y-134816467D01*
X156423234Y-134816466D01*
X156351546Y-134643395D01*
X156315000Y-134459667D01*
X156315000Y-134272333D01*
X156351546Y-134088605D01*
X156423234Y-133915534D01*
X156527309Y-133759775D01*
X156527310Y-133759773D01*
X156659773Y-133627310D01*
X156815533Y-133523235D01*
X156815534Y-133523234D01*
X156988605Y-133451546D01*
X157172333Y-133415000D01*
X157359667Y-133415000D01*
X157543395Y-133451546D01*
G37*
G36*
X162543395Y-133451546D02*
G01*
X162716466Y-133523234D01*
X162716467Y-133523235D01*
X162872227Y-133627310D01*
X163004690Y-133759773D01*
X163004691Y-133759775D01*
X163108766Y-133915534D01*
X163180454Y-134088605D01*
X163217000Y-134272333D01*
X163217000Y-134459667D01*
X163180454Y-134643395D01*
X163108766Y-134816466D01*
X163108765Y-134816467D01*
X163004690Y-134972227D01*
X162872227Y-135104690D01*
X162793818Y-135157081D01*
X162716466Y-135208766D01*
X162543395Y-135280454D01*
X162359667Y-135317000D01*
X162172333Y-135317000D01*
X161988605Y-135280454D01*
X161815534Y-135208766D01*
X161738182Y-135157081D01*
X161659773Y-135104690D01*
X161527310Y-134972227D01*
X161423235Y-134816467D01*
X161423234Y-134816466D01*
X161351546Y-134643395D01*
X161315000Y-134459667D01*
X161315000Y-134272333D01*
X161351546Y-134088605D01*
X161423234Y-133915534D01*
X161527309Y-133759775D01*
X161527310Y-133759773D01*
X161659773Y-133627310D01*
X161815533Y-133523235D01*
X161815534Y-133523234D01*
X161988605Y-133451546D01*
X162172333Y-133415000D01*
X162359667Y-133415000D01*
X162543395Y-133451546D01*
G37*
G36*
X134302395Y-133451546D02*
G01*
X134475466Y-133523234D01*
X134475467Y-133523235D01*
X134631227Y-133627310D01*
X134763690Y-133759773D01*
X134763691Y-133759775D01*
X134867766Y-133915534D01*
X134939454Y-134088605D01*
X134976000Y-134272333D01*
X134976000Y-134459667D01*
X134939454Y-134643395D01*
X134867766Y-134816466D01*
X134867765Y-134816467D01*
X134763690Y-134972227D01*
X134631227Y-135104690D01*
X134552818Y-135157081D01*
X134475466Y-135208766D01*
X134302395Y-135280454D01*
X134118667Y-135317000D01*
X133931333Y-135317000D01*
X133747605Y-135280454D01*
X133574534Y-135208766D01*
X133497182Y-135157081D01*
X133418773Y-135104690D01*
X133286310Y-134972227D01*
X133182235Y-134816467D01*
X133182234Y-134816466D01*
X133110546Y-134643395D01*
X133074000Y-134459667D01*
X133074000Y-134272333D01*
X133110546Y-134088605D01*
X133182234Y-133915534D01*
X133286309Y-133759775D01*
X133286310Y-133759773D01*
X133418773Y-133627310D01*
X133574533Y-133523235D01*
X133574534Y-133523234D01*
X133747605Y-133451546D01*
X133931333Y-133415000D01*
X134118667Y-133415000D01*
X134302395Y-133451546D01*
G37*
G36*
X136802395Y-133451546D02*
G01*
X136975466Y-133523234D01*
X136975467Y-133523235D01*
X137131227Y-133627310D01*
X137263690Y-133759773D01*
X137263691Y-133759775D01*
X137367766Y-133915534D01*
X137439454Y-134088605D01*
X137476000Y-134272333D01*
X137476000Y-134459667D01*
X137439454Y-134643395D01*
X137367766Y-134816466D01*
X137367765Y-134816467D01*
X137263690Y-134972227D01*
X137131227Y-135104690D01*
X137052818Y-135157081D01*
X136975466Y-135208766D01*
X136802395Y-135280454D01*
X136618667Y-135317000D01*
X136431333Y-135317000D01*
X136247605Y-135280454D01*
X136074534Y-135208766D01*
X135997182Y-135157081D01*
X135918773Y-135104690D01*
X135786310Y-134972227D01*
X135682235Y-134816467D01*
X135682234Y-134816466D01*
X135610546Y-134643395D01*
X135574000Y-134459667D01*
X135574000Y-134272333D01*
X135610546Y-134088605D01*
X135682234Y-133915534D01*
X135786309Y-133759775D01*
X135786310Y-133759773D01*
X135918773Y-133627310D01*
X136074533Y-133523235D01*
X136074534Y-133523234D01*
X136247605Y-133451546D01*
X136431333Y-133415000D01*
X136618667Y-133415000D01*
X136802395Y-133451546D01*
G37*
G36*
X139302395Y-133451546D02*
G01*
X139475466Y-133523234D01*
X139475467Y-133523235D01*
X139631227Y-133627310D01*
X139763690Y-133759773D01*
X139763691Y-133759775D01*
X139867766Y-133915534D01*
X139939454Y-134088605D01*
X139976000Y-134272333D01*
X139976000Y-134459667D01*
X139939454Y-134643395D01*
X139867766Y-134816466D01*
X139867765Y-134816467D01*
X139763690Y-134972227D01*
X139631227Y-135104690D01*
X139552818Y-135157081D01*
X139475466Y-135208766D01*
X139302395Y-135280454D01*
X139118667Y-135317000D01*
X138931333Y-135317000D01*
X138747605Y-135280454D01*
X138574534Y-135208766D01*
X138497182Y-135157081D01*
X138418773Y-135104690D01*
X138286310Y-134972227D01*
X138182235Y-134816467D01*
X138182234Y-134816466D01*
X138110546Y-134643395D01*
X138074000Y-134459667D01*
X138074000Y-134272333D01*
X138110546Y-134088605D01*
X138182234Y-133915534D01*
X138286309Y-133759775D01*
X138286310Y-133759773D01*
X138418773Y-133627310D01*
X138574533Y-133523235D01*
X138574534Y-133523234D01*
X138747605Y-133451546D01*
X138931333Y-133415000D01*
X139118667Y-133415000D01*
X139302395Y-133451546D01*
G37*
G36*
X111188395Y-133451546D02*
G01*
X111361466Y-133523234D01*
X111361467Y-133523235D01*
X111517227Y-133627310D01*
X111649690Y-133759773D01*
X111649691Y-133759775D01*
X111753766Y-133915534D01*
X111825454Y-134088605D01*
X111862000Y-134272333D01*
X111862000Y-134459667D01*
X111825454Y-134643395D01*
X111753766Y-134816466D01*
X111753765Y-134816467D01*
X111649690Y-134972227D01*
X111517227Y-135104690D01*
X111438818Y-135157081D01*
X111361466Y-135208766D01*
X111188395Y-135280454D01*
X111004667Y-135317000D01*
X110817333Y-135317000D01*
X110633605Y-135280454D01*
X110460534Y-135208766D01*
X110383182Y-135157081D01*
X110304773Y-135104690D01*
X110172310Y-134972227D01*
X110068235Y-134816467D01*
X110068234Y-134816466D01*
X109996546Y-134643395D01*
X109960000Y-134459667D01*
X109960000Y-134272333D01*
X109996546Y-134088605D01*
X110068234Y-133915534D01*
X110172309Y-133759775D01*
X110172310Y-133759773D01*
X110304773Y-133627310D01*
X110460533Y-133523235D01*
X110460534Y-133523234D01*
X110633605Y-133451546D01*
X110817333Y-133415000D01*
X111004667Y-133415000D01*
X111188395Y-133451546D01*
G37*
G36*
X113688395Y-133451546D02*
G01*
X113861466Y-133523234D01*
X113861467Y-133523235D01*
X114017227Y-133627310D01*
X114149690Y-133759773D01*
X114149691Y-133759775D01*
X114253766Y-133915534D01*
X114325454Y-134088605D01*
X114362000Y-134272333D01*
X114362000Y-134459667D01*
X114325454Y-134643395D01*
X114253766Y-134816466D01*
X114253765Y-134816467D01*
X114149690Y-134972227D01*
X114017227Y-135104690D01*
X113938818Y-135157081D01*
X113861466Y-135208766D01*
X113688395Y-135280454D01*
X113504667Y-135317000D01*
X113317333Y-135317000D01*
X113133605Y-135280454D01*
X112960534Y-135208766D01*
X112883182Y-135157081D01*
X112804773Y-135104690D01*
X112672310Y-134972227D01*
X112568235Y-134816467D01*
X112568234Y-134816466D01*
X112496546Y-134643395D01*
X112460000Y-134459667D01*
X112460000Y-134272333D01*
X112496546Y-134088605D01*
X112568234Y-133915534D01*
X112672309Y-133759775D01*
X112672310Y-133759773D01*
X112804773Y-133627310D01*
X112960533Y-133523235D01*
X112960534Y-133523234D01*
X113133605Y-133451546D01*
X113317333Y-133415000D01*
X113504667Y-133415000D01*
X113688395Y-133451546D01*
G37*
G36*
X116188395Y-133451546D02*
G01*
X116361466Y-133523234D01*
X116361467Y-133523235D01*
X116517227Y-133627310D01*
X116649690Y-133759773D01*
X116649691Y-133759775D01*
X116753766Y-133915534D01*
X116825454Y-134088605D01*
X116862000Y-134272333D01*
X116862000Y-134459667D01*
X116825454Y-134643395D01*
X116753766Y-134816466D01*
X116753765Y-134816467D01*
X116649690Y-134972227D01*
X116517227Y-135104690D01*
X116438818Y-135157081D01*
X116361466Y-135208766D01*
X116188395Y-135280454D01*
X116004667Y-135317000D01*
X115817333Y-135317000D01*
X115633605Y-135280454D01*
X115460534Y-135208766D01*
X115383182Y-135157081D01*
X115304773Y-135104690D01*
X115172310Y-134972227D01*
X115068235Y-134816467D01*
X115068234Y-134816466D01*
X114996546Y-134643395D01*
X114960000Y-134459667D01*
X114960000Y-134272333D01*
X114996546Y-134088605D01*
X115068234Y-133915534D01*
X115172309Y-133759775D01*
X115172310Y-133759773D01*
X115304773Y-133627310D01*
X115460533Y-133523235D01*
X115460534Y-133523234D01*
X115633605Y-133451546D01*
X115817333Y-133415000D01*
X116004667Y-133415000D01*
X116188395Y-133451546D01*
G37*
G36*
X160043395Y-133451546D02*
G01*
X160216466Y-133523234D01*
X160216467Y-133523235D01*
X160372227Y-133627310D01*
X160504690Y-133759773D01*
X160504691Y-133759775D01*
X160608766Y-133915534D01*
X160680454Y-134088605D01*
X160717000Y-134272333D01*
X160717000Y-134459667D01*
X160680454Y-134643395D01*
X160608766Y-134816466D01*
X160608765Y-134816467D01*
X160504690Y-134972227D01*
X160372227Y-135104690D01*
X160293818Y-135157081D01*
X160216466Y-135208766D01*
X160043395Y-135280454D01*
X159859667Y-135317000D01*
X159672333Y-135317000D01*
X159488605Y-135280454D01*
X159315534Y-135208766D01*
X159238182Y-135157081D01*
X159159773Y-135104690D01*
X159027310Y-134972227D01*
X158923235Y-134816467D01*
X158923234Y-134816466D01*
X158851546Y-134643395D01*
X158815000Y-134459667D01*
X158815000Y-134272333D01*
X158851546Y-134088605D01*
X158923234Y-133915534D01*
X159027309Y-133759775D01*
X159027310Y-133759773D01*
X159159773Y-133627310D01*
X159315533Y-133523235D01*
X159315534Y-133523234D01*
X159488605Y-133451546D01*
X159672333Y-133415000D01*
X159859667Y-133415000D01*
X160043395Y-133451546D01*
G37*
G36*
X141627585Y-125844802D02*
G01*
X141777410Y-125874604D01*
X142059674Y-125991521D01*
X142313705Y-126161259D01*
X142529741Y-126377295D01*
X142699479Y-126631326D01*
X142816396Y-126913590D01*
X142876000Y-127213240D01*
X142876000Y-127518760D01*
X142816396Y-127818410D01*
X142699479Y-128100674D01*
X142529741Y-128354705D01*
X142313705Y-128570741D01*
X142059674Y-128740479D01*
X141777410Y-128857396D01*
X141627585Y-128887198D01*
X141477761Y-128917000D01*
X141172239Y-128917000D01*
X141022415Y-128887198D01*
X140872590Y-128857396D01*
X140590326Y-128740479D01*
X140336295Y-128570741D01*
X140120259Y-128354705D01*
X139950521Y-128100674D01*
X139833604Y-127818410D01*
X139774000Y-127518760D01*
X139774000Y-127213240D01*
X139833604Y-126913590D01*
X139950521Y-126631326D01*
X140120259Y-126377295D01*
X140336295Y-126161259D01*
X140590326Y-125991521D01*
X140872590Y-125874604D01*
X141022415Y-125844802D01*
X141172239Y-125815000D01*
X141477761Y-125815000D01*
X141627585Y-125844802D01*
G37*
G36*
X132027585Y-125844802D02*
G01*
X132177410Y-125874604D01*
X132459674Y-125991521D01*
X132713705Y-126161259D01*
X132929741Y-126377295D01*
X133099479Y-126631326D01*
X133216396Y-126913590D01*
X133276000Y-127213240D01*
X133276000Y-127518760D01*
X133216396Y-127818410D01*
X133099479Y-128100674D01*
X132929741Y-128354705D01*
X132713705Y-128570741D01*
X132459674Y-128740479D01*
X132177410Y-128857396D01*
X132027585Y-128887198D01*
X131877761Y-128917000D01*
X131572239Y-128917000D01*
X131422415Y-128887198D01*
X131272590Y-128857396D01*
X130990326Y-128740479D01*
X130736295Y-128570741D01*
X130520259Y-128354705D01*
X130350521Y-128100674D01*
X130233604Y-127818410D01*
X130174000Y-127518760D01*
X130174000Y-127213240D01*
X130233604Y-126913590D01*
X130350521Y-126631326D01*
X130520259Y-126377295D01*
X130736295Y-126161259D01*
X130990326Y-125991521D01*
X131272590Y-125874604D01*
X131422415Y-125844802D01*
X131572239Y-125815000D01*
X131877761Y-125815000D01*
X132027585Y-125844802D01*
G37*
G36*
X155268585Y-125844802D02*
G01*
X155418410Y-125874604D01*
X155700674Y-125991521D01*
X155954705Y-126161259D01*
X156170741Y-126377295D01*
X156340479Y-126631326D01*
X156457396Y-126913590D01*
X156517000Y-127213240D01*
X156517000Y-127518760D01*
X156457396Y-127818410D01*
X156340479Y-128100674D01*
X156170741Y-128354705D01*
X155954705Y-128570741D01*
X155700674Y-128740479D01*
X155418410Y-128857396D01*
X155268585Y-128887198D01*
X155118761Y-128917000D01*
X154813239Y-128917000D01*
X154663415Y-128887198D01*
X154513590Y-128857396D01*
X154231326Y-128740479D01*
X153977295Y-128570741D01*
X153761259Y-128354705D01*
X153591521Y-128100674D01*
X153474604Y-127818410D01*
X153415000Y-127518760D01*
X153415000Y-127213240D01*
X153474604Y-126913590D01*
X153591521Y-126631326D01*
X153761259Y-126377295D01*
X153977295Y-126161259D01*
X154231326Y-125991521D01*
X154513590Y-125874604D01*
X154663415Y-125844802D01*
X154813239Y-125815000D01*
X155118761Y-125815000D01*
X155268585Y-125844802D01*
G37*
G36*
X108913585Y-125844802D02*
G01*
X109063410Y-125874604D01*
X109345674Y-125991521D01*
X109599705Y-126161259D01*
X109815741Y-126377295D01*
X109985479Y-126631326D01*
X110102396Y-126913590D01*
X110162000Y-127213240D01*
X110162000Y-127518760D01*
X110102396Y-127818410D01*
X109985479Y-128100674D01*
X109815741Y-128354705D01*
X109599705Y-128570741D01*
X109345674Y-128740479D01*
X109063410Y-128857396D01*
X108913585Y-128887198D01*
X108763761Y-128917000D01*
X108458239Y-128917000D01*
X108308415Y-128887198D01*
X108158590Y-128857396D01*
X107876326Y-128740479D01*
X107622295Y-128570741D01*
X107406259Y-128354705D01*
X107236521Y-128100674D01*
X107119604Y-127818410D01*
X107060000Y-127518760D01*
X107060000Y-127213240D01*
X107119604Y-126913590D01*
X107236521Y-126631326D01*
X107406259Y-126377295D01*
X107622295Y-126161259D01*
X107876326Y-125991521D01*
X108158590Y-125874604D01*
X108308415Y-125844802D01*
X108458239Y-125815000D01*
X108763761Y-125815000D01*
X108913585Y-125844802D01*
G37*
G36*
X118513585Y-125844802D02*
G01*
X118663410Y-125874604D01*
X118945674Y-125991521D01*
X119199705Y-126161259D01*
X119415741Y-126377295D01*
X119585479Y-126631326D01*
X119702396Y-126913590D01*
X119762000Y-127213240D01*
X119762000Y-127518760D01*
X119702396Y-127818410D01*
X119585479Y-128100674D01*
X119415741Y-128354705D01*
X119199705Y-128570741D01*
X118945674Y-128740479D01*
X118663410Y-128857396D01*
X118513585Y-128887198D01*
X118363761Y-128917000D01*
X118058239Y-128917000D01*
X117908415Y-128887198D01*
X117758590Y-128857396D01*
X117476326Y-128740479D01*
X117222295Y-128570741D01*
X117006259Y-128354705D01*
X116836521Y-128100674D01*
X116719604Y-127818410D01*
X116660000Y-127518760D01*
X116660000Y-127213240D01*
X116719604Y-126913590D01*
X116836521Y-126631326D01*
X117006259Y-126377295D01*
X117222295Y-126161259D01*
X117476326Y-125991521D01*
X117758590Y-125874604D01*
X117908415Y-125844802D01*
X118058239Y-125815000D01*
X118363761Y-125815000D01*
X118513585Y-125844802D01*
G37*
G36*
X164868585Y-125844802D02*
G01*
X165018410Y-125874604D01*
X165300674Y-125991521D01*
X165554705Y-126161259D01*
X165770741Y-126377295D01*
X165940479Y-126631326D01*
X166057396Y-126913590D01*
X166117000Y-127213240D01*
X166117000Y-127518760D01*
X166057396Y-127818410D01*
X165940479Y-128100674D01*
X165770741Y-128354705D01*
X165554705Y-128570741D01*
X165300674Y-128740479D01*
X165018410Y-128857396D01*
X164868585Y-128887198D01*
X164718761Y-128917000D01*
X164413239Y-128917000D01*
X164263415Y-128887198D01*
X164113590Y-128857396D01*
X163831326Y-128740479D01*
X163577295Y-128570741D01*
X163361259Y-128354705D01*
X163191521Y-128100674D01*
X163074604Y-127818410D01*
X163015000Y-127518760D01*
X163015000Y-127213240D01*
X163074604Y-126913590D01*
X163191521Y-126631326D01*
X163361259Y-126377295D01*
X163577295Y-126161259D01*
X163831326Y-125991521D01*
X164113590Y-125874604D01*
X164263415Y-125844802D01*
X164413239Y-125815000D01*
X164718761Y-125815000D01*
X164868585Y-125844802D01*
G37*
M02*
