G04 #@! TF.GenerationSoftware,KiCad,Pcbnew,5.1.5-52549c5~86~ubuntu18.04.1*
G04 #@! TF.CreationDate,2020-05-17T18:15:10-04:00*
G04 #@! TF.ProjectId,RX EQ Shield,52582045-5120-4536-9869-656c642e6b69,rev?*
G04 #@! TF.SameCoordinates,Original*
G04 #@! TF.FileFunction,Copper,L1,Top*
G04 #@! TF.FilePolarity,Positive*
%FSLAX46Y46*%
G04 Gerber Fmt 4.6, Leading zero omitted, Abs format (unit mm)*
G04 Created by KiCad (PCBNEW 5.1.5-52549c5~86~ubuntu18.04.1) date 2020-05-17 18:15:10*
%MOMM*%
%LPD*%
G04 APERTURE LIST*
%ADD10C,2.000000*%
%ADD11R,1.143000X0.508000*%
%ADD12C,1.800000*%
%ADD13C,3.000000*%
%ADD14R,1.500000X1.300000*%
%ADD15R,1.300000X1.500000*%
%ADD16R,1.250000X1.500000*%
%ADD17R,1.700000X1.700000*%
%ADD18O,1.700000X1.700000*%
%ADD19R,1.500000X1.250000*%
%ADD20C,0.800000*%
%ADD21C,0.250000*%
%ADD22C,0.762000*%
%ADD23C,0.508000*%
%ADD24C,0.254000*%
G04 APERTURE END LIST*
D10*
X118745000Y-142875000D03*
X104394000Y-141986000D03*
D11*
X152273000Y-146431000D03*
X152273000Y-147701000D03*
X152273000Y-148971000D03*
X152273000Y-150241000D03*
X145923000Y-150241000D03*
X145923000Y-148971000D03*
X145923000Y-147701000D03*
X145923000Y-146431000D03*
X160528000Y-136271000D03*
X160528000Y-137541000D03*
X160528000Y-138811000D03*
X160528000Y-140081000D03*
X154178000Y-140081000D03*
X154178000Y-138811000D03*
X154178000Y-137541000D03*
X154178000Y-136271000D03*
X137287000Y-136271000D03*
X137287000Y-137541000D03*
X137287000Y-138811000D03*
X137287000Y-140081000D03*
X130937000Y-140081000D03*
X130937000Y-138811000D03*
X130937000Y-137541000D03*
X130937000Y-136271000D03*
X115697000Y-149098000D03*
X115697000Y-150368000D03*
X115697000Y-151638000D03*
X115697000Y-152908000D03*
X109347000Y-152908000D03*
X109347000Y-151638000D03*
X109347000Y-150368000D03*
X109347000Y-149098000D03*
X114173000Y-136271000D03*
X114173000Y-137541000D03*
X114173000Y-138811000D03*
X114173000Y-140081000D03*
X107823000Y-140081000D03*
X107823000Y-138811000D03*
X107823000Y-137541000D03*
X107823000Y-136271000D03*
D12*
X157266000Y-155194000D03*
X159766000Y-155194000D03*
X162266000Y-155194000D03*
D13*
X154966000Y-148194000D03*
X164566000Y-148194000D03*
D12*
X157266000Y-134366000D03*
X159766000Y-134366000D03*
X162266000Y-134366000D03*
D13*
X154966000Y-127366000D03*
X164566000Y-127366000D03*
D12*
X134025000Y-134366000D03*
X136525000Y-134366000D03*
X139025000Y-134366000D03*
D13*
X131725000Y-127366000D03*
X141325000Y-127366000D03*
D12*
X110911000Y-134366000D03*
X113411000Y-134366000D03*
X115911000Y-134366000D03*
D13*
X108611000Y-127366000D03*
X118211000Y-127366000D03*
D14*
X140622000Y-144780000D03*
X137922000Y-144780000D03*
X165481000Y-138430000D03*
X162781000Y-138430000D03*
X142240000Y-138430000D03*
X139540000Y-138430000D03*
D15*
X121285000Y-149860000D03*
X121285000Y-147160000D03*
X125095000Y-147160000D03*
X125095000Y-149860000D03*
D14*
X111092000Y-154686000D03*
X113792000Y-154686000D03*
X119126000Y-138430000D03*
X116426000Y-138430000D03*
X146954000Y-155194000D03*
X149654000Y-155194000D03*
X146954000Y-153346000D03*
X149654000Y-153346000D03*
D16*
X167513000Y-134072000D03*
X167513000Y-131572000D03*
X167513000Y-129500000D03*
X167513000Y-127000000D03*
X167513000Y-124928000D03*
X167513000Y-122428000D03*
X152273000Y-134072000D03*
X152273000Y-131572000D03*
X152273000Y-129500000D03*
X152273000Y-127000000D03*
X152273000Y-124928000D03*
X152273000Y-122428000D03*
X144272000Y-134072000D03*
X144272000Y-131572000D03*
X144272000Y-129500000D03*
X144272000Y-127000000D03*
X144272000Y-124928000D03*
X144272000Y-122428000D03*
X129032000Y-134072000D03*
X129032000Y-131572000D03*
X129032000Y-129500000D03*
X129032000Y-127000000D03*
X129032000Y-124928000D03*
X129032000Y-122428000D03*
X121158000Y-134072000D03*
X121158000Y-131572000D03*
X121158000Y-129500000D03*
X121158000Y-127000000D03*
X121158000Y-124928000D03*
X121158000Y-122428000D03*
X105918000Y-134072000D03*
X105918000Y-131572000D03*
X105918000Y-129500000D03*
X105918000Y-127000000D03*
X105918000Y-124928000D03*
X105918000Y-122428000D03*
D17*
X139700000Y-150495000D03*
D18*
X139700000Y-153035000D03*
X137160000Y-150495000D03*
X137160000Y-153035000D03*
X134620000Y-150495000D03*
X134620000Y-153035000D03*
X132080000Y-150495000D03*
X132080000Y-153035000D03*
D15*
X118364000Y-152400000D03*
X118364000Y-149700000D03*
X126873000Y-155528000D03*
X126873000Y-152828000D03*
D19*
X145288000Y-144780000D03*
X142788000Y-144780000D03*
X150368000Y-144780000D03*
X147868000Y-144780000D03*
D16*
X151130000Y-141585000D03*
X151130000Y-139085000D03*
D19*
X135469000Y-142240000D03*
X132969000Y-142240000D03*
X113772000Y-147193000D03*
X111272000Y-147193000D03*
D16*
X125857000Y-137815000D03*
X125857000Y-140315000D03*
X123190000Y-149860000D03*
X123190000Y-147360000D03*
X123952000Y-140315000D03*
X123952000Y-137815000D03*
X126873000Y-147360000D03*
X126873000Y-149860000D03*
X124333000Y-152948000D03*
X124333000Y-155448000D03*
D19*
X112355000Y-142240000D03*
X109855000Y-142240000D03*
X132040000Y-147574000D03*
X129540000Y-147574000D03*
X134152000Y-147574000D03*
X136652000Y-147574000D03*
D16*
X169545000Y-134072000D03*
X169545000Y-131572000D03*
X169545000Y-124968000D03*
X169545000Y-122468000D03*
X169545000Y-127040000D03*
X169545000Y-129540000D03*
X150241000Y-134112000D03*
X150241000Y-131612000D03*
X150241000Y-124928000D03*
X150241000Y-122428000D03*
X150241000Y-127000000D03*
X150241000Y-129500000D03*
X146304000Y-134072000D03*
X146304000Y-131572000D03*
X146304000Y-124968000D03*
X146304000Y-122468000D03*
X146304000Y-127040000D03*
X146304000Y-129540000D03*
X127000000Y-134112000D03*
X127000000Y-131612000D03*
X127000000Y-124928000D03*
X127000000Y-122428000D03*
X127000000Y-127000000D03*
X127000000Y-129500000D03*
X123190000Y-134072000D03*
X123190000Y-131572000D03*
X123190000Y-124968000D03*
X123190000Y-122468000D03*
X123190000Y-127040000D03*
X123190000Y-129540000D03*
X103886000Y-134112000D03*
X103886000Y-131612000D03*
X103886000Y-124928000D03*
X103886000Y-122428000D03*
X103886000Y-127000000D03*
X103886000Y-129500000D03*
D20*
X124460000Y-131572000D03*
X125730000Y-131572000D03*
X127508000Y-136906000D03*
X122936000Y-136144000D03*
X123952000Y-136144000D03*
X125222000Y-136144000D03*
X126492000Y-136144000D03*
X104593930Y-122132079D03*
X169799000Y-122078009D03*
X170180000Y-132080000D03*
X149225000Y-122555000D03*
X147320000Y-122555000D03*
X147320000Y-131445000D03*
X149225000Y-131445000D03*
X144780000Y-136525000D03*
X143510000Y-147320000D03*
X144145000Y-140970000D03*
X124460000Y-122428000D03*
X125730000Y-122428000D03*
X104648000Y-132588000D03*
X118110000Y-146685000D03*
X115570000Y-147320000D03*
X161290000Y-148590000D03*
X168910000Y-140970000D03*
X168910000Y-143510000D03*
X168910000Y-146050000D03*
X168910000Y-148590000D03*
X168910000Y-151130000D03*
X104140000Y-151130000D03*
X104140000Y-148590000D03*
X104140000Y-146050000D03*
X132080000Y-156210000D03*
X134620000Y-156210000D03*
X137160000Y-156210000D03*
X139700000Y-156210000D03*
X142240000Y-156210000D03*
X107950000Y-140970000D03*
X147320000Y-150495000D03*
X148849213Y-144475833D03*
X149860000Y-139700000D03*
X152400000Y-139700000D03*
X122555000Y-145415000D03*
X121285000Y-145415000D03*
X126365000Y-141605000D03*
X128905000Y-149088000D03*
X131445000Y-142240000D03*
X111760000Y-144780000D03*
X111760000Y-149860000D03*
X114300000Y-149860000D03*
X110490000Y-139700000D03*
X125730000Y-143510000D03*
X128270000Y-143510000D03*
X139700000Y-147320000D03*
X142240000Y-147320000D03*
X142240000Y-149860000D03*
X142240000Y-152400000D03*
X144780000Y-152400000D03*
X148590000Y-149860000D03*
X165100000Y-143510000D03*
X165100000Y-153670000D03*
X165100000Y-151130000D03*
X161290000Y-146050000D03*
X161290000Y-151130000D03*
X106680000Y-146050000D03*
X106680000Y-151130000D03*
X106680000Y-148590000D03*
X133350000Y-139700000D03*
X129540000Y-139700000D03*
X147320000Y-139700000D03*
X152273000Y-151731000D03*
X147320000Y-146685000D03*
X150495000Y-148590000D03*
X132715000Y-144780000D03*
X135890000Y-144780000D03*
X139065000Y-143510000D03*
X141605000Y-140970000D03*
X151766109Y-142934899D03*
X147955000Y-142875000D03*
D21*
X107823000Y-137541000D02*
X107823000Y-136271000D01*
X106803001Y-128424999D02*
X107823000Y-129444998D01*
X107823000Y-129444998D02*
X107823000Y-136271000D01*
X104310999Y-128424999D02*
X106803001Y-128424999D01*
X103886000Y-128000000D02*
X104310999Y-128424999D01*
X103886000Y-127000000D02*
X103886000Y-128000000D01*
X120283000Y-122428000D02*
X121158000Y-122428000D01*
X113266002Y-129444998D02*
X120283000Y-122428000D01*
X107823000Y-129444998D02*
X113266002Y-129444998D01*
X103886000Y-129500000D02*
X105918000Y-129500000D01*
X105918000Y-129500000D02*
X105918000Y-131572000D01*
X103886000Y-124928000D02*
X105918000Y-124928000D01*
X105918000Y-127000000D02*
X105918000Y-124928000D01*
X123190000Y-131572000D02*
X124460000Y-131572000D01*
X127000000Y-131612000D02*
X125770000Y-131612000D01*
X125770000Y-131612000D02*
X125730000Y-131572000D01*
X125857000Y-137815000D02*
X123952000Y-137815000D01*
X125857000Y-137815000D02*
X126599000Y-137815000D01*
X126599000Y-137815000D02*
X127508000Y-136906000D01*
X123952000Y-137815000D02*
X123083000Y-137815000D01*
X123083000Y-137815000D02*
X122174000Y-136906000D01*
D22*
X122174000Y-136906000D02*
X122936000Y-136144000D01*
X122936000Y-136144000D02*
X123952000Y-136144000D01*
X123952000Y-136144000D02*
X125222000Y-136144000D01*
X125222000Y-136144000D02*
X126492000Y-136144000D01*
X127254000Y-136906000D02*
X126492000Y-136144000D01*
X127508000Y-136906000D02*
X127254000Y-136906000D01*
D21*
X104028245Y-122132079D02*
X104593930Y-122132079D01*
X103886000Y-122274324D02*
X104028245Y-122132079D01*
X103886000Y-122428000D02*
X103886000Y-122274324D01*
X103886000Y-131612000D02*
X104013010Y-131484990D01*
X104013010Y-131484990D02*
X104013010Y-131250005D01*
X126828606Y-122256606D02*
X126828606Y-122078009D01*
X127000000Y-122428000D02*
X126828606Y-122256606D01*
X169799000Y-122450695D02*
X169799000Y-122078009D01*
X169545000Y-122468000D02*
X169781695Y-122468000D01*
X169781695Y-122468000D02*
X169799000Y-122450695D01*
X169545000Y-131572000D02*
X169672000Y-131572000D01*
X169672000Y-131572000D02*
X170180000Y-132080000D01*
D23*
X114617500Y-151638000D02*
X115697000Y-151638000D01*
X113792000Y-152463500D02*
X114617500Y-151638000D01*
X113792000Y-154686000D02*
X113792000Y-152463500D01*
X115697000Y-151638000D02*
X115697000Y-150368000D01*
X117745001Y-143874999D02*
X118745000Y-142875000D01*
X116069702Y-150368000D02*
X116722501Y-149715201D01*
X116722501Y-144897499D02*
X117745001Y-143874999D01*
X116722501Y-149715201D02*
X116722501Y-144897499D01*
X115697000Y-150368000D02*
X116069702Y-150368000D01*
X150241000Y-122428000D02*
X149352000Y-122428000D01*
X149352000Y-122428000D02*
X149225000Y-122555000D01*
X146304000Y-122468000D02*
X147233000Y-122468000D01*
X147233000Y-122468000D02*
X147320000Y-122555000D01*
X146304000Y-131572000D02*
X147193000Y-131572000D01*
X147193000Y-131572000D02*
X147320000Y-131445000D01*
X150241000Y-131612000D02*
X149392000Y-131612000D01*
X149392000Y-131612000D02*
X149225000Y-131445000D01*
D24*
X145097500Y-148971000D02*
X143510000Y-147383500D01*
X144145000Y-140970000D02*
X144780000Y-140335000D01*
X145923000Y-148971000D02*
X145097500Y-148971000D01*
X143510000Y-147383500D02*
X143510000Y-147320000D01*
X144780000Y-140335000D02*
X144780000Y-136525000D01*
D21*
X123190000Y-122468000D02*
X124420000Y-122468000D01*
X124420000Y-122468000D02*
X124460000Y-122428000D01*
X127000000Y-122428000D02*
X125730000Y-122428000D01*
D24*
X103886000Y-131612000D02*
X103886000Y-131826000D01*
X103886000Y-131826000D02*
X104648000Y-132588000D01*
D21*
X105878000Y-134112000D02*
X105918000Y-134072000D01*
X103886000Y-134112000D02*
X105878000Y-134112000D01*
X107001500Y-138811000D02*
X107823000Y-138811000D01*
X105918000Y-137727500D02*
X107001500Y-138811000D01*
X105918000Y-134072000D02*
X105918000Y-137727500D01*
X114173000Y-138811000D02*
X114173000Y-137541000D01*
X120272999Y-128424999D02*
X122805001Y-128424999D01*
X123190000Y-128040000D02*
X123190000Y-127040000D01*
X122805001Y-128424999D02*
X123190000Y-128040000D01*
X115556999Y-133140999D02*
X120272999Y-128424999D01*
X114636001Y-133140999D02*
X115556999Y-133140999D01*
X113411000Y-134366000D02*
X114636001Y-133140999D01*
X114310999Y-135265999D02*
X113411000Y-134366000D01*
X115069501Y-137465999D02*
X115069501Y-135756999D01*
X114578501Y-135265999D02*
X114310999Y-135265999D01*
X115069501Y-135756999D02*
X114578501Y-135265999D01*
X114994500Y-137541000D02*
X115069501Y-137465999D01*
X114173000Y-137541000D02*
X114994500Y-137541000D01*
X123150000Y-129500000D02*
X123190000Y-129540000D01*
X121158000Y-129500000D02*
X123150000Y-129500000D01*
X121158000Y-129500000D02*
X121158000Y-131572000D01*
X121198000Y-124968000D02*
X121158000Y-124928000D01*
X123190000Y-124968000D02*
X121198000Y-124968000D01*
X121158000Y-124928000D02*
X121158000Y-127000000D01*
X121158000Y-134072000D02*
X123190000Y-134072000D01*
X114173000Y-140081000D02*
X117094000Y-140081000D01*
X120283000Y-134072000D02*
X121158000Y-134072000D01*
X118050999Y-136304001D02*
X120283000Y-134072000D01*
X118050999Y-139124001D02*
X118050999Y-136304001D01*
X117094000Y-140081000D02*
X118050999Y-139124001D01*
X130937000Y-137541000D02*
X130937000Y-136271000D01*
X129917001Y-128424999D02*
X130937000Y-129444998D01*
X130937000Y-129444998D02*
X130937000Y-136271000D01*
X127424999Y-128424999D02*
X129917001Y-128424999D01*
X127000000Y-128000000D02*
X127424999Y-128424999D01*
X127000000Y-127000000D02*
X127000000Y-128000000D01*
X143397000Y-122428000D02*
X144272000Y-122428000D01*
X136380002Y-129444998D02*
X143397000Y-122428000D01*
X130937000Y-129444998D02*
X136380002Y-129444998D01*
X127000000Y-129500000D02*
X129032000Y-129500000D01*
X129032000Y-129500000D02*
X129032000Y-131572000D01*
X127000000Y-124928000D02*
X129032000Y-124928000D01*
X129032000Y-127000000D02*
X129032000Y-124928000D01*
X128992000Y-134112000D02*
X129032000Y-134072000D01*
X127000000Y-134112000D02*
X128992000Y-134112000D01*
X130115500Y-138811000D02*
X130937000Y-138811000D01*
X129032000Y-137727500D02*
X130115500Y-138811000D01*
X129032000Y-134072000D02*
X129032000Y-137727500D01*
X137287000Y-138811000D02*
X137287000Y-137541000D01*
X143386999Y-128424999D02*
X145919001Y-128424999D01*
X146304000Y-128040000D02*
X146304000Y-127040000D01*
X145919001Y-128424999D02*
X146304000Y-128040000D01*
X138670999Y-133140999D02*
X143386999Y-128424999D01*
X137750001Y-133140999D02*
X138670999Y-133140999D01*
X136525000Y-134366000D02*
X137750001Y-133140999D01*
X137424999Y-135265999D02*
X136525000Y-134366000D01*
X138183501Y-137465999D02*
X138183501Y-135756999D01*
X137692501Y-135265999D02*
X137424999Y-135265999D01*
X138183501Y-135756999D02*
X137692501Y-135265999D01*
X138108500Y-137541000D02*
X138183501Y-137465999D01*
X137287000Y-137541000D02*
X138108500Y-137541000D01*
X146264000Y-129500000D02*
X146304000Y-129540000D01*
X144272000Y-129500000D02*
X146264000Y-129500000D01*
X144272000Y-129500000D02*
X144272000Y-131572000D01*
X144312000Y-124968000D02*
X144272000Y-124928000D01*
X146304000Y-124968000D02*
X144312000Y-124968000D01*
X144272000Y-124928000D02*
X144272000Y-127000000D01*
X144272000Y-134072000D02*
X146304000Y-134072000D01*
X139874002Y-140081000D02*
X140970000Y-138985002D01*
X137287000Y-140081000D02*
X139874002Y-140081000D01*
X140970000Y-136499000D02*
X143397000Y-134072000D01*
X143397000Y-134072000D02*
X144272000Y-134072000D01*
X140970000Y-138985002D02*
X140970000Y-136499000D01*
X154178000Y-137541000D02*
X154178000Y-136271000D01*
X153158001Y-128424999D02*
X154178000Y-129444998D01*
X154178000Y-129444998D02*
X154178000Y-136271000D01*
X150665999Y-128424999D02*
X153158001Y-128424999D01*
X150241000Y-128000000D02*
X150665999Y-128424999D01*
X150241000Y-127000000D02*
X150241000Y-128000000D01*
X166638000Y-122428000D02*
X167513000Y-122428000D01*
X159621002Y-129444998D02*
X166638000Y-122428000D01*
X154178000Y-129444998D02*
X159621002Y-129444998D01*
X150241000Y-129500000D02*
X152273000Y-129500000D01*
X152273000Y-129500000D02*
X152273000Y-131572000D01*
X150241000Y-124928000D02*
X152273000Y-124928000D01*
X152273000Y-127000000D02*
X152273000Y-124928000D01*
X152233000Y-134112000D02*
X152273000Y-134072000D01*
X150241000Y-134112000D02*
X152233000Y-134112000D01*
X153356500Y-138811000D02*
X154178000Y-138811000D01*
X152273000Y-137727500D02*
X153356500Y-138811000D01*
X152273000Y-134072000D02*
X152273000Y-137727500D01*
X160528000Y-138811000D02*
X160528000Y-137541000D01*
X166627999Y-128424999D02*
X169160001Y-128424999D01*
X169545000Y-128040000D02*
X169545000Y-127040000D01*
X169160001Y-128424999D02*
X169545000Y-128040000D01*
X161911999Y-133140999D02*
X166627999Y-128424999D01*
X160991001Y-133140999D02*
X161911999Y-133140999D01*
X159766000Y-134366000D02*
X160991001Y-133140999D01*
X160528000Y-137541000D02*
X161349500Y-137541000D01*
X160665999Y-135265999D02*
X159766000Y-134366000D01*
X161424501Y-135756999D02*
X160933501Y-135265999D01*
X161424501Y-137465999D02*
X161424501Y-135756999D01*
X161349500Y-137541000D02*
X161424501Y-137465999D01*
X160933501Y-135265999D02*
X160665999Y-135265999D01*
X169505000Y-129500000D02*
X169545000Y-129540000D01*
X167513000Y-129500000D02*
X169505000Y-129500000D01*
X167513000Y-129500000D02*
X167513000Y-131572000D01*
X167553000Y-124968000D02*
X167513000Y-124928000D01*
X169545000Y-124968000D02*
X167553000Y-124968000D01*
X167513000Y-124928000D02*
X167513000Y-127000000D01*
X167513000Y-134072000D02*
X169545000Y-134072000D01*
X160528000Y-140081000D02*
X163449000Y-140081000D01*
X163856001Y-139673999D02*
X163856001Y-136853999D01*
X166638000Y-134072000D02*
X167513000Y-134072000D01*
X163856001Y-136853999D02*
X166638000Y-134072000D01*
X163449000Y-140081000D02*
X163856001Y-139673999D01*
D23*
X132080000Y-147614000D02*
X132040000Y-147574000D01*
X132080000Y-150495000D02*
X132080000Y-147614000D01*
X132040000Y-147574000D02*
X134152000Y-147574000D01*
X126873000Y-147235000D02*
X126873000Y-147360000D01*
X128006000Y-146102000D02*
X126873000Y-147235000D01*
X131915000Y-147574000D02*
X130443000Y-146102000D01*
X130443000Y-146102000D02*
X128006000Y-146102000D01*
X132040000Y-147574000D02*
X131915000Y-147574000D01*
X125295000Y-147360000D02*
X125095000Y-147160000D01*
X126873000Y-147360000D02*
X125295000Y-147360000D01*
X136207500Y-136271000D02*
X137287000Y-136271000D01*
X113093500Y-136271000D02*
X114173000Y-136271000D01*
X112355000Y-137009500D02*
X113093500Y-136271000D01*
X112355000Y-142240000D02*
X112355000Y-137009500D01*
X135469000Y-137009500D02*
X136207500Y-136271000D01*
X135469000Y-142240000D02*
X135469000Y-137009500D01*
X135344000Y-142240000D02*
X135469000Y-142240000D01*
X134152000Y-143432000D02*
X135344000Y-142240000D01*
X134152000Y-147574000D02*
X134152000Y-143432000D01*
X160210500Y-136271000D02*
X160528000Y-136271000D01*
X154896500Y-141585000D02*
X160210500Y-136271000D01*
X151130000Y-141585000D02*
X154896500Y-141585000D01*
X150368000Y-142347000D02*
X151130000Y-141585000D01*
X150368000Y-144780000D02*
X150368000Y-142347000D01*
X147326078Y-142240000D02*
X147981078Y-141585000D01*
X147981078Y-141585000D02*
X149997000Y-141585000D01*
X149997000Y-141585000D02*
X151130000Y-141585000D01*
X135469000Y-142240000D02*
X147326078Y-142240000D01*
X123952000Y-141573000D02*
X123952000Y-140315000D01*
X123952000Y-144759000D02*
X123952000Y-141573000D01*
X125095000Y-145902000D02*
X123952000Y-144759000D01*
X125095000Y-147160000D02*
X125095000Y-145902000D01*
X113772000Y-142399000D02*
X113772000Y-146060000D01*
X113613000Y-142240000D02*
X113772000Y-142399000D01*
X113772000Y-146060000D02*
X113772000Y-147193000D01*
X112355000Y-142240000D02*
X113613000Y-142240000D01*
X113792000Y-147193000D02*
X115697000Y-149098000D01*
X113772000Y-147193000D02*
X113792000Y-147193000D01*
X120234001Y-144560999D02*
X118110000Y-146685000D01*
X122964921Y-144560999D02*
X120234001Y-144560999D01*
X123952000Y-144759000D02*
X123162922Y-144759000D01*
X123162922Y-144759000D02*
X122964921Y-144560999D01*
X115570000Y-148971000D02*
X115697000Y-149098000D01*
X115570000Y-147320000D02*
X115570000Y-148971000D01*
X113899000Y-147320000D02*
X113772000Y-147193000D01*
X115570000Y-147320000D02*
X113899000Y-147320000D01*
X150622000Y-144780000D02*
X152273000Y-146431000D01*
X150368000Y-144780000D02*
X150622000Y-144780000D01*
D21*
X130937000Y-140081000D02*
X131064000Y-140208000D01*
D22*
X107823000Y-140081000D02*
X107823000Y-140843000D01*
X107823000Y-140843000D02*
X107950000Y-140970000D01*
D24*
X145923000Y-150241000D02*
X147066000Y-150241000D01*
X147066000Y-150241000D02*
X147320000Y-150495000D01*
D23*
X109220000Y-142240000D02*
X107950000Y-140970000D01*
X109855000Y-142240000D02*
X109220000Y-142240000D01*
D24*
X147868000Y-144780000D02*
X148172167Y-144475833D01*
X148283528Y-144475833D02*
X148849213Y-144475833D01*
X148172167Y-144475833D02*
X148283528Y-144475833D01*
D21*
X151130000Y-139085000D02*
X150475000Y-139085000D01*
X150475000Y-139085000D02*
X149860000Y-139700000D01*
X154178000Y-140081000D02*
X152781000Y-140081000D01*
X152781000Y-140081000D02*
X152400000Y-139700000D01*
X151785000Y-139085000D02*
X152400000Y-139700000D01*
X151130000Y-139085000D02*
X151785000Y-139085000D01*
D23*
X125857000Y-140315000D02*
X125857000Y-141097000D01*
X125857000Y-141097000D02*
X126365000Y-141605000D01*
D24*
X123190000Y-146050000D02*
X122555000Y-145415000D01*
X123190000Y-147360000D02*
X123190000Y-146050000D01*
X129540000Y-148453000D02*
X128905000Y-149088000D01*
X129540000Y-147574000D02*
X129540000Y-148453000D01*
X132969000Y-142240000D02*
X131445000Y-142240000D01*
X130937000Y-140081000D02*
X130937000Y-140843000D01*
X130937000Y-140843000D02*
X130810000Y-140970000D01*
X123454000Y-152948000D02*
X120738999Y-155663001D01*
X111092000Y-155590000D02*
X111092000Y-154686000D01*
X111165001Y-155663001D02*
X111092000Y-155590000D01*
X120738999Y-155663001D02*
X111165001Y-155663001D01*
X124333000Y-152948000D02*
X123454000Y-152948000D01*
X110172500Y-151638000D02*
X109347000Y-151638000D01*
X111092000Y-152557500D02*
X110172500Y-151638000D01*
X111092000Y-154686000D02*
X111092000Y-152557500D01*
X124413000Y-155528000D02*
X124333000Y-155448000D01*
X126873000Y-155528000D02*
X124413000Y-155528000D01*
X126873000Y-149860000D02*
X125095000Y-149860000D01*
X125095000Y-149860000D02*
X123190000Y-149860000D01*
X123190000Y-149860000D02*
X121285000Y-149860000D01*
X118524000Y-149860000D02*
X118364000Y-149700000D01*
X121285000Y-149860000D02*
X118524000Y-149860000D01*
X152273000Y-151731000D02*
X152273000Y-150241000D01*
X150658000Y-153346000D02*
X152273000Y-151731000D01*
X149654000Y-153346000D02*
X150658000Y-153346000D01*
X145288000Y-145796000D02*
X145923000Y-146431000D01*
X145288000Y-144780000D02*
X145288000Y-145796000D01*
X146177000Y-146685000D02*
X145923000Y-146431000D01*
X147320000Y-146685000D02*
X146177000Y-146685000D01*
X140622000Y-144780000D02*
X142788000Y-144780000D01*
D21*
X145923000Y-147701000D02*
X149606000Y-147701000D01*
X149606000Y-147701000D02*
X150495000Y-148590000D01*
D24*
X142913000Y-144780000D02*
X145834000Y-147701000D01*
X145834000Y-147701000D02*
X145923000Y-147701000D01*
X142788000Y-144780000D02*
X142913000Y-144780000D01*
X126873000Y-151824000D02*
X126873000Y-152828000D01*
X127024999Y-151672001D02*
X126873000Y-151824000D01*
X135982999Y-151672001D02*
X127024999Y-151672001D01*
X137160000Y-150495000D02*
X135982999Y-151672001D01*
D22*
X117856000Y-152908000D02*
X115697000Y-152908000D01*
X118364000Y-152400000D02*
X117856000Y-152908000D01*
D24*
X139700000Y-153035000D02*
X139700000Y-150495000D01*
X138337001Y-154212001D02*
X137160000Y-153035000D01*
X145083999Y-154212001D02*
X138337001Y-154212001D01*
X145950000Y-153346000D02*
X145083999Y-154212001D01*
X146954000Y-153346000D02*
X145950000Y-153346000D01*
X136779000Y-155194000D02*
X134620000Y-153035000D01*
X146954000Y-155194000D02*
X136779000Y-155194000D01*
X109347000Y-150368000D02*
X109347000Y-149098000D01*
X109347000Y-149098000D02*
X109347000Y-144653000D01*
X105844999Y-121350999D02*
X105918000Y-121424000D01*
X102999399Y-121350999D02*
X105844999Y-121350999D01*
X102886001Y-138192001D02*
X102886001Y-121464397D01*
X106426000Y-141732000D02*
X102886001Y-138192001D01*
X102886001Y-121464397D02*
X102999399Y-121350999D01*
X106062213Y-141732000D02*
X106426000Y-141732000D01*
X104394000Y-141986000D02*
X105808213Y-141986000D01*
X109347000Y-144653000D02*
X106426000Y-141732000D01*
X105808213Y-141986000D02*
X106062213Y-141732000D01*
X128958999Y-121350999D02*
X129032000Y-121424000D01*
X105991001Y-121350999D02*
X128958999Y-121350999D01*
X105918000Y-121424000D02*
X105991001Y-121350999D01*
X105918000Y-122428000D02*
X105918000Y-121424000D01*
X129032000Y-121424000D02*
X129032000Y-122428000D01*
X152273000Y-121424000D02*
X152273000Y-122428000D01*
X129911000Y-122428000D02*
X130988001Y-121350999D01*
X152199999Y-121350999D02*
X152273000Y-121424000D01*
X130988001Y-121350999D02*
X152199999Y-121350999D01*
X129032000Y-122428000D02*
X129911000Y-122428000D01*
X152273000Y-121424000D02*
X152346001Y-121350999D01*
X129032000Y-121424000D02*
X129105001Y-121350999D01*
X153098500Y-148971000D02*
X152273000Y-148971000D01*
X153171501Y-149044001D02*
X153098500Y-148971000D01*
X153171501Y-152680499D02*
X153171501Y-149044001D01*
X150658000Y-155194000D02*
X153171501Y-152680499D01*
X149654000Y-155194000D02*
X150658000Y-155194000D01*
X152273000Y-148971000D02*
X152273000Y-147701000D01*
D21*
X120126000Y-138430000D02*
X120761000Y-139065000D01*
X119126000Y-138430000D02*
X120126000Y-138430000D01*
X126567002Y-139065000D02*
X132282002Y-144780000D01*
X120761000Y-139065000D02*
X126567002Y-139065000D01*
X132282002Y-144780000D02*
X132715000Y-144780000D01*
X135890000Y-144780000D02*
X137922000Y-144780000D01*
X137922000Y-144780000D02*
X137922000Y-144653000D01*
X137922000Y-144653000D02*
X139065000Y-143510000D01*
X142240000Y-140335000D02*
X142240000Y-138430000D01*
X141605000Y-140970000D02*
X142240000Y-140335000D01*
X161876101Y-142934899D02*
X151766109Y-142934899D01*
X165481000Y-138430000D02*
X165481000Y-139330000D01*
X165481000Y-139330000D02*
X161876101Y-142934899D01*
X147320000Y-143510000D02*
X139065000Y-143510000D01*
X147955000Y-142875000D02*
X147320000Y-143510000D01*
X116426000Y-134881000D02*
X115911000Y-134366000D01*
X116426000Y-138430000D02*
X116426000Y-134881000D01*
X139540000Y-134881000D02*
X139025000Y-134366000D01*
X139540000Y-138430000D02*
X139540000Y-134881000D01*
X162781000Y-134881000D02*
X162266000Y-134366000D01*
X162781000Y-138430000D02*
X162781000Y-134881000D01*
D24*
G36*
X170790001Y-154907711D02*
G01*
X170751091Y-155304545D01*
X170645220Y-155655206D01*
X170473257Y-155978623D01*
X170241748Y-156262482D01*
X169959514Y-156495965D01*
X169637304Y-156670184D01*
X169287385Y-156778502D01*
X168892557Y-156820000D01*
X127856049Y-156820000D01*
X127877494Y-156808537D01*
X127974185Y-156729185D01*
X128053537Y-156632494D01*
X128112502Y-156522180D01*
X128148812Y-156402482D01*
X128161072Y-156278000D01*
X128161072Y-154778000D01*
X128148812Y-154653518D01*
X128112502Y-154533820D01*
X128053537Y-154423506D01*
X127974185Y-154326815D01*
X127877494Y-154247463D01*
X127767180Y-154188498D01*
X127732573Y-154178000D01*
X127767180Y-154167502D01*
X127877494Y-154108537D01*
X127974185Y-154029185D01*
X128053537Y-153932494D01*
X128112502Y-153822180D01*
X128148812Y-153702482D01*
X128161072Y-153578000D01*
X128161072Y-153391891D01*
X130638519Y-153391891D01*
X130735843Y-153666252D01*
X130884822Y-153916355D01*
X131079731Y-154132588D01*
X131313080Y-154306641D01*
X131575901Y-154431825D01*
X131723110Y-154476476D01*
X131953000Y-154355155D01*
X131953000Y-153162000D01*
X130759186Y-153162000D01*
X130638519Y-153391891D01*
X128161072Y-153391891D01*
X128161072Y-152434001D01*
X130725111Y-152434001D01*
X130638519Y-152678109D01*
X130759186Y-152908000D01*
X131953000Y-152908000D01*
X131953000Y-152888000D01*
X132207000Y-152888000D01*
X132207000Y-152908000D01*
X132227000Y-152908000D01*
X132227000Y-153162000D01*
X132207000Y-153162000D01*
X132207000Y-154355155D01*
X132436890Y-154476476D01*
X132584099Y-154431825D01*
X132846920Y-154306641D01*
X133080269Y-154132588D01*
X133275178Y-153916355D01*
X133344805Y-153799466D01*
X133466525Y-153981632D01*
X133673368Y-154188475D01*
X133916589Y-154350990D01*
X134186842Y-154462932D01*
X134473740Y-154520000D01*
X134766260Y-154520000D01*
X134984048Y-154476679D01*
X136213721Y-155706352D01*
X136237578Y-155735422D01*
X136353608Y-155830645D01*
X136485985Y-155901402D01*
X136629622Y-155944974D01*
X136741574Y-155956000D01*
X136741576Y-155956000D01*
X136778999Y-155959686D01*
X136816422Y-155956000D01*
X145576959Y-155956000D01*
X145578188Y-155968482D01*
X145614498Y-156088180D01*
X145673463Y-156198494D01*
X145752815Y-156295185D01*
X145849506Y-156374537D01*
X145959820Y-156433502D01*
X146079518Y-156469812D01*
X146204000Y-156482072D01*
X147704000Y-156482072D01*
X147828482Y-156469812D01*
X147948180Y-156433502D01*
X148058494Y-156374537D01*
X148155185Y-156295185D01*
X148234537Y-156198494D01*
X148293502Y-156088180D01*
X148304000Y-156053573D01*
X148314498Y-156088180D01*
X148373463Y-156198494D01*
X148452815Y-156295185D01*
X148549506Y-156374537D01*
X148659820Y-156433502D01*
X148779518Y-156469812D01*
X148904000Y-156482072D01*
X150404000Y-156482072D01*
X150528482Y-156469812D01*
X150648180Y-156433502D01*
X150758494Y-156374537D01*
X150855185Y-156295185D01*
X150934537Y-156198494D01*
X150993502Y-156088180D01*
X151029812Y-155968482D01*
X151041164Y-155853216D01*
X151083392Y-155830645D01*
X151199422Y-155735422D01*
X151223284Y-155706346D01*
X151886814Y-155042816D01*
X155731000Y-155042816D01*
X155731000Y-155345184D01*
X155789989Y-155641743D01*
X155905701Y-155921095D01*
X156073688Y-156172505D01*
X156287495Y-156386312D01*
X156538905Y-156554299D01*
X156818257Y-156670011D01*
X157114816Y-156729000D01*
X157417184Y-156729000D01*
X157713743Y-156670011D01*
X157993095Y-156554299D01*
X158244505Y-156386312D01*
X158458312Y-156172505D01*
X158516000Y-156086169D01*
X158573688Y-156172505D01*
X158787495Y-156386312D01*
X159038905Y-156554299D01*
X159318257Y-156670011D01*
X159614816Y-156729000D01*
X159917184Y-156729000D01*
X160213743Y-156670011D01*
X160493095Y-156554299D01*
X160744505Y-156386312D01*
X160958312Y-156172505D01*
X161016000Y-156086169D01*
X161073688Y-156172505D01*
X161287495Y-156386312D01*
X161538905Y-156554299D01*
X161818257Y-156670011D01*
X162114816Y-156729000D01*
X162417184Y-156729000D01*
X162713743Y-156670011D01*
X162993095Y-156554299D01*
X163244505Y-156386312D01*
X163458312Y-156172505D01*
X163626299Y-155921095D01*
X163742011Y-155641743D01*
X163801000Y-155345184D01*
X163801000Y-155042816D01*
X163742011Y-154746257D01*
X163626299Y-154466905D01*
X163472344Y-154236495D01*
X166417000Y-154236495D01*
X166417000Y-154627505D01*
X166493282Y-155011003D01*
X166642915Y-155372250D01*
X166860149Y-155697364D01*
X167136636Y-155973851D01*
X167461750Y-156191085D01*
X167822997Y-156340718D01*
X168206495Y-156417000D01*
X168597505Y-156417000D01*
X168981003Y-156340718D01*
X169342250Y-156191085D01*
X169667364Y-155973851D01*
X169943851Y-155697364D01*
X170161085Y-155372250D01*
X170310718Y-155011003D01*
X170387000Y-154627505D01*
X170387000Y-154236495D01*
X170310718Y-153852997D01*
X170161085Y-153491750D01*
X169943851Y-153166636D01*
X169667364Y-152890149D01*
X169342250Y-152672915D01*
X168981003Y-152523282D01*
X168597505Y-152447000D01*
X168206495Y-152447000D01*
X167822997Y-152523282D01*
X167461750Y-152672915D01*
X167136636Y-152890149D01*
X166860149Y-153166636D01*
X166642915Y-153491750D01*
X166493282Y-153852997D01*
X166417000Y-154236495D01*
X163472344Y-154236495D01*
X163458312Y-154215495D01*
X163244505Y-154001688D01*
X162993095Y-153833701D01*
X162713743Y-153717989D01*
X162417184Y-153659000D01*
X162114816Y-153659000D01*
X161818257Y-153717989D01*
X161538905Y-153833701D01*
X161287495Y-154001688D01*
X161073688Y-154215495D01*
X161016000Y-154301831D01*
X160958312Y-154215495D01*
X160744505Y-154001688D01*
X160493095Y-153833701D01*
X160213743Y-153717989D01*
X159917184Y-153659000D01*
X159614816Y-153659000D01*
X159318257Y-153717989D01*
X159038905Y-153833701D01*
X158787495Y-154001688D01*
X158573688Y-154215495D01*
X158516000Y-154301831D01*
X158458312Y-154215495D01*
X158244505Y-154001688D01*
X157993095Y-153833701D01*
X157713743Y-153717989D01*
X157417184Y-153659000D01*
X157114816Y-153659000D01*
X156818257Y-153717989D01*
X156538905Y-153833701D01*
X156287495Y-154001688D01*
X156073688Y-154215495D01*
X155905701Y-154466905D01*
X155789989Y-154746257D01*
X155731000Y-155042816D01*
X151886814Y-155042816D01*
X153683854Y-153245777D01*
X153712923Y-153221921D01*
X153808146Y-153105891D01*
X153878903Y-152973514D01*
X153922475Y-152829877D01*
X153933501Y-152717925D01*
X153933501Y-152717923D01*
X153937187Y-152680500D01*
X153933501Y-152643077D01*
X153933501Y-150071849D01*
X153954698Y-150086012D01*
X154343244Y-150246953D01*
X154755721Y-150329000D01*
X155176279Y-150329000D01*
X155588756Y-150246953D01*
X155977302Y-150086012D01*
X156326983Y-149852363D01*
X156624363Y-149554983D01*
X156858012Y-149205302D01*
X157018953Y-148816756D01*
X157101000Y-148404279D01*
X157101000Y-147983721D01*
X162431000Y-147983721D01*
X162431000Y-148404279D01*
X162513047Y-148816756D01*
X162673988Y-149205302D01*
X162907637Y-149554983D01*
X163205017Y-149852363D01*
X163554698Y-150086012D01*
X163943244Y-150246953D01*
X164355721Y-150329000D01*
X164776279Y-150329000D01*
X165188756Y-150246953D01*
X165577302Y-150086012D01*
X165926983Y-149852363D01*
X166224363Y-149554983D01*
X166458012Y-149205302D01*
X166618953Y-148816756D01*
X166701000Y-148404279D01*
X166701000Y-147983721D01*
X166618953Y-147571244D01*
X166458012Y-147182698D01*
X166224363Y-146833017D01*
X165926983Y-146535637D01*
X165577302Y-146301988D01*
X165188756Y-146141047D01*
X164776279Y-146059000D01*
X164355721Y-146059000D01*
X163943244Y-146141047D01*
X163554698Y-146301988D01*
X163205017Y-146535637D01*
X162907637Y-146833017D01*
X162673988Y-147182698D01*
X162513047Y-147571244D01*
X162431000Y-147983721D01*
X157101000Y-147983721D01*
X157018953Y-147571244D01*
X156858012Y-147182698D01*
X156624363Y-146833017D01*
X156326983Y-146535637D01*
X155977302Y-146301988D01*
X155588756Y-146141047D01*
X155176279Y-146059000D01*
X154755721Y-146059000D01*
X154343244Y-146141047D01*
X153954698Y-146301988D01*
X153605017Y-146535637D01*
X153482572Y-146658082D01*
X153482572Y-146177000D01*
X153470312Y-146052518D01*
X153434002Y-145932820D01*
X153375037Y-145822506D01*
X153295685Y-145725815D01*
X153198994Y-145646463D01*
X153088680Y-145587498D01*
X152968982Y-145551188D01*
X152844500Y-145538928D01*
X152638164Y-145538928D01*
X151756072Y-144656837D01*
X151756072Y-144155000D01*
X151743812Y-144030518D01*
X151725423Y-143969899D01*
X151868048Y-143969899D01*
X152068007Y-143930125D01*
X152256365Y-143852104D01*
X152425883Y-143738836D01*
X152469820Y-143694899D01*
X161838779Y-143694899D01*
X161876101Y-143698575D01*
X161913423Y-143694899D01*
X161913434Y-143694899D01*
X162025087Y-143683902D01*
X162168348Y-143640445D01*
X162300377Y-143569873D01*
X162416102Y-143474900D01*
X162439905Y-143445896D01*
X165992003Y-139893799D01*
X166021001Y-139870001D01*
X166063095Y-139818709D01*
X166115974Y-139754277D01*
X166135326Y-139718072D01*
X166231000Y-139718072D01*
X166355482Y-139705812D01*
X166475180Y-139669502D01*
X166585494Y-139610537D01*
X166682185Y-139531185D01*
X166761537Y-139434494D01*
X166820502Y-139324180D01*
X166856812Y-139204482D01*
X166869072Y-139080000D01*
X166869072Y-138557000D01*
X170790001Y-138557000D01*
X170790001Y-154907711D01*
G37*
X170790001Y-154907711D02*
X170751091Y-155304545D01*
X170645220Y-155655206D01*
X170473257Y-155978623D01*
X170241748Y-156262482D01*
X169959514Y-156495965D01*
X169637304Y-156670184D01*
X169287385Y-156778502D01*
X168892557Y-156820000D01*
X127856049Y-156820000D01*
X127877494Y-156808537D01*
X127974185Y-156729185D01*
X128053537Y-156632494D01*
X128112502Y-156522180D01*
X128148812Y-156402482D01*
X128161072Y-156278000D01*
X128161072Y-154778000D01*
X128148812Y-154653518D01*
X128112502Y-154533820D01*
X128053537Y-154423506D01*
X127974185Y-154326815D01*
X127877494Y-154247463D01*
X127767180Y-154188498D01*
X127732573Y-154178000D01*
X127767180Y-154167502D01*
X127877494Y-154108537D01*
X127974185Y-154029185D01*
X128053537Y-153932494D01*
X128112502Y-153822180D01*
X128148812Y-153702482D01*
X128161072Y-153578000D01*
X128161072Y-153391891D01*
X130638519Y-153391891D01*
X130735843Y-153666252D01*
X130884822Y-153916355D01*
X131079731Y-154132588D01*
X131313080Y-154306641D01*
X131575901Y-154431825D01*
X131723110Y-154476476D01*
X131953000Y-154355155D01*
X131953000Y-153162000D01*
X130759186Y-153162000D01*
X130638519Y-153391891D01*
X128161072Y-153391891D01*
X128161072Y-152434001D01*
X130725111Y-152434001D01*
X130638519Y-152678109D01*
X130759186Y-152908000D01*
X131953000Y-152908000D01*
X131953000Y-152888000D01*
X132207000Y-152888000D01*
X132207000Y-152908000D01*
X132227000Y-152908000D01*
X132227000Y-153162000D01*
X132207000Y-153162000D01*
X132207000Y-154355155D01*
X132436890Y-154476476D01*
X132584099Y-154431825D01*
X132846920Y-154306641D01*
X133080269Y-154132588D01*
X133275178Y-153916355D01*
X133344805Y-153799466D01*
X133466525Y-153981632D01*
X133673368Y-154188475D01*
X133916589Y-154350990D01*
X134186842Y-154462932D01*
X134473740Y-154520000D01*
X134766260Y-154520000D01*
X134984048Y-154476679D01*
X136213721Y-155706352D01*
X136237578Y-155735422D01*
X136353608Y-155830645D01*
X136485985Y-155901402D01*
X136629622Y-155944974D01*
X136741574Y-155956000D01*
X136741576Y-155956000D01*
X136778999Y-155959686D01*
X136816422Y-155956000D01*
X145576959Y-155956000D01*
X145578188Y-155968482D01*
X145614498Y-156088180D01*
X145673463Y-156198494D01*
X145752815Y-156295185D01*
X145849506Y-156374537D01*
X145959820Y-156433502D01*
X146079518Y-156469812D01*
X146204000Y-156482072D01*
X147704000Y-156482072D01*
X147828482Y-156469812D01*
X147948180Y-156433502D01*
X148058494Y-156374537D01*
X148155185Y-156295185D01*
X148234537Y-156198494D01*
X148293502Y-156088180D01*
X148304000Y-156053573D01*
X148314498Y-156088180D01*
X148373463Y-156198494D01*
X148452815Y-156295185D01*
X148549506Y-156374537D01*
X148659820Y-156433502D01*
X148779518Y-156469812D01*
X148904000Y-156482072D01*
X150404000Y-156482072D01*
X150528482Y-156469812D01*
X150648180Y-156433502D01*
X150758494Y-156374537D01*
X150855185Y-156295185D01*
X150934537Y-156198494D01*
X150993502Y-156088180D01*
X151029812Y-155968482D01*
X151041164Y-155853216D01*
X151083392Y-155830645D01*
X151199422Y-155735422D01*
X151223284Y-155706346D01*
X151886814Y-155042816D01*
X155731000Y-155042816D01*
X155731000Y-155345184D01*
X155789989Y-155641743D01*
X155905701Y-155921095D01*
X156073688Y-156172505D01*
X156287495Y-156386312D01*
X156538905Y-156554299D01*
X156818257Y-156670011D01*
X157114816Y-156729000D01*
X157417184Y-156729000D01*
X157713743Y-156670011D01*
X157993095Y-156554299D01*
X158244505Y-156386312D01*
X158458312Y-156172505D01*
X158516000Y-156086169D01*
X158573688Y-156172505D01*
X158787495Y-156386312D01*
X159038905Y-156554299D01*
X159318257Y-156670011D01*
X159614816Y-156729000D01*
X159917184Y-156729000D01*
X160213743Y-156670011D01*
X160493095Y-156554299D01*
X160744505Y-156386312D01*
X160958312Y-156172505D01*
X161016000Y-156086169D01*
X161073688Y-156172505D01*
X161287495Y-156386312D01*
X161538905Y-156554299D01*
X161818257Y-156670011D01*
X162114816Y-156729000D01*
X162417184Y-156729000D01*
X162713743Y-156670011D01*
X162993095Y-156554299D01*
X163244505Y-156386312D01*
X163458312Y-156172505D01*
X163626299Y-155921095D01*
X163742011Y-155641743D01*
X163801000Y-155345184D01*
X163801000Y-155042816D01*
X163742011Y-154746257D01*
X163626299Y-154466905D01*
X163472344Y-154236495D01*
X166417000Y-154236495D01*
X166417000Y-154627505D01*
X166493282Y-155011003D01*
X166642915Y-155372250D01*
X166860149Y-155697364D01*
X167136636Y-155973851D01*
X167461750Y-156191085D01*
X167822997Y-156340718D01*
X168206495Y-156417000D01*
X168597505Y-156417000D01*
X168981003Y-156340718D01*
X169342250Y-156191085D01*
X169667364Y-155973851D01*
X169943851Y-155697364D01*
X170161085Y-155372250D01*
X170310718Y-155011003D01*
X170387000Y-154627505D01*
X170387000Y-154236495D01*
X170310718Y-153852997D01*
X170161085Y-153491750D01*
X169943851Y-153166636D01*
X169667364Y-152890149D01*
X169342250Y-152672915D01*
X168981003Y-152523282D01*
X168597505Y-152447000D01*
X168206495Y-152447000D01*
X167822997Y-152523282D01*
X167461750Y-152672915D01*
X167136636Y-152890149D01*
X166860149Y-153166636D01*
X166642915Y-153491750D01*
X166493282Y-153852997D01*
X166417000Y-154236495D01*
X163472344Y-154236495D01*
X163458312Y-154215495D01*
X163244505Y-154001688D01*
X162993095Y-153833701D01*
X162713743Y-153717989D01*
X162417184Y-153659000D01*
X162114816Y-153659000D01*
X161818257Y-153717989D01*
X161538905Y-153833701D01*
X161287495Y-154001688D01*
X161073688Y-154215495D01*
X161016000Y-154301831D01*
X160958312Y-154215495D01*
X160744505Y-154001688D01*
X160493095Y-153833701D01*
X160213743Y-153717989D01*
X159917184Y-153659000D01*
X159614816Y-153659000D01*
X159318257Y-153717989D01*
X159038905Y-153833701D01*
X158787495Y-154001688D01*
X158573688Y-154215495D01*
X158516000Y-154301831D01*
X158458312Y-154215495D01*
X158244505Y-154001688D01*
X157993095Y-153833701D01*
X157713743Y-153717989D01*
X157417184Y-153659000D01*
X157114816Y-153659000D01*
X156818257Y-153717989D01*
X156538905Y-153833701D01*
X156287495Y-154001688D01*
X156073688Y-154215495D01*
X155905701Y-154466905D01*
X155789989Y-154746257D01*
X155731000Y-155042816D01*
X151886814Y-155042816D01*
X153683854Y-153245777D01*
X153712923Y-153221921D01*
X153808146Y-153105891D01*
X153878903Y-152973514D01*
X153922475Y-152829877D01*
X153933501Y-152717925D01*
X153933501Y-152717923D01*
X153937187Y-152680500D01*
X153933501Y-152643077D01*
X153933501Y-150071849D01*
X153954698Y-150086012D01*
X154343244Y-150246953D01*
X154755721Y-150329000D01*
X155176279Y-150329000D01*
X155588756Y-150246953D01*
X155977302Y-150086012D01*
X156326983Y-149852363D01*
X156624363Y-149554983D01*
X156858012Y-149205302D01*
X157018953Y-148816756D01*
X157101000Y-148404279D01*
X157101000Y-147983721D01*
X162431000Y-147983721D01*
X162431000Y-148404279D01*
X162513047Y-148816756D01*
X162673988Y-149205302D01*
X162907637Y-149554983D01*
X163205017Y-149852363D01*
X163554698Y-150086012D01*
X163943244Y-150246953D01*
X164355721Y-150329000D01*
X164776279Y-150329000D01*
X165188756Y-150246953D01*
X165577302Y-150086012D01*
X165926983Y-149852363D01*
X166224363Y-149554983D01*
X166458012Y-149205302D01*
X166618953Y-148816756D01*
X166701000Y-148404279D01*
X166701000Y-147983721D01*
X166618953Y-147571244D01*
X166458012Y-147182698D01*
X166224363Y-146833017D01*
X165926983Y-146535637D01*
X165577302Y-146301988D01*
X165188756Y-146141047D01*
X164776279Y-146059000D01*
X164355721Y-146059000D01*
X163943244Y-146141047D01*
X163554698Y-146301988D01*
X163205017Y-146535637D01*
X162907637Y-146833017D01*
X162673988Y-147182698D01*
X162513047Y-147571244D01*
X162431000Y-147983721D01*
X157101000Y-147983721D01*
X157018953Y-147571244D01*
X156858012Y-147182698D01*
X156624363Y-146833017D01*
X156326983Y-146535637D01*
X155977302Y-146301988D01*
X155588756Y-146141047D01*
X155176279Y-146059000D01*
X154755721Y-146059000D01*
X154343244Y-146141047D01*
X153954698Y-146301988D01*
X153605017Y-146535637D01*
X153482572Y-146658082D01*
X153482572Y-146177000D01*
X153470312Y-146052518D01*
X153434002Y-145932820D01*
X153375037Y-145822506D01*
X153295685Y-145725815D01*
X153198994Y-145646463D01*
X153088680Y-145587498D01*
X152968982Y-145551188D01*
X152844500Y-145538928D01*
X152638164Y-145538928D01*
X151756072Y-144656837D01*
X151756072Y-144155000D01*
X151743812Y-144030518D01*
X151725423Y-143969899D01*
X151868048Y-143969899D01*
X152068007Y-143930125D01*
X152256365Y-143852104D01*
X152425883Y-143738836D01*
X152469820Y-143694899D01*
X161838779Y-143694899D01*
X161876101Y-143698575D01*
X161913423Y-143694899D01*
X161913434Y-143694899D01*
X162025087Y-143683902D01*
X162168348Y-143640445D01*
X162300377Y-143569873D01*
X162416102Y-143474900D01*
X162439905Y-143445896D01*
X165992003Y-139893799D01*
X166021001Y-139870001D01*
X166063095Y-139818709D01*
X166115974Y-139754277D01*
X166135326Y-139718072D01*
X166231000Y-139718072D01*
X166355482Y-139705812D01*
X166475180Y-139669502D01*
X166585494Y-139610537D01*
X166682185Y-139531185D01*
X166761537Y-139434494D01*
X166820502Y-139324180D01*
X166856812Y-139204482D01*
X166869072Y-139080000D01*
X166869072Y-138557000D01*
X170790001Y-138557000D01*
X170790001Y-154907711D01*
G36*
X102285975Y-138662013D02*
G01*
X102344579Y-138733423D01*
X102373655Y-138757285D01*
X104011435Y-140395065D01*
X103917088Y-140413832D01*
X103619537Y-140537082D01*
X103351748Y-140716013D01*
X103124013Y-140943748D01*
X102945082Y-141211537D01*
X102821832Y-141509088D01*
X102759000Y-141824967D01*
X102759000Y-142147033D01*
X102821832Y-142462912D01*
X102945082Y-142760463D01*
X103124013Y-143028252D01*
X103351748Y-143255987D01*
X103619537Y-143434918D01*
X103917088Y-143558168D01*
X104232967Y-143621000D01*
X104555033Y-143621000D01*
X104870912Y-143558168D01*
X105168463Y-143434918D01*
X105436252Y-143255987D01*
X105663987Y-143028252D01*
X105842918Y-142760463D01*
X105848184Y-142747749D01*
X105957591Y-142736974D01*
X106101228Y-142693402D01*
X106233605Y-142622645D01*
X106236576Y-142620206D01*
X108585001Y-144968632D01*
X108585000Y-148238214D01*
X108531320Y-148254498D01*
X108421006Y-148313463D01*
X108324315Y-148392815D01*
X108244963Y-148489506D01*
X108185998Y-148599820D01*
X108149688Y-148719518D01*
X108137428Y-148844000D01*
X108137428Y-149352000D01*
X108149688Y-149476482D01*
X108185998Y-149596180D01*
X108244963Y-149706494D01*
X108266716Y-149733000D01*
X108244963Y-149759506D01*
X108185998Y-149869820D01*
X108149688Y-149989518D01*
X108137428Y-150114000D01*
X108137428Y-150622000D01*
X108149688Y-150746482D01*
X108185998Y-150866180D01*
X108244963Y-150976494D01*
X108266716Y-151003000D01*
X108244963Y-151029506D01*
X108185998Y-151139820D01*
X108149688Y-151259518D01*
X108137428Y-151384000D01*
X108137428Y-151892000D01*
X108149688Y-152016482D01*
X108185998Y-152136180D01*
X108244963Y-152246494D01*
X108266325Y-152272524D01*
X108251376Y-152290090D01*
X108190452Y-152399334D01*
X108152011Y-152518365D01*
X108140500Y-152622250D01*
X108299250Y-152781000D01*
X109220000Y-152781000D01*
X109220000Y-152761000D01*
X109474000Y-152761000D01*
X109474000Y-152781000D01*
X109494000Y-152781000D01*
X109494000Y-153035000D01*
X109474000Y-153035000D01*
X109474000Y-153638250D01*
X109632750Y-153797000D01*
X109750540Y-153798275D01*
X109716188Y-153911518D01*
X109703928Y-154036000D01*
X109703928Y-155336000D01*
X109716188Y-155460482D01*
X109752498Y-155580180D01*
X109811463Y-155690494D01*
X109890815Y-155787185D01*
X109987506Y-155866537D01*
X110097820Y-155925502D01*
X110217518Y-155961812D01*
X110342000Y-155974072D01*
X110433269Y-155974072D01*
X110455355Y-156015392D01*
X110472074Y-156035764D01*
X110550578Y-156131422D01*
X110579654Y-156155284D01*
X110599717Y-156175347D01*
X110623579Y-156204423D01*
X110739609Y-156299646D01*
X110871986Y-156370403D01*
X111015623Y-156413975D01*
X111127575Y-156425001D01*
X111127577Y-156425001D01*
X111165000Y-156428687D01*
X111202423Y-156425001D01*
X120701576Y-156425001D01*
X120738999Y-156428687D01*
X120776422Y-156425001D01*
X120776425Y-156425001D01*
X120888377Y-156413975D01*
X121032014Y-156370403D01*
X121164391Y-156299646D01*
X121280421Y-156204423D01*
X121304283Y-156175347D01*
X123297256Y-154182374D01*
X123316296Y-154198000D01*
X123256815Y-154246815D01*
X123177463Y-154343506D01*
X123118498Y-154453820D01*
X123082188Y-154573518D01*
X123069928Y-154698000D01*
X123069928Y-156198000D01*
X123082188Y-156322482D01*
X123118498Y-156442180D01*
X123177463Y-156552494D01*
X123256815Y-156649185D01*
X123353506Y-156728537D01*
X123463820Y-156787502D01*
X123570952Y-156820000D01*
X104172279Y-156820000D01*
X103775455Y-156781091D01*
X103424794Y-156675220D01*
X103101377Y-156503257D01*
X102817518Y-156271748D01*
X102584035Y-155989514D01*
X102409816Y-155667304D01*
X102301498Y-155317385D01*
X102260000Y-154922557D01*
X102260000Y-154236495D01*
X102663000Y-154236495D01*
X102663000Y-154627505D01*
X102739282Y-155011003D01*
X102888915Y-155372250D01*
X103106149Y-155697364D01*
X103382636Y-155973851D01*
X103707750Y-156191085D01*
X104068997Y-156340718D01*
X104452495Y-156417000D01*
X104843505Y-156417000D01*
X105227003Y-156340718D01*
X105588250Y-156191085D01*
X105913364Y-155973851D01*
X106189851Y-155697364D01*
X106407085Y-155372250D01*
X106556718Y-155011003D01*
X106633000Y-154627505D01*
X106633000Y-154236495D01*
X106556718Y-153852997D01*
X106407085Y-153491750D01*
X106207968Y-153193750D01*
X108140500Y-153193750D01*
X108152011Y-153297635D01*
X108190452Y-153416666D01*
X108251376Y-153525910D01*
X108332442Y-153621169D01*
X108430535Y-153698782D01*
X108541884Y-153755767D01*
X108662212Y-153789934D01*
X108786892Y-153799970D01*
X109061250Y-153797000D01*
X109220000Y-153638250D01*
X109220000Y-153035000D01*
X108299250Y-153035000D01*
X108140500Y-153193750D01*
X106207968Y-153193750D01*
X106189851Y-153166636D01*
X105913364Y-152890149D01*
X105588250Y-152672915D01*
X105227003Y-152523282D01*
X104843505Y-152447000D01*
X104452495Y-152447000D01*
X104068997Y-152523282D01*
X103707750Y-152672915D01*
X103382636Y-152890149D01*
X103106149Y-153166636D01*
X102888915Y-153491750D01*
X102739282Y-153852997D01*
X102663000Y-154236495D01*
X102260000Y-154236495D01*
X102260000Y-138630363D01*
X102285975Y-138662013D01*
G37*
X102285975Y-138662013D02*
X102344579Y-138733423D01*
X102373655Y-138757285D01*
X104011435Y-140395065D01*
X103917088Y-140413832D01*
X103619537Y-140537082D01*
X103351748Y-140716013D01*
X103124013Y-140943748D01*
X102945082Y-141211537D01*
X102821832Y-141509088D01*
X102759000Y-141824967D01*
X102759000Y-142147033D01*
X102821832Y-142462912D01*
X102945082Y-142760463D01*
X103124013Y-143028252D01*
X103351748Y-143255987D01*
X103619537Y-143434918D01*
X103917088Y-143558168D01*
X104232967Y-143621000D01*
X104555033Y-143621000D01*
X104870912Y-143558168D01*
X105168463Y-143434918D01*
X105436252Y-143255987D01*
X105663987Y-143028252D01*
X105842918Y-142760463D01*
X105848184Y-142747749D01*
X105957591Y-142736974D01*
X106101228Y-142693402D01*
X106233605Y-142622645D01*
X106236576Y-142620206D01*
X108585001Y-144968632D01*
X108585000Y-148238214D01*
X108531320Y-148254498D01*
X108421006Y-148313463D01*
X108324315Y-148392815D01*
X108244963Y-148489506D01*
X108185998Y-148599820D01*
X108149688Y-148719518D01*
X108137428Y-148844000D01*
X108137428Y-149352000D01*
X108149688Y-149476482D01*
X108185998Y-149596180D01*
X108244963Y-149706494D01*
X108266716Y-149733000D01*
X108244963Y-149759506D01*
X108185998Y-149869820D01*
X108149688Y-149989518D01*
X108137428Y-150114000D01*
X108137428Y-150622000D01*
X108149688Y-150746482D01*
X108185998Y-150866180D01*
X108244963Y-150976494D01*
X108266716Y-151003000D01*
X108244963Y-151029506D01*
X108185998Y-151139820D01*
X108149688Y-151259518D01*
X108137428Y-151384000D01*
X108137428Y-151892000D01*
X108149688Y-152016482D01*
X108185998Y-152136180D01*
X108244963Y-152246494D01*
X108266325Y-152272524D01*
X108251376Y-152290090D01*
X108190452Y-152399334D01*
X108152011Y-152518365D01*
X108140500Y-152622250D01*
X108299250Y-152781000D01*
X109220000Y-152781000D01*
X109220000Y-152761000D01*
X109474000Y-152761000D01*
X109474000Y-152781000D01*
X109494000Y-152781000D01*
X109494000Y-153035000D01*
X109474000Y-153035000D01*
X109474000Y-153638250D01*
X109632750Y-153797000D01*
X109750540Y-153798275D01*
X109716188Y-153911518D01*
X109703928Y-154036000D01*
X109703928Y-155336000D01*
X109716188Y-155460482D01*
X109752498Y-155580180D01*
X109811463Y-155690494D01*
X109890815Y-155787185D01*
X109987506Y-155866537D01*
X110097820Y-155925502D01*
X110217518Y-155961812D01*
X110342000Y-155974072D01*
X110433269Y-155974072D01*
X110455355Y-156015392D01*
X110472074Y-156035764D01*
X110550578Y-156131422D01*
X110579654Y-156155284D01*
X110599717Y-156175347D01*
X110623579Y-156204423D01*
X110739609Y-156299646D01*
X110871986Y-156370403D01*
X111015623Y-156413975D01*
X111127575Y-156425001D01*
X111127577Y-156425001D01*
X111165000Y-156428687D01*
X111202423Y-156425001D01*
X120701576Y-156425001D01*
X120738999Y-156428687D01*
X120776422Y-156425001D01*
X120776425Y-156425001D01*
X120888377Y-156413975D01*
X121032014Y-156370403D01*
X121164391Y-156299646D01*
X121280421Y-156204423D01*
X121304283Y-156175347D01*
X123297256Y-154182374D01*
X123316296Y-154198000D01*
X123256815Y-154246815D01*
X123177463Y-154343506D01*
X123118498Y-154453820D01*
X123082188Y-154573518D01*
X123069928Y-154698000D01*
X123069928Y-156198000D01*
X123082188Y-156322482D01*
X123118498Y-156442180D01*
X123177463Y-156552494D01*
X123256815Y-156649185D01*
X123353506Y-156728537D01*
X123463820Y-156787502D01*
X123570952Y-156820000D01*
X104172279Y-156820000D01*
X103775455Y-156781091D01*
X103424794Y-156675220D01*
X103101377Y-156503257D01*
X102817518Y-156271748D01*
X102584035Y-155989514D01*
X102409816Y-155667304D01*
X102301498Y-155317385D01*
X102260000Y-154922557D01*
X102260000Y-154236495D01*
X102663000Y-154236495D01*
X102663000Y-154627505D01*
X102739282Y-155011003D01*
X102888915Y-155372250D01*
X103106149Y-155697364D01*
X103382636Y-155973851D01*
X103707750Y-156191085D01*
X104068997Y-156340718D01*
X104452495Y-156417000D01*
X104843505Y-156417000D01*
X105227003Y-156340718D01*
X105588250Y-156191085D01*
X105913364Y-155973851D01*
X106189851Y-155697364D01*
X106407085Y-155372250D01*
X106556718Y-155011003D01*
X106633000Y-154627505D01*
X106633000Y-154236495D01*
X106556718Y-153852997D01*
X106407085Y-153491750D01*
X106207968Y-153193750D01*
X108140500Y-153193750D01*
X108152011Y-153297635D01*
X108190452Y-153416666D01*
X108251376Y-153525910D01*
X108332442Y-153621169D01*
X108430535Y-153698782D01*
X108541884Y-153755767D01*
X108662212Y-153789934D01*
X108786892Y-153799970D01*
X109061250Y-153797000D01*
X109220000Y-153638250D01*
X109220000Y-153035000D01*
X108299250Y-153035000D01*
X108140500Y-153193750D01*
X106207968Y-153193750D01*
X106189851Y-153166636D01*
X105913364Y-152890149D01*
X105588250Y-152672915D01*
X105227003Y-152523282D01*
X104843505Y-152447000D01*
X104452495Y-152447000D01*
X104068997Y-152523282D01*
X103707750Y-152672915D01*
X103382636Y-152890149D01*
X103106149Y-153166636D01*
X102888915Y-153491750D01*
X102739282Y-153852997D01*
X102663000Y-154236495D01*
X102260000Y-154236495D01*
X102260000Y-138630363D01*
X102285975Y-138662013D01*
G36*
X106437705Y-139322008D02*
G01*
X106461499Y-139351001D01*
X106490492Y-139374795D01*
X106490496Y-139374799D01*
X106544958Y-139419494D01*
X106577224Y-139445974D01*
X106700248Y-139511733D01*
X106666452Y-139572334D01*
X106628011Y-139691365D01*
X106616500Y-139795250D01*
X106775250Y-139954000D01*
X107696000Y-139954000D01*
X107696000Y-139934000D01*
X107950000Y-139934000D01*
X107950000Y-139954000D01*
X108870750Y-139954000D01*
X109029500Y-139795250D01*
X109017989Y-139691365D01*
X108979548Y-139572334D01*
X108918624Y-139463090D01*
X108903675Y-139445524D01*
X108925037Y-139419494D01*
X108984002Y-139309180D01*
X109020312Y-139189482D01*
X109032572Y-139065000D01*
X109032572Y-138557000D01*
X111466001Y-138557000D01*
X111466000Y-140993592D01*
X111360820Y-141025498D01*
X111250506Y-141084463D01*
X111153815Y-141163815D01*
X111105000Y-141223296D01*
X111056185Y-141163815D01*
X110959494Y-141084463D01*
X110849180Y-141025498D01*
X110729482Y-140989188D01*
X110605000Y-140976928D01*
X110140750Y-140980000D01*
X109982000Y-141138750D01*
X109982000Y-142113000D01*
X110002000Y-142113000D01*
X110002000Y-142367000D01*
X109982000Y-142367000D01*
X109982000Y-143341250D01*
X110140750Y-143500000D01*
X110605000Y-143503072D01*
X110729482Y-143490812D01*
X110849180Y-143454502D01*
X110959494Y-143395537D01*
X111056185Y-143316185D01*
X111105000Y-143256704D01*
X111153815Y-143316185D01*
X111250506Y-143395537D01*
X111360820Y-143454502D01*
X111480518Y-143490812D01*
X111605000Y-143503072D01*
X112883000Y-143503072D01*
X112883001Y-145946592D01*
X112777820Y-145978498D01*
X112667506Y-146037463D01*
X112570815Y-146116815D01*
X112522000Y-146176296D01*
X112473185Y-146116815D01*
X112376494Y-146037463D01*
X112266180Y-145978498D01*
X112146482Y-145942188D01*
X112022000Y-145929928D01*
X111557750Y-145933000D01*
X111399000Y-146091750D01*
X111399000Y-147066000D01*
X111419000Y-147066000D01*
X111419000Y-147320000D01*
X111399000Y-147320000D01*
X111399000Y-148294250D01*
X111557750Y-148453000D01*
X112022000Y-148456072D01*
X112146482Y-148443812D01*
X112266180Y-148407502D01*
X112376494Y-148348537D01*
X112473185Y-148269185D01*
X112522000Y-148209704D01*
X112570815Y-148269185D01*
X112667506Y-148348537D01*
X112777820Y-148407502D01*
X112897518Y-148443812D01*
X113022000Y-148456072D01*
X113797837Y-148456072D01*
X114487428Y-149145664D01*
X114487428Y-149352000D01*
X114499688Y-149476482D01*
X114535998Y-149596180D01*
X114594963Y-149706494D01*
X114616716Y-149733000D01*
X114594963Y-149759506D01*
X114535998Y-149869820D01*
X114499688Y-149989518D01*
X114487428Y-150114000D01*
X114487428Y-150622000D01*
X114499688Y-150746482D01*
X114502581Y-150756018D01*
X114480548Y-150758188D01*
X114443224Y-150761864D01*
X114357013Y-150788016D01*
X114275649Y-150812697D01*
X114121209Y-150895247D01*
X113985841Y-151006341D01*
X113958001Y-151040264D01*
X113194259Y-151804006D01*
X113160342Y-151831841D01*
X113132507Y-151865758D01*
X113132505Y-151865760D01*
X113049248Y-151967209D01*
X112966698Y-152121648D01*
X112915864Y-152289226D01*
X112898700Y-152463500D01*
X112903001Y-152507170D01*
X112903001Y-153414592D01*
X112797820Y-153446498D01*
X112687506Y-153505463D01*
X112590815Y-153584815D01*
X112511463Y-153681506D01*
X112452498Y-153791820D01*
X112442000Y-153826427D01*
X112431502Y-153791820D01*
X112372537Y-153681506D01*
X112293185Y-153584815D01*
X112196494Y-153505463D01*
X112086180Y-153446498D01*
X111966482Y-153410188D01*
X111854000Y-153399110D01*
X111854000Y-152594922D01*
X111857686Y-152557499D01*
X111854000Y-152520074D01*
X111842974Y-152408122D01*
X111799402Y-152264485D01*
X111728645Y-152132108D01*
X111633422Y-152016078D01*
X111604351Y-151992221D01*
X110737784Y-151125654D01*
X110713922Y-151096578D01*
X110597892Y-151001355D01*
X110471780Y-150933946D01*
X110508002Y-150866180D01*
X110544312Y-150746482D01*
X110556572Y-150622000D01*
X110556572Y-150114000D01*
X110544312Y-149989518D01*
X110508002Y-149869820D01*
X110449037Y-149759506D01*
X110427284Y-149733000D01*
X110449037Y-149706494D01*
X110508002Y-149596180D01*
X110544312Y-149476482D01*
X110556572Y-149352000D01*
X110556572Y-148844000D01*
X110544312Y-148719518D01*
X110508002Y-148599820D01*
X110449037Y-148489506D01*
X110412770Y-148445314D01*
X110522000Y-148456072D01*
X110986250Y-148453000D01*
X111145000Y-148294250D01*
X111145000Y-147320000D01*
X111125000Y-147320000D01*
X111125000Y-147066000D01*
X111145000Y-147066000D01*
X111145000Y-146091750D01*
X110986250Y-145933000D01*
X110522000Y-145929928D01*
X110397518Y-145942188D01*
X110277820Y-145978498D01*
X110167506Y-146037463D01*
X110109000Y-146085477D01*
X110109000Y-144690423D01*
X110112686Y-144653000D01*
X110108030Y-144605726D01*
X110097974Y-144503622D01*
X110054402Y-144359985D01*
X110005768Y-144268997D01*
X109983645Y-144227607D01*
X109912279Y-144140648D01*
X109888422Y-144111578D01*
X109859352Y-144087721D01*
X109273587Y-143501956D01*
X109569250Y-143500000D01*
X109728000Y-143341250D01*
X109728000Y-142367000D01*
X108628750Y-142367000D01*
X108470000Y-142525750D01*
X108468451Y-142696820D01*
X107386631Y-141615000D01*
X108466928Y-141615000D01*
X108470000Y-141954250D01*
X108628750Y-142113000D01*
X109728000Y-142113000D01*
X109728000Y-141138750D01*
X109569250Y-140980000D01*
X109105000Y-140976928D01*
X108980518Y-140989188D01*
X108860820Y-141025498D01*
X108750506Y-141084463D01*
X108653815Y-141163815D01*
X108574463Y-141260506D01*
X108515498Y-141370820D01*
X108479188Y-141490518D01*
X108466928Y-141615000D01*
X107386631Y-141615000D01*
X106991284Y-141219654D01*
X106967422Y-141190578D01*
X106938346Y-141166716D01*
X106138380Y-140366750D01*
X106616500Y-140366750D01*
X106628011Y-140470635D01*
X106666452Y-140589666D01*
X106727376Y-140698910D01*
X106808442Y-140794169D01*
X106906535Y-140871782D01*
X107017884Y-140928767D01*
X107138212Y-140962934D01*
X107262892Y-140972970D01*
X107537250Y-140970000D01*
X107696000Y-140811250D01*
X107696000Y-140208000D01*
X107950000Y-140208000D01*
X107950000Y-140811250D01*
X108108750Y-140970000D01*
X108383108Y-140972970D01*
X108507788Y-140962934D01*
X108628116Y-140928767D01*
X108739465Y-140871782D01*
X108837558Y-140794169D01*
X108918624Y-140698910D01*
X108979548Y-140589666D01*
X109017989Y-140470635D01*
X109029500Y-140366750D01*
X108870750Y-140208000D01*
X107950000Y-140208000D01*
X107696000Y-140208000D01*
X106775250Y-140208000D01*
X106616500Y-140366750D01*
X106138380Y-140366750D01*
X104328630Y-138557000D01*
X105672698Y-138557000D01*
X106437705Y-139322008D01*
G37*
X106437705Y-139322008D02*
X106461499Y-139351001D01*
X106490492Y-139374795D01*
X106490496Y-139374799D01*
X106544958Y-139419494D01*
X106577224Y-139445974D01*
X106700248Y-139511733D01*
X106666452Y-139572334D01*
X106628011Y-139691365D01*
X106616500Y-139795250D01*
X106775250Y-139954000D01*
X107696000Y-139954000D01*
X107696000Y-139934000D01*
X107950000Y-139934000D01*
X107950000Y-139954000D01*
X108870750Y-139954000D01*
X109029500Y-139795250D01*
X109017989Y-139691365D01*
X108979548Y-139572334D01*
X108918624Y-139463090D01*
X108903675Y-139445524D01*
X108925037Y-139419494D01*
X108984002Y-139309180D01*
X109020312Y-139189482D01*
X109032572Y-139065000D01*
X109032572Y-138557000D01*
X111466001Y-138557000D01*
X111466000Y-140993592D01*
X111360820Y-141025498D01*
X111250506Y-141084463D01*
X111153815Y-141163815D01*
X111105000Y-141223296D01*
X111056185Y-141163815D01*
X110959494Y-141084463D01*
X110849180Y-141025498D01*
X110729482Y-140989188D01*
X110605000Y-140976928D01*
X110140750Y-140980000D01*
X109982000Y-141138750D01*
X109982000Y-142113000D01*
X110002000Y-142113000D01*
X110002000Y-142367000D01*
X109982000Y-142367000D01*
X109982000Y-143341250D01*
X110140750Y-143500000D01*
X110605000Y-143503072D01*
X110729482Y-143490812D01*
X110849180Y-143454502D01*
X110959494Y-143395537D01*
X111056185Y-143316185D01*
X111105000Y-143256704D01*
X111153815Y-143316185D01*
X111250506Y-143395537D01*
X111360820Y-143454502D01*
X111480518Y-143490812D01*
X111605000Y-143503072D01*
X112883000Y-143503072D01*
X112883001Y-145946592D01*
X112777820Y-145978498D01*
X112667506Y-146037463D01*
X112570815Y-146116815D01*
X112522000Y-146176296D01*
X112473185Y-146116815D01*
X112376494Y-146037463D01*
X112266180Y-145978498D01*
X112146482Y-145942188D01*
X112022000Y-145929928D01*
X111557750Y-145933000D01*
X111399000Y-146091750D01*
X111399000Y-147066000D01*
X111419000Y-147066000D01*
X111419000Y-147320000D01*
X111399000Y-147320000D01*
X111399000Y-148294250D01*
X111557750Y-148453000D01*
X112022000Y-148456072D01*
X112146482Y-148443812D01*
X112266180Y-148407502D01*
X112376494Y-148348537D01*
X112473185Y-148269185D01*
X112522000Y-148209704D01*
X112570815Y-148269185D01*
X112667506Y-148348537D01*
X112777820Y-148407502D01*
X112897518Y-148443812D01*
X113022000Y-148456072D01*
X113797837Y-148456072D01*
X114487428Y-149145664D01*
X114487428Y-149352000D01*
X114499688Y-149476482D01*
X114535998Y-149596180D01*
X114594963Y-149706494D01*
X114616716Y-149733000D01*
X114594963Y-149759506D01*
X114535998Y-149869820D01*
X114499688Y-149989518D01*
X114487428Y-150114000D01*
X114487428Y-150622000D01*
X114499688Y-150746482D01*
X114502581Y-150756018D01*
X114480548Y-150758188D01*
X114443224Y-150761864D01*
X114357013Y-150788016D01*
X114275649Y-150812697D01*
X114121209Y-150895247D01*
X113985841Y-151006341D01*
X113958001Y-151040264D01*
X113194259Y-151804006D01*
X113160342Y-151831841D01*
X113132507Y-151865758D01*
X113132505Y-151865760D01*
X113049248Y-151967209D01*
X112966698Y-152121648D01*
X112915864Y-152289226D01*
X112898700Y-152463500D01*
X112903001Y-152507170D01*
X112903001Y-153414592D01*
X112797820Y-153446498D01*
X112687506Y-153505463D01*
X112590815Y-153584815D01*
X112511463Y-153681506D01*
X112452498Y-153791820D01*
X112442000Y-153826427D01*
X112431502Y-153791820D01*
X112372537Y-153681506D01*
X112293185Y-153584815D01*
X112196494Y-153505463D01*
X112086180Y-153446498D01*
X111966482Y-153410188D01*
X111854000Y-153399110D01*
X111854000Y-152594922D01*
X111857686Y-152557499D01*
X111854000Y-152520074D01*
X111842974Y-152408122D01*
X111799402Y-152264485D01*
X111728645Y-152132108D01*
X111633422Y-152016078D01*
X111604351Y-151992221D01*
X110737784Y-151125654D01*
X110713922Y-151096578D01*
X110597892Y-151001355D01*
X110471780Y-150933946D01*
X110508002Y-150866180D01*
X110544312Y-150746482D01*
X110556572Y-150622000D01*
X110556572Y-150114000D01*
X110544312Y-149989518D01*
X110508002Y-149869820D01*
X110449037Y-149759506D01*
X110427284Y-149733000D01*
X110449037Y-149706494D01*
X110508002Y-149596180D01*
X110544312Y-149476482D01*
X110556572Y-149352000D01*
X110556572Y-148844000D01*
X110544312Y-148719518D01*
X110508002Y-148599820D01*
X110449037Y-148489506D01*
X110412770Y-148445314D01*
X110522000Y-148456072D01*
X110986250Y-148453000D01*
X111145000Y-148294250D01*
X111145000Y-147320000D01*
X111125000Y-147320000D01*
X111125000Y-147066000D01*
X111145000Y-147066000D01*
X111145000Y-146091750D01*
X110986250Y-145933000D01*
X110522000Y-145929928D01*
X110397518Y-145942188D01*
X110277820Y-145978498D01*
X110167506Y-146037463D01*
X110109000Y-146085477D01*
X110109000Y-144690423D01*
X110112686Y-144653000D01*
X110108030Y-144605726D01*
X110097974Y-144503622D01*
X110054402Y-144359985D01*
X110005768Y-144268997D01*
X109983645Y-144227607D01*
X109912279Y-144140648D01*
X109888422Y-144111578D01*
X109859352Y-144087721D01*
X109273587Y-143501956D01*
X109569250Y-143500000D01*
X109728000Y-143341250D01*
X109728000Y-142367000D01*
X108628750Y-142367000D01*
X108470000Y-142525750D01*
X108468451Y-142696820D01*
X107386631Y-141615000D01*
X108466928Y-141615000D01*
X108470000Y-141954250D01*
X108628750Y-142113000D01*
X109728000Y-142113000D01*
X109728000Y-141138750D01*
X109569250Y-140980000D01*
X109105000Y-140976928D01*
X108980518Y-140989188D01*
X108860820Y-141025498D01*
X108750506Y-141084463D01*
X108653815Y-141163815D01*
X108574463Y-141260506D01*
X108515498Y-141370820D01*
X108479188Y-141490518D01*
X108466928Y-141615000D01*
X107386631Y-141615000D01*
X106991284Y-141219654D01*
X106967422Y-141190578D01*
X106938346Y-141166716D01*
X106138380Y-140366750D01*
X106616500Y-140366750D01*
X106628011Y-140470635D01*
X106666452Y-140589666D01*
X106727376Y-140698910D01*
X106808442Y-140794169D01*
X106906535Y-140871782D01*
X107017884Y-140928767D01*
X107138212Y-140962934D01*
X107262892Y-140972970D01*
X107537250Y-140970000D01*
X107696000Y-140811250D01*
X107696000Y-140208000D01*
X107950000Y-140208000D01*
X107950000Y-140811250D01*
X108108750Y-140970000D01*
X108383108Y-140972970D01*
X108507788Y-140962934D01*
X108628116Y-140928767D01*
X108739465Y-140871782D01*
X108837558Y-140794169D01*
X108918624Y-140698910D01*
X108979548Y-140589666D01*
X109017989Y-140470635D01*
X109029500Y-140366750D01*
X108870750Y-140208000D01*
X107950000Y-140208000D01*
X107696000Y-140208000D01*
X106775250Y-140208000D01*
X106616500Y-140366750D01*
X106138380Y-140366750D01*
X104328630Y-138557000D01*
X105672698Y-138557000D01*
X106437705Y-139322008D01*
G36*
X135086063Y-145439774D02*
G01*
X135230226Y-145583937D01*
X135399744Y-145697205D01*
X135588102Y-145775226D01*
X135788061Y-145815000D01*
X135991939Y-145815000D01*
X136191898Y-145775226D01*
X136380256Y-145697205D01*
X136549774Y-145583937D01*
X136553878Y-145579833D01*
X136582498Y-145674180D01*
X136641463Y-145784494D01*
X136720815Y-145881185D01*
X136817506Y-145960537D01*
X136927820Y-146019502D01*
X137047518Y-146055812D01*
X137172000Y-146068072D01*
X138672000Y-146068072D01*
X138796482Y-146055812D01*
X138916180Y-146019502D01*
X139026494Y-145960537D01*
X139123185Y-145881185D01*
X139202537Y-145784494D01*
X139261502Y-145674180D01*
X139272000Y-145639573D01*
X139282498Y-145674180D01*
X139341463Y-145784494D01*
X139420815Y-145881185D01*
X139517506Y-145960537D01*
X139627820Y-146019502D01*
X139747518Y-146055812D01*
X139872000Y-146068072D01*
X141372000Y-146068072D01*
X141496482Y-146055812D01*
X141616180Y-146019502D01*
X141726494Y-145960537D01*
X141727986Y-145959312D01*
X141793820Y-145994502D01*
X141913518Y-146030812D01*
X142038000Y-146043072D01*
X143098442Y-146043072D01*
X143351600Y-146296231D01*
X143208102Y-146324774D01*
X143019744Y-146402795D01*
X142850226Y-146516063D01*
X142706063Y-146660226D01*
X142592795Y-146829744D01*
X142514774Y-147018102D01*
X142475000Y-147218061D01*
X142475000Y-147421939D01*
X142514774Y-147621898D01*
X142592795Y-147810256D01*
X142706063Y-147979774D01*
X142850226Y-148123937D01*
X143019744Y-148237205D01*
X143208102Y-148315226D01*
X143402829Y-148353959D01*
X144532220Y-149483351D01*
X144556078Y-149512422D01*
X144672108Y-149607645D01*
X144798356Y-149675126D01*
X144766452Y-149732334D01*
X144728011Y-149851365D01*
X144716500Y-149955250D01*
X144875250Y-150114000D01*
X145796000Y-150114000D01*
X145796000Y-150094000D01*
X146050000Y-150094000D01*
X146050000Y-150114000D01*
X146970750Y-150114000D01*
X147129500Y-149955250D01*
X147117989Y-149851365D01*
X147079548Y-149732334D01*
X147018624Y-149623090D01*
X147003675Y-149605524D01*
X147025037Y-149579494D01*
X147084002Y-149469180D01*
X147120312Y-149349482D01*
X147132572Y-149225000D01*
X147132572Y-148717000D01*
X147120312Y-148592518D01*
X147084002Y-148472820D01*
X147077684Y-148461000D01*
X149291199Y-148461000D01*
X149460000Y-148629801D01*
X149460000Y-148691939D01*
X149499774Y-148891898D01*
X149577795Y-149080256D01*
X149691063Y-149249774D01*
X149835226Y-149393937D01*
X150004744Y-149507205D01*
X150193102Y-149585226D01*
X150393061Y-149625000D01*
X150596939Y-149625000D01*
X150796898Y-149585226D01*
X150985256Y-149507205D01*
X151100229Y-149430383D01*
X151111998Y-149469180D01*
X151170963Y-149579494D01*
X151192716Y-149606000D01*
X151170963Y-149632506D01*
X151111998Y-149742820D01*
X151075688Y-149862518D01*
X151063428Y-149987000D01*
X151063428Y-150495000D01*
X151075688Y-150619482D01*
X151111998Y-150739180D01*
X151170963Y-150849494D01*
X151250315Y-150946185D01*
X151347006Y-151025537D01*
X151457320Y-151084502D01*
X151459708Y-151085226D01*
X151355795Y-151240744D01*
X151277774Y-151429102D01*
X151238000Y-151629061D01*
X151238000Y-151688369D01*
X150759819Y-152166550D01*
X150758494Y-152165463D01*
X150648180Y-152106498D01*
X150528482Y-152070188D01*
X150404000Y-152057928D01*
X148904000Y-152057928D01*
X148779518Y-152070188D01*
X148659820Y-152106498D01*
X148549506Y-152165463D01*
X148452815Y-152244815D01*
X148373463Y-152341506D01*
X148314498Y-152451820D01*
X148304000Y-152486427D01*
X148293502Y-152451820D01*
X148234537Y-152341506D01*
X148155185Y-152244815D01*
X148058494Y-152165463D01*
X147948180Y-152106498D01*
X147828482Y-152070188D01*
X147704000Y-152057928D01*
X146204000Y-152057928D01*
X146079518Y-152070188D01*
X145959820Y-152106498D01*
X145849506Y-152165463D01*
X145752815Y-152244815D01*
X145673463Y-152341506D01*
X145614498Y-152451820D01*
X145578188Y-152571518D01*
X145566836Y-152686784D01*
X145524608Y-152709355D01*
X145408578Y-152804578D01*
X145384721Y-152833649D01*
X144768369Y-153450001D01*
X141131544Y-153450001D01*
X141185000Y-153181260D01*
X141185000Y-152888740D01*
X141127932Y-152601842D01*
X141015990Y-152331589D01*
X140853475Y-152088368D01*
X140721620Y-151956513D01*
X140794180Y-151934502D01*
X140904494Y-151875537D01*
X141001185Y-151796185D01*
X141080537Y-151699494D01*
X141139502Y-151589180D01*
X141175812Y-151469482D01*
X141188072Y-151345000D01*
X141188072Y-150526750D01*
X144716500Y-150526750D01*
X144728011Y-150630635D01*
X144766452Y-150749666D01*
X144827376Y-150858910D01*
X144908442Y-150954169D01*
X145006535Y-151031782D01*
X145117884Y-151088767D01*
X145238212Y-151122934D01*
X145362892Y-151132970D01*
X145637250Y-151130000D01*
X145796000Y-150971250D01*
X145796000Y-150368000D01*
X146050000Y-150368000D01*
X146050000Y-150971250D01*
X146208750Y-151130000D01*
X146483108Y-151132970D01*
X146607788Y-151122934D01*
X146728116Y-151088767D01*
X146839465Y-151031782D01*
X146937558Y-150954169D01*
X147018624Y-150858910D01*
X147079548Y-150749666D01*
X147117989Y-150630635D01*
X147129500Y-150526750D01*
X146970750Y-150368000D01*
X146050000Y-150368000D01*
X145796000Y-150368000D01*
X144875250Y-150368000D01*
X144716500Y-150526750D01*
X141188072Y-150526750D01*
X141188072Y-149645000D01*
X141175812Y-149520518D01*
X141139502Y-149400820D01*
X141080537Y-149290506D01*
X141001185Y-149193815D01*
X140904494Y-149114463D01*
X140794180Y-149055498D01*
X140674482Y-149019188D01*
X140550000Y-149006928D01*
X138850000Y-149006928D01*
X138725518Y-149019188D01*
X138605820Y-149055498D01*
X138495506Y-149114463D01*
X138398815Y-149193815D01*
X138319463Y-149290506D01*
X138260498Y-149400820D01*
X138238487Y-149473380D01*
X138106632Y-149341525D01*
X137863411Y-149179010D01*
X137593158Y-149067068D01*
X137306260Y-149010000D01*
X137013740Y-149010000D01*
X136726842Y-149067068D01*
X136456589Y-149179010D01*
X136213368Y-149341525D01*
X136006525Y-149548368D01*
X135890000Y-149722760D01*
X135773475Y-149548368D01*
X135566632Y-149341525D01*
X135323411Y-149179010D01*
X135053158Y-149067068D01*
X134766260Y-149010000D01*
X134473740Y-149010000D01*
X134186842Y-149067068D01*
X133916589Y-149179010D01*
X133673368Y-149341525D01*
X133466525Y-149548368D01*
X133350000Y-149722760D01*
X133233475Y-149548368D01*
X133026632Y-149341525D01*
X132969000Y-149303017D01*
X132969000Y-148808274D01*
X133034180Y-148788502D01*
X133096000Y-148755458D01*
X133157820Y-148788502D01*
X133277518Y-148824812D01*
X133402000Y-148837072D01*
X134902000Y-148837072D01*
X135026482Y-148824812D01*
X135146180Y-148788502D01*
X135256494Y-148729537D01*
X135353185Y-148650185D01*
X135402000Y-148590704D01*
X135450815Y-148650185D01*
X135547506Y-148729537D01*
X135657820Y-148788502D01*
X135777518Y-148824812D01*
X135902000Y-148837072D01*
X136366250Y-148834000D01*
X136525000Y-148675250D01*
X136525000Y-147701000D01*
X136779000Y-147701000D01*
X136779000Y-148675250D01*
X136937750Y-148834000D01*
X137402000Y-148837072D01*
X137526482Y-148824812D01*
X137646180Y-148788502D01*
X137756494Y-148729537D01*
X137853185Y-148650185D01*
X137932537Y-148553494D01*
X137991502Y-148443180D01*
X138027812Y-148323482D01*
X138040072Y-148199000D01*
X138037000Y-147859750D01*
X137878250Y-147701000D01*
X136779000Y-147701000D01*
X136525000Y-147701000D01*
X136505000Y-147701000D01*
X136505000Y-147447000D01*
X136525000Y-147447000D01*
X136525000Y-146472750D01*
X136779000Y-146472750D01*
X136779000Y-147447000D01*
X137878250Y-147447000D01*
X138037000Y-147288250D01*
X138040072Y-146949000D01*
X138027812Y-146824518D01*
X137991502Y-146704820D01*
X137932537Y-146594506D01*
X137853185Y-146497815D01*
X137756494Y-146418463D01*
X137646180Y-146359498D01*
X137526482Y-146323188D01*
X137402000Y-146310928D01*
X136937750Y-146314000D01*
X136779000Y-146472750D01*
X136525000Y-146472750D01*
X136366250Y-146314000D01*
X135902000Y-146310928D01*
X135777518Y-146323188D01*
X135657820Y-146359498D01*
X135547506Y-146418463D01*
X135450815Y-146497815D01*
X135402000Y-146557296D01*
X135353185Y-146497815D01*
X135256494Y-146418463D01*
X135146180Y-146359498D01*
X135041000Y-146327592D01*
X135041000Y-145372332D01*
X135086063Y-145439774D01*
G37*
X135086063Y-145439774D02*
X135230226Y-145583937D01*
X135399744Y-145697205D01*
X135588102Y-145775226D01*
X135788061Y-145815000D01*
X135991939Y-145815000D01*
X136191898Y-145775226D01*
X136380256Y-145697205D01*
X136549774Y-145583937D01*
X136553878Y-145579833D01*
X136582498Y-145674180D01*
X136641463Y-145784494D01*
X136720815Y-145881185D01*
X136817506Y-145960537D01*
X136927820Y-146019502D01*
X137047518Y-146055812D01*
X137172000Y-146068072D01*
X138672000Y-146068072D01*
X138796482Y-146055812D01*
X138916180Y-146019502D01*
X139026494Y-145960537D01*
X139123185Y-145881185D01*
X139202537Y-145784494D01*
X139261502Y-145674180D01*
X139272000Y-145639573D01*
X139282498Y-145674180D01*
X139341463Y-145784494D01*
X139420815Y-145881185D01*
X139517506Y-145960537D01*
X139627820Y-146019502D01*
X139747518Y-146055812D01*
X139872000Y-146068072D01*
X141372000Y-146068072D01*
X141496482Y-146055812D01*
X141616180Y-146019502D01*
X141726494Y-145960537D01*
X141727986Y-145959312D01*
X141793820Y-145994502D01*
X141913518Y-146030812D01*
X142038000Y-146043072D01*
X143098442Y-146043072D01*
X143351600Y-146296231D01*
X143208102Y-146324774D01*
X143019744Y-146402795D01*
X142850226Y-146516063D01*
X142706063Y-146660226D01*
X142592795Y-146829744D01*
X142514774Y-147018102D01*
X142475000Y-147218061D01*
X142475000Y-147421939D01*
X142514774Y-147621898D01*
X142592795Y-147810256D01*
X142706063Y-147979774D01*
X142850226Y-148123937D01*
X143019744Y-148237205D01*
X143208102Y-148315226D01*
X143402829Y-148353959D01*
X144532220Y-149483351D01*
X144556078Y-149512422D01*
X144672108Y-149607645D01*
X144798356Y-149675126D01*
X144766452Y-149732334D01*
X144728011Y-149851365D01*
X144716500Y-149955250D01*
X144875250Y-150114000D01*
X145796000Y-150114000D01*
X145796000Y-150094000D01*
X146050000Y-150094000D01*
X146050000Y-150114000D01*
X146970750Y-150114000D01*
X147129500Y-149955250D01*
X147117989Y-149851365D01*
X147079548Y-149732334D01*
X147018624Y-149623090D01*
X147003675Y-149605524D01*
X147025037Y-149579494D01*
X147084002Y-149469180D01*
X147120312Y-149349482D01*
X147132572Y-149225000D01*
X147132572Y-148717000D01*
X147120312Y-148592518D01*
X147084002Y-148472820D01*
X147077684Y-148461000D01*
X149291199Y-148461000D01*
X149460000Y-148629801D01*
X149460000Y-148691939D01*
X149499774Y-148891898D01*
X149577795Y-149080256D01*
X149691063Y-149249774D01*
X149835226Y-149393937D01*
X150004744Y-149507205D01*
X150193102Y-149585226D01*
X150393061Y-149625000D01*
X150596939Y-149625000D01*
X150796898Y-149585226D01*
X150985256Y-149507205D01*
X151100229Y-149430383D01*
X151111998Y-149469180D01*
X151170963Y-149579494D01*
X151192716Y-149606000D01*
X151170963Y-149632506D01*
X151111998Y-149742820D01*
X151075688Y-149862518D01*
X151063428Y-149987000D01*
X151063428Y-150495000D01*
X151075688Y-150619482D01*
X151111998Y-150739180D01*
X151170963Y-150849494D01*
X151250315Y-150946185D01*
X151347006Y-151025537D01*
X151457320Y-151084502D01*
X151459708Y-151085226D01*
X151355795Y-151240744D01*
X151277774Y-151429102D01*
X151238000Y-151629061D01*
X151238000Y-151688369D01*
X150759819Y-152166550D01*
X150758494Y-152165463D01*
X150648180Y-152106498D01*
X150528482Y-152070188D01*
X150404000Y-152057928D01*
X148904000Y-152057928D01*
X148779518Y-152070188D01*
X148659820Y-152106498D01*
X148549506Y-152165463D01*
X148452815Y-152244815D01*
X148373463Y-152341506D01*
X148314498Y-152451820D01*
X148304000Y-152486427D01*
X148293502Y-152451820D01*
X148234537Y-152341506D01*
X148155185Y-152244815D01*
X148058494Y-152165463D01*
X147948180Y-152106498D01*
X147828482Y-152070188D01*
X147704000Y-152057928D01*
X146204000Y-152057928D01*
X146079518Y-152070188D01*
X145959820Y-152106498D01*
X145849506Y-152165463D01*
X145752815Y-152244815D01*
X145673463Y-152341506D01*
X145614498Y-152451820D01*
X145578188Y-152571518D01*
X145566836Y-152686784D01*
X145524608Y-152709355D01*
X145408578Y-152804578D01*
X145384721Y-152833649D01*
X144768369Y-153450001D01*
X141131544Y-153450001D01*
X141185000Y-153181260D01*
X141185000Y-152888740D01*
X141127932Y-152601842D01*
X141015990Y-152331589D01*
X140853475Y-152088368D01*
X140721620Y-151956513D01*
X140794180Y-151934502D01*
X140904494Y-151875537D01*
X141001185Y-151796185D01*
X141080537Y-151699494D01*
X141139502Y-151589180D01*
X141175812Y-151469482D01*
X141188072Y-151345000D01*
X141188072Y-150526750D01*
X144716500Y-150526750D01*
X144728011Y-150630635D01*
X144766452Y-150749666D01*
X144827376Y-150858910D01*
X144908442Y-150954169D01*
X145006535Y-151031782D01*
X145117884Y-151088767D01*
X145238212Y-151122934D01*
X145362892Y-151132970D01*
X145637250Y-151130000D01*
X145796000Y-150971250D01*
X145796000Y-150368000D01*
X146050000Y-150368000D01*
X146050000Y-150971250D01*
X146208750Y-151130000D01*
X146483108Y-151132970D01*
X146607788Y-151122934D01*
X146728116Y-151088767D01*
X146839465Y-151031782D01*
X146937558Y-150954169D01*
X147018624Y-150858910D01*
X147079548Y-150749666D01*
X147117989Y-150630635D01*
X147129500Y-150526750D01*
X146970750Y-150368000D01*
X146050000Y-150368000D01*
X145796000Y-150368000D01*
X144875250Y-150368000D01*
X144716500Y-150526750D01*
X141188072Y-150526750D01*
X141188072Y-149645000D01*
X141175812Y-149520518D01*
X141139502Y-149400820D01*
X141080537Y-149290506D01*
X141001185Y-149193815D01*
X140904494Y-149114463D01*
X140794180Y-149055498D01*
X140674482Y-149019188D01*
X140550000Y-149006928D01*
X138850000Y-149006928D01*
X138725518Y-149019188D01*
X138605820Y-149055498D01*
X138495506Y-149114463D01*
X138398815Y-149193815D01*
X138319463Y-149290506D01*
X138260498Y-149400820D01*
X138238487Y-149473380D01*
X138106632Y-149341525D01*
X137863411Y-149179010D01*
X137593158Y-149067068D01*
X137306260Y-149010000D01*
X137013740Y-149010000D01*
X136726842Y-149067068D01*
X136456589Y-149179010D01*
X136213368Y-149341525D01*
X136006525Y-149548368D01*
X135890000Y-149722760D01*
X135773475Y-149548368D01*
X135566632Y-149341525D01*
X135323411Y-149179010D01*
X135053158Y-149067068D01*
X134766260Y-149010000D01*
X134473740Y-149010000D01*
X134186842Y-149067068D01*
X133916589Y-149179010D01*
X133673368Y-149341525D01*
X133466525Y-149548368D01*
X133350000Y-149722760D01*
X133233475Y-149548368D01*
X133026632Y-149341525D01*
X132969000Y-149303017D01*
X132969000Y-148808274D01*
X133034180Y-148788502D01*
X133096000Y-148755458D01*
X133157820Y-148788502D01*
X133277518Y-148824812D01*
X133402000Y-148837072D01*
X134902000Y-148837072D01*
X135026482Y-148824812D01*
X135146180Y-148788502D01*
X135256494Y-148729537D01*
X135353185Y-148650185D01*
X135402000Y-148590704D01*
X135450815Y-148650185D01*
X135547506Y-148729537D01*
X135657820Y-148788502D01*
X135777518Y-148824812D01*
X135902000Y-148837072D01*
X136366250Y-148834000D01*
X136525000Y-148675250D01*
X136525000Y-147701000D01*
X136779000Y-147701000D01*
X136779000Y-148675250D01*
X136937750Y-148834000D01*
X137402000Y-148837072D01*
X137526482Y-148824812D01*
X137646180Y-148788502D01*
X137756494Y-148729537D01*
X137853185Y-148650185D01*
X137932537Y-148553494D01*
X137991502Y-148443180D01*
X138027812Y-148323482D01*
X138040072Y-148199000D01*
X138037000Y-147859750D01*
X137878250Y-147701000D01*
X136779000Y-147701000D01*
X136525000Y-147701000D01*
X136505000Y-147701000D01*
X136505000Y-147447000D01*
X136525000Y-147447000D01*
X136525000Y-146472750D01*
X136779000Y-146472750D01*
X136779000Y-147447000D01*
X137878250Y-147447000D01*
X138037000Y-147288250D01*
X138040072Y-146949000D01*
X138027812Y-146824518D01*
X137991502Y-146704820D01*
X137932537Y-146594506D01*
X137853185Y-146497815D01*
X137756494Y-146418463D01*
X137646180Y-146359498D01*
X137526482Y-146323188D01*
X137402000Y-146310928D01*
X136937750Y-146314000D01*
X136779000Y-146472750D01*
X136525000Y-146472750D01*
X136366250Y-146314000D01*
X135902000Y-146310928D01*
X135777518Y-146323188D01*
X135657820Y-146359498D01*
X135547506Y-146418463D01*
X135450815Y-146497815D01*
X135402000Y-146557296D01*
X135353185Y-146497815D01*
X135256494Y-146418463D01*
X135146180Y-146359498D01*
X135041000Y-146327592D01*
X135041000Y-145372332D01*
X135086063Y-145439774D01*
G36*
X128155000Y-147288250D02*
G01*
X128313750Y-147447000D01*
X129413000Y-147447000D01*
X129413000Y-147427000D01*
X129667000Y-147427000D01*
X129667000Y-147447000D01*
X129687000Y-147447000D01*
X129687000Y-147701000D01*
X129667000Y-147701000D01*
X129667000Y-148675250D01*
X129825750Y-148834000D01*
X130290000Y-148837072D01*
X130414482Y-148824812D01*
X130534180Y-148788502D01*
X130644494Y-148729537D01*
X130741185Y-148650185D01*
X130790000Y-148590704D01*
X130838815Y-148650185D01*
X130935506Y-148729537D01*
X131045820Y-148788502D01*
X131165518Y-148824812D01*
X131191001Y-148827322D01*
X131191000Y-149303016D01*
X131133368Y-149341525D01*
X130926525Y-149548368D01*
X130764010Y-149791589D01*
X130652068Y-150061842D01*
X130595000Y-150348740D01*
X130595000Y-150641260D01*
X130648456Y-150910001D01*
X128057665Y-150910001D01*
X128087502Y-150854180D01*
X128123812Y-150734482D01*
X128136072Y-150610000D01*
X128136072Y-149110000D01*
X128123812Y-148985518D01*
X128087502Y-148865820D01*
X128028537Y-148755506D01*
X127949185Y-148658815D01*
X127889704Y-148610000D01*
X127949185Y-148561185D01*
X128028537Y-148464494D01*
X128087502Y-148354180D01*
X128123812Y-148234482D01*
X128127306Y-148199000D01*
X128151928Y-148199000D01*
X128164188Y-148323482D01*
X128200498Y-148443180D01*
X128259463Y-148553494D01*
X128338815Y-148650185D01*
X128435506Y-148729537D01*
X128545820Y-148788502D01*
X128665518Y-148824812D01*
X128790000Y-148837072D01*
X129254250Y-148834000D01*
X129413000Y-148675250D01*
X129413000Y-147701000D01*
X128313750Y-147701000D01*
X128155000Y-147859750D01*
X128151928Y-148199000D01*
X128127306Y-148199000D01*
X128136072Y-148110000D01*
X128136072Y-147229164D01*
X128154300Y-147210936D01*
X128155000Y-147288250D01*
G37*
X128155000Y-147288250D02*
X128313750Y-147447000D01*
X129413000Y-147447000D01*
X129413000Y-147427000D01*
X129667000Y-147427000D01*
X129667000Y-147447000D01*
X129687000Y-147447000D01*
X129687000Y-147701000D01*
X129667000Y-147701000D01*
X129667000Y-148675250D01*
X129825750Y-148834000D01*
X130290000Y-148837072D01*
X130414482Y-148824812D01*
X130534180Y-148788502D01*
X130644494Y-148729537D01*
X130741185Y-148650185D01*
X130790000Y-148590704D01*
X130838815Y-148650185D01*
X130935506Y-148729537D01*
X131045820Y-148788502D01*
X131165518Y-148824812D01*
X131191001Y-148827322D01*
X131191000Y-149303016D01*
X131133368Y-149341525D01*
X130926525Y-149548368D01*
X130764010Y-149791589D01*
X130652068Y-150061842D01*
X130595000Y-150348740D01*
X130595000Y-150641260D01*
X130648456Y-150910001D01*
X128057665Y-150910001D01*
X128087502Y-150854180D01*
X128123812Y-150734482D01*
X128136072Y-150610000D01*
X128136072Y-149110000D01*
X128123812Y-148985518D01*
X128087502Y-148865820D01*
X128028537Y-148755506D01*
X127949185Y-148658815D01*
X127889704Y-148610000D01*
X127949185Y-148561185D01*
X128028537Y-148464494D01*
X128087502Y-148354180D01*
X128123812Y-148234482D01*
X128127306Y-148199000D01*
X128151928Y-148199000D01*
X128164188Y-148323482D01*
X128200498Y-148443180D01*
X128259463Y-148553494D01*
X128338815Y-148650185D01*
X128435506Y-148729537D01*
X128545820Y-148788502D01*
X128665518Y-148824812D01*
X128790000Y-148837072D01*
X129254250Y-148834000D01*
X129413000Y-148675250D01*
X129413000Y-147701000D01*
X128313750Y-147701000D01*
X128155000Y-147859750D01*
X128151928Y-148199000D01*
X128127306Y-148199000D01*
X128136072Y-148110000D01*
X128136072Y-147229164D01*
X128154300Y-147210936D01*
X128155000Y-147288250D01*
G36*
X122666631Y-145501753D02*
G01*
X122821071Y-145584303D01*
X122949645Y-145623305D01*
X122988647Y-145635136D01*
X123005247Y-145636771D01*
X123119255Y-145648000D01*
X123119262Y-145648000D01*
X123162922Y-145652300D01*
X123206582Y-145648000D01*
X123583765Y-145648000D01*
X123917819Y-145982054D01*
X123815000Y-145971928D01*
X123475750Y-145975000D01*
X123317000Y-146133750D01*
X123317000Y-147233000D01*
X123337000Y-147233000D01*
X123337000Y-147487000D01*
X123317000Y-147487000D01*
X123317000Y-147507000D01*
X123063000Y-147507000D01*
X123063000Y-147487000D01*
X123043000Y-147487000D01*
X123043000Y-147233000D01*
X123063000Y-147233000D01*
X123063000Y-146133750D01*
X122904250Y-145975000D01*
X122565000Y-145971928D01*
X122440518Y-145984188D01*
X122413687Y-145992327D01*
X122386185Y-145958815D01*
X122289494Y-145879463D01*
X122179180Y-145820498D01*
X122059482Y-145784188D01*
X121935000Y-145771928D01*
X121570750Y-145775000D01*
X121412000Y-145933750D01*
X121412000Y-147033000D01*
X121432000Y-147033000D01*
X121432000Y-147287000D01*
X121412000Y-147287000D01*
X121412000Y-147307000D01*
X121158000Y-147307000D01*
X121158000Y-147287000D01*
X120158750Y-147287000D01*
X120000000Y-147445750D01*
X119996928Y-147910000D01*
X120009188Y-148034482D01*
X120045498Y-148154180D01*
X120104463Y-148264494D01*
X120183815Y-148361185D01*
X120280506Y-148440537D01*
X120390820Y-148499502D01*
X120425427Y-148510000D01*
X120390820Y-148520498D01*
X120280506Y-148579463D01*
X120183815Y-148658815D01*
X120104463Y-148755506D01*
X120045498Y-148865820D01*
X120009188Y-148985518D01*
X119998110Y-149098000D01*
X119652072Y-149098000D01*
X119652072Y-148950000D01*
X119639812Y-148825518D01*
X119603502Y-148705820D01*
X119544537Y-148595506D01*
X119465185Y-148498815D01*
X119368494Y-148419463D01*
X119258180Y-148360498D01*
X119138482Y-148324188D01*
X119014000Y-148311928D01*
X117714000Y-148311928D01*
X117611501Y-148322023D01*
X117611501Y-147596697D01*
X117619744Y-147602205D01*
X117808102Y-147680226D01*
X118008061Y-147720000D01*
X118211939Y-147720000D01*
X118411898Y-147680226D01*
X118600256Y-147602205D01*
X118769774Y-147488937D01*
X118913937Y-147344774D01*
X119027205Y-147175256D01*
X119105226Y-146986898D01*
X119115130Y-146937105D01*
X119642235Y-146410000D01*
X119996928Y-146410000D01*
X120000000Y-146874250D01*
X120158750Y-147033000D01*
X121158000Y-147033000D01*
X121158000Y-145933750D01*
X120999250Y-145775000D01*
X120635000Y-145771928D01*
X120510518Y-145784188D01*
X120390820Y-145820498D01*
X120280506Y-145879463D01*
X120183815Y-145958815D01*
X120104463Y-146055506D01*
X120045498Y-146165820D01*
X120009188Y-146285518D01*
X119996928Y-146410000D01*
X119642235Y-146410000D01*
X120602237Y-145449999D01*
X122603569Y-145449999D01*
X122666631Y-145501753D01*
G37*
X122666631Y-145501753D02*
X122821071Y-145584303D01*
X122949645Y-145623305D01*
X122988647Y-145635136D01*
X123005247Y-145636771D01*
X123119255Y-145648000D01*
X123119262Y-145648000D01*
X123162922Y-145652300D01*
X123206582Y-145648000D01*
X123583765Y-145648000D01*
X123917819Y-145982054D01*
X123815000Y-145971928D01*
X123475750Y-145975000D01*
X123317000Y-146133750D01*
X123317000Y-147233000D01*
X123337000Y-147233000D01*
X123337000Y-147487000D01*
X123317000Y-147487000D01*
X123317000Y-147507000D01*
X123063000Y-147507000D01*
X123063000Y-147487000D01*
X123043000Y-147487000D01*
X123043000Y-147233000D01*
X123063000Y-147233000D01*
X123063000Y-146133750D01*
X122904250Y-145975000D01*
X122565000Y-145971928D01*
X122440518Y-145984188D01*
X122413687Y-145992327D01*
X122386185Y-145958815D01*
X122289494Y-145879463D01*
X122179180Y-145820498D01*
X122059482Y-145784188D01*
X121935000Y-145771928D01*
X121570750Y-145775000D01*
X121412000Y-145933750D01*
X121412000Y-147033000D01*
X121432000Y-147033000D01*
X121432000Y-147287000D01*
X121412000Y-147287000D01*
X121412000Y-147307000D01*
X121158000Y-147307000D01*
X121158000Y-147287000D01*
X120158750Y-147287000D01*
X120000000Y-147445750D01*
X119996928Y-147910000D01*
X120009188Y-148034482D01*
X120045498Y-148154180D01*
X120104463Y-148264494D01*
X120183815Y-148361185D01*
X120280506Y-148440537D01*
X120390820Y-148499502D01*
X120425427Y-148510000D01*
X120390820Y-148520498D01*
X120280506Y-148579463D01*
X120183815Y-148658815D01*
X120104463Y-148755506D01*
X120045498Y-148865820D01*
X120009188Y-148985518D01*
X119998110Y-149098000D01*
X119652072Y-149098000D01*
X119652072Y-148950000D01*
X119639812Y-148825518D01*
X119603502Y-148705820D01*
X119544537Y-148595506D01*
X119465185Y-148498815D01*
X119368494Y-148419463D01*
X119258180Y-148360498D01*
X119138482Y-148324188D01*
X119014000Y-148311928D01*
X117714000Y-148311928D01*
X117611501Y-148322023D01*
X117611501Y-147596697D01*
X117619744Y-147602205D01*
X117808102Y-147680226D01*
X118008061Y-147720000D01*
X118211939Y-147720000D01*
X118411898Y-147680226D01*
X118600256Y-147602205D01*
X118769774Y-147488937D01*
X118913937Y-147344774D01*
X119027205Y-147175256D01*
X119105226Y-146986898D01*
X119115130Y-146937105D01*
X119642235Y-146410000D01*
X119996928Y-146410000D01*
X120000000Y-146874250D01*
X120158750Y-147033000D01*
X121158000Y-147033000D01*
X121158000Y-145933750D01*
X120999250Y-145775000D01*
X120635000Y-145771928D01*
X120510518Y-145784188D01*
X120390820Y-145820498D01*
X120280506Y-145879463D01*
X120183815Y-145958815D01*
X120104463Y-146055506D01*
X120045498Y-146165820D01*
X120009188Y-146285518D01*
X119996928Y-146410000D01*
X119642235Y-146410000D01*
X120602237Y-145449999D01*
X122603569Y-145449999D01*
X122666631Y-145501753D01*
G36*
X125984000Y-140188000D02*
G01*
X126004000Y-140188000D01*
X126004000Y-140442000D01*
X125984000Y-140442000D01*
X125984000Y-141541250D01*
X126142750Y-141700000D01*
X126482000Y-141703072D01*
X126606482Y-141690812D01*
X126726180Y-141654502D01*
X126836494Y-141595537D01*
X126933185Y-141516185D01*
X127012537Y-141419494D01*
X127071502Y-141309180D01*
X127107812Y-141189482D01*
X127120072Y-141065000D01*
X127117593Y-140690392D01*
X131718203Y-145291003D01*
X131742001Y-145320001D01*
X131770999Y-145343799D01*
X131857726Y-145414974D01*
X131919032Y-145447743D01*
X132055226Y-145583937D01*
X132224744Y-145697205D01*
X132413102Y-145775226D01*
X132613061Y-145815000D01*
X132816939Y-145815000D01*
X133016898Y-145775226D01*
X133205256Y-145697205D01*
X133263000Y-145658621D01*
X133263000Y-146327592D01*
X133157820Y-146359498D01*
X133096000Y-146392542D01*
X133034180Y-146359498D01*
X132914482Y-146323188D01*
X132790000Y-146310928D01*
X131909163Y-146310928D01*
X131102499Y-145504264D01*
X131074659Y-145470341D01*
X130939291Y-145359247D01*
X130784851Y-145276697D01*
X130617274Y-145225864D01*
X130486667Y-145213000D01*
X130486660Y-145213000D01*
X130443000Y-145208700D01*
X130399340Y-145213000D01*
X128049660Y-145213000D01*
X128006000Y-145208700D01*
X127962340Y-145213000D01*
X127962333Y-145213000D01*
X127848325Y-145224229D01*
X127831725Y-145225864D01*
X127758758Y-145247998D01*
X127664149Y-145276697D01*
X127509709Y-145359247D01*
X127374341Y-145470341D01*
X127346505Y-145504259D01*
X126878836Y-145971928D01*
X126248000Y-145971928D01*
X126210017Y-145975669D01*
X126196185Y-145958815D01*
X126099494Y-145879463D01*
X125989180Y-145820498D01*
X125979999Y-145817713D01*
X125971136Y-145727726D01*
X125971136Y-145727724D01*
X125927630Y-145584303D01*
X125920303Y-145560149D01*
X125837753Y-145405709D01*
X125726659Y-145270341D01*
X125692741Y-145242505D01*
X124841000Y-144390765D01*
X124841000Y-141643908D01*
X124904500Y-141609966D01*
X124987820Y-141654502D01*
X125107518Y-141690812D01*
X125232000Y-141703072D01*
X125571250Y-141700000D01*
X125730000Y-141541250D01*
X125730000Y-140442000D01*
X125710000Y-140442000D01*
X125710000Y-140188000D01*
X125730000Y-140188000D01*
X125730000Y-140168000D01*
X125984000Y-140168000D01*
X125984000Y-140188000D01*
G37*
X125984000Y-140188000D02*
X126004000Y-140188000D01*
X126004000Y-140442000D01*
X125984000Y-140442000D01*
X125984000Y-141541250D01*
X126142750Y-141700000D01*
X126482000Y-141703072D01*
X126606482Y-141690812D01*
X126726180Y-141654502D01*
X126836494Y-141595537D01*
X126933185Y-141516185D01*
X127012537Y-141419494D01*
X127071502Y-141309180D01*
X127107812Y-141189482D01*
X127120072Y-141065000D01*
X127117593Y-140690392D01*
X131718203Y-145291003D01*
X131742001Y-145320001D01*
X131770999Y-145343799D01*
X131857726Y-145414974D01*
X131919032Y-145447743D01*
X132055226Y-145583937D01*
X132224744Y-145697205D01*
X132413102Y-145775226D01*
X132613061Y-145815000D01*
X132816939Y-145815000D01*
X133016898Y-145775226D01*
X133205256Y-145697205D01*
X133263000Y-145658621D01*
X133263000Y-146327592D01*
X133157820Y-146359498D01*
X133096000Y-146392542D01*
X133034180Y-146359498D01*
X132914482Y-146323188D01*
X132790000Y-146310928D01*
X131909163Y-146310928D01*
X131102499Y-145504264D01*
X131074659Y-145470341D01*
X130939291Y-145359247D01*
X130784851Y-145276697D01*
X130617274Y-145225864D01*
X130486667Y-145213000D01*
X130486660Y-145213000D01*
X130443000Y-145208700D01*
X130399340Y-145213000D01*
X128049660Y-145213000D01*
X128006000Y-145208700D01*
X127962340Y-145213000D01*
X127962333Y-145213000D01*
X127848325Y-145224229D01*
X127831725Y-145225864D01*
X127758758Y-145247998D01*
X127664149Y-145276697D01*
X127509709Y-145359247D01*
X127374341Y-145470341D01*
X127346505Y-145504259D01*
X126878836Y-145971928D01*
X126248000Y-145971928D01*
X126210017Y-145975669D01*
X126196185Y-145958815D01*
X126099494Y-145879463D01*
X125989180Y-145820498D01*
X125979999Y-145817713D01*
X125971136Y-145727726D01*
X125971136Y-145727724D01*
X125927630Y-145584303D01*
X125920303Y-145560149D01*
X125837753Y-145405709D01*
X125726659Y-145270341D01*
X125692741Y-145242505D01*
X124841000Y-144390765D01*
X124841000Y-141643908D01*
X124904500Y-141609966D01*
X124987820Y-141654502D01*
X125107518Y-141690812D01*
X125232000Y-141703072D01*
X125571250Y-141700000D01*
X125730000Y-141541250D01*
X125730000Y-140442000D01*
X125710000Y-140442000D01*
X125710000Y-140188000D01*
X125730000Y-140188000D01*
X125730000Y-140168000D01*
X125984000Y-140168000D01*
X125984000Y-140188000D01*
G36*
X147995000Y-144653000D02*
G01*
X148015000Y-144653000D01*
X148015000Y-144907000D01*
X147995000Y-144907000D01*
X147995000Y-144927000D01*
X147741000Y-144927000D01*
X147741000Y-144907000D01*
X147721000Y-144907000D01*
X147721000Y-144653000D01*
X147741000Y-144653000D01*
X147741000Y-144633000D01*
X147995000Y-144633000D01*
X147995000Y-144653000D01*
G37*
X147995000Y-144653000D02*
X148015000Y-144653000D01*
X148015000Y-144907000D01*
X147995000Y-144907000D01*
X147995000Y-144927000D01*
X147741000Y-144927000D01*
X147741000Y-144907000D01*
X147721000Y-144907000D01*
X147721000Y-144653000D01*
X147741000Y-144653000D01*
X147741000Y-144633000D01*
X147995000Y-144633000D01*
X147995000Y-144653000D01*
G36*
X129551705Y-139322008D02*
G01*
X129575499Y-139351001D01*
X129604492Y-139374795D01*
X129604496Y-139374799D01*
X129658958Y-139419494D01*
X129691224Y-139445974D01*
X129814248Y-139511733D01*
X129780452Y-139572334D01*
X129742011Y-139691365D01*
X129730500Y-139795250D01*
X129889250Y-139954000D01*
X130810000Y-139954000D01*
X130810000Y-139934000D01*
X131064000Y-139934000D01*
X131064000Y-139954000D01*
X131984750Y-139954000D01*
X132143500Y-139795250D01*
X132131989Y-139691365D01*
X132093548Y-139572334D01*
X132032624Y-139463090D01*
X132017675Y-139445524D01*
X132039037Y-139419494D01*
X132098002Y-139309180D01*
X132134312Y-139189482D01*
X132146572Y-139065000D01*
X132146572Y-138557000D01*
X134580001Y-138557000D01*
X134580000Y-140993592D01*
X134474820Y-141025498D01*
X134364506Y-141084463D01*
X134267815Y-141163815D01*
X134219000Y-141223296D01*
X134170185Y-141163815D01*
X134073494Y-141084463D01*
X133963180Y-141025498D01*
X133843482Y-140989188D01*
X133719000Y-140976928D01*
X133254750Y-140980000D01*
X133096000Y-141138750D01*
X133096000Y-142113000D01*
X133116000Y-142113000D01*
X133116000Y-142367000D01*
X133096000Y-142367000D01*
X133096000Y-143341250D01*
X133254750Y-143500000D01*
X133263001Y-143500055D01*
X133263001Y-143901379D01*
X133205256Y-143862795D01*
X133016898Y-143784774D01*
X132816939Y-143745000D01*
X132613061Y-143745000D01*
X132413102Y-143784774D01*
X132376669Y-143799865D01*
X132055902Y-143479098D01*
X132094518Y-143490812D01*
X132219000Y-143503072D01*
X132683250Y-143500000D01*
X132842000Y-143341250D01*
X132842000Y-142367000D01*
X131742750Y-142367000D01*
X131584000Y-142525750D01*
X131580928Y-142865000D01*
X131593188Y-142989482D01*
X131604902Y-143028098D01*
X130191804Y-141615000D01*
X131580928Y-141615000D01*
X131584000Y-141954250D01*
X131742750Y-142113000D01*
X132842000Y-142113000D01*
X132842000Y-141138750D01*
X132683250Y-140980000D01*
X132219000Y-140976928D01*
X132094518Y-140989188D01*
X131974820Y-141025498D01*
X131864506Y-141084463D01*
X131767815Y-141163815D01*
X131688463Y-141260506D01*
X131629498Y-141370820D01*
X131593188Y-141490518D01*
X131580928Y-141615000D01*
X130191804Y-141615000D01*
X128943554Y-140366750D01*
X129730500Y-140366750D01*
X129742011Y-140470635D01*
X129780452Y-140589666D01*
X129841376Y-140698910D01*
X129922442Y-140794169D01*
X130020535Y-140871782D01*
X130131884Y-140928767D01*
X130252212Y-140962934D01*
X130376892Y-140972970D01*
X130651250Y-140970000D01*
X130810000Y-140811250D01*
X130810000Y-140208000D01*
X131064000Y-140208000D01*
X131064000Y-140811250D01*
X131222750Y-140970000D01*
X131497108Y-140972970D01*
X131621788Y-140962934D01*
X131742116Y-140928767D01*
X131853465Y-140871782D01*
X131951558Y-140794169D01*
X132032624Y-140698910D01*
X132093548Y-140589666D01*
X132131989Y-140470635D01*
X132143500Y-140366750D01*
X131984750Y-140208000D01*
X131064000Y-140208000D01*
X130810000Y-140208000D01*
X129889250Y-140208000D01*
X129730500Y-140366750D01*
X128943554Y-140366750D01*
X127133803Y-138557000D01*
X128786698Y-138557000D01*
X129551705Y-139322008D01*
G37*
X129551705Y-139322008D02*
X129575499Y-139351001D01*
X129604492Y-139374795D01*
X129604496Y-139374799D01*
X129658958Y-139419494D01*
X129691224Y-139445974D01*
X129814248Y-139511733D01*
X129780452Y-139572334D01*
X129742011Y-139691365D01*
X129730500Y-139795250D01*
X129889250Y-139954000D01*
X130810000Y-139954000D01*
X130810000Y-139934000D01*
X131064000Y-139934000D01*
X131064000Y-139954000D01*
X131984750Y-139954000D01*
X132143500Y-139795250D01*
X132131989Y-139691365D01*
X132093548Y-139572334D01*
X132032624Y-139463090D01*
X132017675Y-139445524D01*
X132039037Y-139419494D01*
X132098002Y-139309180D01*
X132134312Y-139189482D01*
X132146572Y-139065000D01*
X132146572Y-138557000D01*
X134580001Y-138557000D01*
X134580000Y-140993592D01*
X134474820Y-141025498D01*
X134364506Y-141084463D01*
X134267815Y-141163815D01*
X134219000Y-141223296D01*
X134170185Y-141163815D01*
X134073494Y-141084463D01*
X133963180Y-141025498D01*
X133843482Y-140989188D01*
X133719000Y-140976928D01*
X133254750Y-140980000D01*
X133096000Y-141138750D01*
X133096000Y-142113000D01*
X133116000Y-142113000D01*
X133116000Y-142367000D01*
X133096000Y-142367000D01*
X133096000Y-143341250D01*
X133254750Y-143500000D01*
X133263001Y-143500055D01*
X133263001Y-143901379D01*
X133205256Y-143862795D01*
X133016898Y-143784774D01*
X132816939Y-143745000D01*
X132613061Y-143745000D01*
X132413102Y-143784774D01*
X132376669Y-143799865D01*
X132055902Y-143479098D01*
X132094518Y-143490812D01*
X132219000Y-143503072D01*
X132683250Y-143500000D01*
X132842000Y-143341250D01*
X132842000Y-142367000D01*
X131742750Y-142367000D01*
X131584000Y-142525750D01*
X131580928Y-142865000D01*
X131593188Y-142989482D01*
X131604902Y-143028098D01*
X130191804Y-141615000D01*
X131580928Y-141615000D01*
X131584000Y-141954250D01*
X131742750Y-142113000D01*
X132842000Y-142113000D01*
X132842000Y-141138750D01*
X132683250Y-140980000D01*
X132219000Y-140976928D01*
X132094518Y-140989188D01*
X131974820Y-141025498D01*
X131864506Y-141084463D01*
X131767815Y-141163815D01*
X131688463Y-141260506D01*
X131629498Y-141370820D01*
X131593188Y-141490518D01*
X131580928Y-141615000D01*
X130191804Y-141615000D01*
X128943554Y-140366750D01*
X129730500Y-140366750D01*
X129742011Y-140470635D01*
X129780452Y-140589666D01*
X129841376Y-140698910D01*
X129922442Y-140794169D01*
X130020535Y-140871782D01*
X130131884Y-140928767D01*
X130252212Y-140962934D01*
X130376892Y-140972970D01*
X130651250Y-140970000D01*
X130810000Y-140811250D01*
X130810000Y-140208000D01*
X131064000Y-140208000D01*
X131064000Y-140811250D01*
X131222750Y-140970000D01*
X131497108Y-140972970D01*
X131621788Y-140962934D01*
X131742116Y-140928767D01*
X131853465Y-140871782D01*
X131951558Y-140794169D01*
X132032624Y-140698910D01*
X132093548Y-140589666D01*
X132131989Y-140470635D01*
X132143500Y-140366750D01*
X131984750Y-140208000D01*
X131064000Y-140208000D01*
X130810000Y-140208000D01*
X129889250Y-140208000D01*
X129730500Y-140366750D01*
X128943554Y-140366750D01*
X127133803Y-138557000D01*
X128786698Y-138557000D01*
X129551705Y-139322008D01*
G36*
X149870000Y-138799250D02*
G01*
X150028750Y-138958000D01*
X151003000Y-138958000D01*
X151003000Y-138938000D01*
X151257000Y-138938000D01*
X151257000Y-138958000D01*
X152231250Y-138958000D01*
X152329974Y-138859276D01*
X152792705Y-139322008D01*
X152816499Y-139351001D01*
X152845492Y-139374795D01*
X152845496Y-139374799D01*
X152899958Y-139419494D01*
X152932224Y-139445974D01*
X153055248Y-139511733D01*
X153021452Y-139572334D01*
X152983011Y-139691365D01*
X152971500Y-139795250D01*
X153130250Y-139954000D01*
X154051000Y-139954000D01*
X154051000Y-139934000D01*
X154305000Y-139934000D01*
X154305000Y-139954000D01*
X154325000Y-139954000D01*
X154325000Y-140208000D01*
X154305000Y-140208000D01*
X154305000Y-140228000D01*
X154051000Y-140228000D01*
X154051000Y-140208000D01*
X153130250Y-140208000D01*
X152971500Y-140366750D01*
X152983011Y-140470635D01*
X153021452Y-140589666D01*
X153080753Y-140696000D01*
X152376408Y-140696000D01*
X152344502Y-140590820D01*
X152285537Y-140480506D01*
X152206185Y-140383815D01*
X152146704Y-140335000D01*
X152206185Y-140286185D01*
X152285537Y-140189494D01*
X152344502Y-140079180D01*
X152380812Y-139959482D01*
X152393072Y-139835000D01*
X152390000Y-139370750D01*
X152231250Y-139212000D01*
X151257000Y-139212000D01*
X151257000Y-139232000D01*
X151003000Y-139232000D01*
X151003000Y-139212000D01*
X150028750Y-139212000D01*
X149870000Y-139370750D01*
X149866928Y-139835000D01*
X149879188Y-139959482D01*
X149915498Y-140079180D01*
X149974463Y-140189494D01*
X150053815Y-140286185D01*
X150113296Y-140335000D01*
X150053815Y-140383815D01*
X149974463Y-140480506D01*
X149915498Y-140590820D01*
X149883592Y-140696000D01*
X148024738Y-140696000D01*
X147981078Y-140691700D01*
X147937418Y-140696000D01*
X147937411Y-140696000D01*
X147823403Y-140707229D01*
X147806803Y-140708864D01*
X147783236Y-140716013D01*
X147639227Y-140759697D01*
X147639225Y-140759698D01*
X147637927Y-140760392D01*
X147484787Y-140842247D01*
X147349419Y-140953341D01*
X147321583Y-140987259D01*
X146957843Y-141351000D01*
X145107461Y-141351000D01*
X145140226Y-141271898D01*
X145180000Y-141071939D01*
X145180000Y-141012630D01*
X145292347Y-140900283D01*
X145321422Y-140876422D01*
X145395181Y-140786546D01*
X145416645Y-140760393D01*
X145465975Y-140668102D01*
X145487402Y-140628015D01*
X145530974Y-140484378D01*
X145542000Y-140372426D01*
X145542000Y-140372423D01*
X145545686Y-140335000D01*
X145542000Y-140297577D01*
X145542000Y-138557000D01*
X149868397Y-138557000D01*
X149870000Y-138799250D01*
G37*
X149870000Y-138799250D02*
X150028750Y-138958000D01*
X151003000Y-138958000D01*
X151003000Y-138938000D01*
X151257000Y-138938000D01*
X151257000Y-138958000D01*
X152231250Y-138958000D01*
X152329974Y-138859276D01*
X152792705Y-139322008D01*
X152816499Y-139351001D01*
X152845492Y-139374795D01*
X152845496Y-139374799D01*
X152899958Y-139419494D01*
X152932224Y-139445974D01*
X153055248Y-139511733D01*
X153021452Y-139572334D01*
X152983011Y-139691365D01*
X152971500Y-139795250D01*
X153130250Y-139954000D01*
X154051000Y-139954000D01*
X154051000Y-139934000D01*
X154305000Y-139934000D01*
X154305000Y-139954000D01*
X154325000Y-139954000D01*
X154325000Y-140208000D01*
X154305000Y-140208000D01*
X154305000Y-140228000D01*
X154051000Y-140228000D01*
X154051000Y-140208000D01*
X153130250Y-140208000D01*
X152971500Y-140366750D01*
X152983011Y-140470635D01*
X153021452Y-140589666D01*
X153080753Y-140696000D01*
X152376408Y-140696000D01*
X152344502Y-140590820D01*
X152285537Y-140480506D01*
X152206185Y-140383815D01*
X152146704Y-140335000D01*
X152206185Y-140286185D01*
X152285537Y-140189494D01*
X152344502Y-140079180D01*
X152380812Y-139959482D01*
X152393072Y-139835000D01*
X152390000Y-139370750D01*
X152231250Y-139212000D01*
X151257000Y-139212000D01*
X151257000Y-139232000D01*
X151003000Y-139232000D01*
X151003000Y-139212000D01*
X150028750Y-139212000D01*
X149870000Y-139370750D01*
X149866928Y-139835000D01*
X149879188Y-139959482D01*
X149915498Y-140079180D01*
X149974463Y-140189494D01*
X150053815Y-140286185D01*
X150113296Y-140335000D01*
X150053815Y-140383815D01*
X149974463Y-140480506D01*
X149915498Y-140590820D01*
X149883592Y-140696000D01*
X148024738Y-140696000D01*
X147981078Y-140691700D01*
X147937418Y-140696000D01*
X147937411Y-140696000D01*
X147823403Y-140707229D01*
X147806803Y-140708864D01*
X147783236Y-140716013D01*
X147639227Y-140759697D01*
X147639225Y-140759698D01*
X147637927Y-140760392D01*
X147484787Y-140842247D01*
X147349419Y-140953341D01*
X147321583Y-140987259D01*
X146957843Y-141351000D01*
X145107461Y-141351000D01*
X145140226Y-141271898D01*
X145180000Y-141071939D01*
X145180000Y-141012630D01*
X145292347Y-140900283D01*
X145321422Y-140876422D01*
X145395181Y-140786546D01*
X145416645Y-140760393D01*
X145465975Y-140668102D01*
X145487402Y-140628015D01*
X145530974Y-140484378D01*
X145542000Y-140372426D01*
X145542000Y-140372423D01*
X145545686Y-140335000D01*
X145542000Y-140297577D01*
X145542000Y-138557000D01*
X149868397Y-138557000D01*
X149870000Y-138799250D01*
M02*
