G04 #@! TF.GenerationSoftware,KiCad,Pcbnew,5.1.5-52549c5~86~ubuntu18.04.1*
G04 #@! TF.CreationDate,2020-05-17T18:15:10-04:00*
G04 #@! TF.ProjectId,RX EQ Shield,52582045-5120-4536-9869-656c642e6b69,rev?*
G04 #@! TF.SameCoordinates,Original*
G04 #@! TF.FileFunction,Legend,Bot*
G04 #@! TF.FilePolarity,Positive*
%FSLAX46Y46*%
G04 Gerber Fmt 4.6, Leading zero omitted, Abs format (unit mm)*
G04 Created by KiCad (PCBNEW 5.1.5-52549c5~86~ubuntu18.04.1) date 2020-05-17 18:15:10*
%MOMM*%
%LPD*%
G04 APERTURE LIST*
%ADD10C,0.150000*%
%ADD11C,0.010000*%
G04 APERTURE END LIST*
D10*
X121482857Y-149853571D02*
X121340000Y-149901190D01*
X121292380Y-149948809D01*
X121244761Y-150044047D01*
X121244761Y-150186904D01*
X121292380Y-150282142D01*
X121340000Y-150329761D01*
X121435238Y-150377380D01*
X121816190Y-150377380D01*
X121816190Y-149377380D01*
X121482857Y-149377380D01*
X121387619Y-149425000D01*
X121340000Y-149472619D01*
X121292380Y-149567857D01*
X121292380Y-149663095D01*
X121340000Y-149758333D01*
X121387619Y-149805952D01*
X121482857Y-149853571D01*
X121816190Y-149853571D01*
X120959047Y-149377380D02*
X120625714Y-150377380D01*
X120292380Y-149377380D01*
X119959047Y-150377380D02*
X119959047Y-149377380D01*
X119959047Y-149853571D02*
X119387619Y-149853571D01*
X119387619Y-150377380D02*
X119387619Y-149377380D01*
X118149523Y-149996428D02*
X117387619Y-149996428D01*
X116197142Y-150091666D02*
X115720952Y-150091666D01*
X116292380Y-150377380D02*
X115959047Y-149377380D01*
X115625714Y-150377380D01*
X114959047Y-149853571D02*
X114816190Y-149901190D01*
X114768571Y-149948809D01*
X114720952Y-150044047D01*
X114720952Y-150186904D01*
X114768571Y-150282142D01*
X114816190Y-150329761D01*
X114911428Y-150377380D01*
X115292380Y-150377380D01*
X115292380Y-149377380D01*
X114959047Y-149377380D01*
X114863809Y-149425000D01*
X114816190Y-149472619D01*
X114768571Y-149567857D01*
X114768571Y-149663095D01*
X114816190Y-149758333D01*
X114863809Y-149805952D01*
X114959047Y-149853571D01*
X115292380Y-149853571D01*
X113863809Y-149710714D02*
X113863809Y-150377380D01*
X114101904Y-149329761D02*
X114340000Y-150044047D01*
X113720952Y-150044047D01*
X113340000Y-149853571D02*
X113006666Y-149853571D01*
X112863809Y-150377380D02*
X113340000Y-150377380D01*
X113340000Y-149377380D01*
X112863809Y-149377380D01*
X112435238Y-150377380D02*
X112435238Y-149377380D01*
X111863809Y-150377380D01*
X111863809Y-149377380D01*
X123649523Y-151027380D02*
X123030476Y-151027380D01*
X123363809Y-151408333D01*
X123220952Y-151408333D01*
X123125714Y-151455952D01*
X123078095Y-151503571D01*
X123030476Y-151598809D01*
X123030476Y-151836904D01*
X123078095Y-151932142D01*
X123125714Y-151979761D01*
X123220952Y-152027380D01*
X123506666Y-152027380D01*
X123601904Y-151979761D01*
X123649523Y-151932142D01*
X121268571Y-151932142D02*
X121316190Y-151979761D01*
X121459047Y-152027380D01*
X121554285Y-152027380D01*
X121697142Y-151979761D01*
X121792380Y-151884523D01*
X121840000Y-151789285D01*
X121887619Y-151598809D01*
X121887619Y-151455952D01*
X121840000Y-151265476D01*
X121792380Y-151170238D01*
X121697142Y-151075000D01*
X121554285Y-151027380D01*
X121459047Y-151027380D01*
X121316190Y-151075000D01*
X121268571Y-151122619D01*
X120840000Y-152027380D02*
X120840000Y-151027380D01*
X120411428Y-152027380D02*
X120411428Y-151503571D01*
X120459047Y-151408333D01*
X120554285Y-151360714D01*
X120697142Y-151360714D01*
X120792380Y-151408333D01*
X120840000Y-151455952D01*
X119506666Y-152027380D02*
X119506666Y-151503571D01*
X119554285Y-151408333D01*
X119649523Y-151360714D01*
X119840000Y-151360714D01*
X119935238Y-151408333D01*
X119506666Y-151979761D02*
X119601904Y-152027380D01*
X119840000Y-152027380D01*
X119935238Y-151979761D01*
X119982857Y-151884523D01*
X119982857Y-151789285D01*
X119935238Y-151694047D01*
X119840000Y-151646428D01*
X119601904Y-151646428D01*
X119506666Y-151598809D01*
X119030476Y-151360714D02*
X119030476Y-152027380D01*
X119030476Y-151455952D02*
X118982857Y-151408333D01*
X118887619Y-151360714D01*
X118744761Y-151360714D01*
X118649523Y-151408333D01*
X118601904Y-151503571D01*
X118601904Y-152027380D01*
X118125714Y-151360714D02*
X118125714Y-152027380D01*
X118125714Y-151455952D02*
X118078095Y-151408333D01*
X117982857Y-151360714D01*
X117840000Y-151360714D01*
X117744761Y-151408333D01*
X117697142Y-151503571D01*
X117697142Y-152027380D01*
X116840000Y-151979761D02*
X116935238Y-152027380D01*
X117125714Y-152027380D01*
X117220952Y-151979761D01*
X117268571Y-151884523D01*
X117268571Y-151503571D01*
X117220952Y-151408333D01*
X117125714Y-151360714D01*
X116935238Y-151360714D01*
X116840000Y-151408333D01*
X116792380Y-151503571D01*
X116792380Y-151598809D01*
X117268571Y-151694047D01*
X116220952Y-152027380D02*
X116316190Y-151979761D01*
X116363809Y-151884523D01*
X116363809Y-151027380D01*
X114506666Y-152027380D02*
X114840000Y-151551190D01*
X115078095Y-152027380D02*
X115078095Y-151027380D01*
X114697142Y-151027380D01*
X114601904Y-151075000D01*
X114554285Y-151122619D01*
X114506666Y-151217857D01*
X114506666Y-151360714D01*
X114554285Y-151455952D01*
X114601904Y-151503571D01*
X114697142Y-151551190D01*
X115078095Y-151551190D01*
X114173333Y-151027380D02*
X113506666Y-152027380D01*
X113506666Y-151027380D02*
X114173333Y-152027380D01*
X112363809Y-151503571D02*
X112030476Y-151503571D01*
X111887619Y-152027380D02*
X112363809Y-152027380D01*
X112363809Y-151027380D01*
X111887619Y-151027380D01*
X110792380Y-152122619D02*
X110887619Y-152075000D01*
X110982857Y-151979761D01*
X111125714Y-151836904D01*
X111220952Y-151789285D01*
X111316190Y-151789285D01*
X111268571Y-152027380D02*
X111363809Y-151979761D01*
X111459047Y-151884523D01*
X111506666Y-151694047D01*
X111506666Y-151360714D01*
X111459047Y-151170238D01*
X111363809Y-151075000D01*
X111268571Y-151027380D01*
X111078095Y-151027380D01*
X110982857Y-151075000D01*
X110887619Y-151170238D01*
X110840000Y-151360714D01*
X110840000Y-151694047D01*
X110887619Y-151884523D01*
X110982857Y-151979761D01*
X111078095Y-152027380D01*
X111268571Y-152027380D01*
X127125714Y-153010714D02*
X126744761Y-153010714D01*
X126982857Y-153677380D02*
X126982857Y-152820238D01*
X126935238Y-152725000D01*
X126840000Y-152677380D01*
X126744761Y-152677380D01*
X126268571Y-153677380D02*
X126363809Y-153629761D01*
X126411428Y-153582142D01*
X126459047Y-153486904D01*
X126459047Y-153201190D01*
X126411428Y-153105952D01*
X126363809Y-153058333D01*
X126268571Y-153010714D01*
X126125714Y-153010714D01*
X126030476Y-153058333D01*
X125982857Y-153105952D01*
X125935238Y-153201190D01*
X125935238Y-153486904D01*
X125982857Y-153582142D01*
X126030476Y-153629761D01*
X126125714Y-153677380D01*
X126268571Y-153677380D01*
X125506666Y-153677380D02*
X125506666Y-153010714D01*
X125506666Y-153201190D02*
X125459047Y-153105952D01*
X125411428Y-153058333D01*
X125316190Y-153010714D01*
X125220952Y-153010714D01*
X123792380Y-153153571D02*
X124125714Y-153153571D01*
X124125714Y-153677380D02*
X124125714Y-152677380D01*
X123649523Y-152677380D01*
X123411428Y-152677380D02*
X122840000Y-152677380D01*
X123125714Y-153677380D02*
X123125714Y-152677380D01*
X122506666Y-153296428D02*
X121744761Y-153296428D01*
X121125714Y-153105952D02*
X121220952Y-153058333D01*
X121268571Y-153010714D01*
X121316190Y-152915476D01*
X121316190Y-152867857D01*
X121268571Y-152772619D01*
X121220952Y-152725000D01*
X121125714Y-152677380D01*
X120935238Y-152677380D01*
X120840000Y-152725000D01*
X120792380Y-152772619D01*
X120744761Y-152867857D01*
X120744761Y-152915476D01*
X120792380Y-153010714D01*
X120840000Y-153058333D01*
X120935238Y-153105952D01*
X121125714Y-153105952D01*
X121220952Y-153153571D01*
X121268571Y-153201190D01*
X121316190Y-153296428D01*
X121316190Y-153486904D01*
X121268571Y-153582142D01*
X121220952Y-153629761D01*
X121125714Y-153677380D01*
X120935238Y-153677380D01*
X120840000Y-153629761D01*
X120792380Y-153582142D01*
X120744761Y-153486904D01*
X120744761Y-153296428D01*
X120792380Y-153201190D01*
X120840000Y-153153571D01*
X120935238Y-153105952D01*
X120268571Y-153677380D02*
X120078095Y-153677380D01*
X119982857Y-153629761D01*
X119935238Y-153582142D01*
X119840000Y-153439285D01*
X119792380Y-153248809D01*
X119792380Y-152867857D01*
X119840000Y-152772619D01*
X119887619Y-152725000D01*
X119982857Y-152677380D01*
X120173333Y-152677380D01*
X120268571Y-152725000D01*
X120316190Y-152772619D01*
X120363809Y-152867857D01*
X120363809Y-153105952D01*
X120316190Y-153201190D01*
X120268571Y-153248809D01*
X120173333Y-153296428D01*
X119982857Y-153296428D01*
X119887619Y-153248809D01*
X119840000Y-153201190D01*
X119792380Y-153105952D01*
X118840000Y-153677380D02*
X119411428Y-153677380D01*
X119125714Y-153677380D02*
X119125714Y-152677380D01*
X119220952Y-152820238D01*
X119316190Y-152915476D01*
X119411428Y-152963095D01*
X117697142Y-153391666D02*
X117220952Y-153391666D01*
X117792380Y-153677380D02*
X117459047Y-152677380D01*
X117125714Y-153677380D01*
X116363809Y-153010714D02*
X116363809Y-153677380D01*
X116792380Y-153010714D02*
X116792380Y-153534523D01*
X116744761Y-153629761D01*
X116649523Y-153677380D01*
X116506666Y-153677380D01*
X116411428Y-153629761D01*
X116363809Y-153582142D01*
X115459047Y-153677380D02*
X115459047Y-152677380D01*
X115459047Y-153629761D02*
X115554285Y-153677380D01*
X115744761Y-153677380D01*
X115840000Y-153629761D01*
X115887619Y-153582142D01*
X115935238Y-153486904D01*
X115935238Y-153201190D01*
X115887619Y-153105952D01*
X115840000Y-153058333D01*
X115744761Y-153010714D01*
X115554285Y-153010714D01*
X115459047Y-153058333D01*
X114982857Y-153677380D02*
X114982857Y-153010714D01*
X114982857Y-152677380D02*
X115030476Y-152725000D01*
X114982857Y-152772619D01*
X114935238Y-152725000D01*
X114982857Y-152677380D01*
X114982857Y-152772619D01*
X114363809Y-153677380D02*
X114459047Y-153629761D01*
X114506666Y-153582142D01*
X114554285Y-153486904D01*
X114554285Y-153201190D01*
X114506666Y-153105952D01*
X114459047Y-153058333D01*
X114363809Y-153010714D01*
X114220952Y-153010714D01*
X114125714Y-153058333D01*
X114078095Y-153105952D01*
X114030476Y-153201190D01*
X114030476Y-153486904D01*
X114078095Y-153582142D01*
X114125714Y-153629761D01*
X114220952Y-153677380D01*
X114363809Y-153677380D01*
X112840000Y-153677380D02*
X112840000Y-152677380D01*
X112363809Y-153010714D02*
X112363809Y-153677380D01*
X112363809Y-153105952D02*
X112316190Y-153058333D01*
X112220952Y-153010714D01*
X112078095Y-153010714D01*
X111982857Y-153058333D01*
X111935238Y-153153571D01*
X111935238Y-153677380D01*
X111601904Y-153010714D02*
X111220952Y-153010714D01*
X111459047Y-152677380D02*
X111459047Y-153534523D01*
X111411428Y-153629761D01*
X111316190Y-153677380D01*
X111220952Y-153677380D01*
X110506666Y-153629761D02*
X110601904Y-153677380D01*
X110792380Y-153677380D01*
X110887619Y-153629761D01*
X110935238Y-153534523D01*
X110935238Y-153153571D01*
X110887619Y-153058333D01*
X110792380Y-153010714D01*
X110601904Y-153010714D01*
X110506666Y-153058333D01*
X110459047Y-153153571D01*
X110459047Y-153248809D01*
X110935238Y-153344047D01*
X110030476Y-153677380D02*
X110030476Y-153010714D01*
X110030476Y-153201190D02*
X109982857Y-153105952D01*
X109935238Y-153058333D01*
X109840000Y-153010714D01*
X109744761Y-153010714D01*
X109554285Y-153010714D02*
X109173333Y-153010714D01*
X109411428Y-153677380D02*
X109411428Y-152820238D01*
X109363809Y-152725000D01*
X109268571Y-152677380D01*
X109173333Y-152677380D01*
X108411428Y-153677380D02*
X108411428Y-153153571D01*
X108459047Y-153058333D01*
X108554285Y-153010714D01*
X108744761Y-153010714D01*
X108840000Y-153058333D01*
X108411428Y-153629761D02*
X108506666Y-153677380D01*
X108744761Y-153677380D01*
X108840000Y-153629761D01*
X108887619Y-153534523D01*
X108887619Y-153439285D01*
X108840000Y-153344047D01*
X108744761Y-153296428D01*
X108506666Y-153296428D01*
X108411428Y-153248809D01*
X107506666Y-153629761D02*
X107601904Y-153677380D01*
X107792380Y-153677380D01*
X107887619Y-153629761D01*
X107935238Y-153582142D01*
X107982857Y-153486904D01*
X107982857Y-153201190D01*
X107935238Y-153105952D01*
X107887619Y-153058333D01*
X107792380Y-153010714D01*
X107601904Y-153010714D01*
X107506666Y-153058333D01*
X106697142Y-153629761D02*
X106792380Y-153677380D01*
X106982857Y-153677380D01*
X107078095Y-153629761D01*
X107125714Y-153534523D01*
X107125714Y-153153571D01*
X107078095Y-153058333D01*
X106982857Y-153010714D01*
X106792380Y-153010714D01*
X106697142Y-153058333D01*
X106649523Y-153153571D01*
X106649523Y-153248809D01*
X107125714Y-153344047D01*
X121363809Y-154422619D02*
X121316190Y-154375000D01*
X121220952Y-154327380D01*
X120982857Y-154327380D01*
X120887619Y-154375000D01*
X120840000Y-154422619D01*
X120792380Y-154517857D01*
X120792380Y-154613095D01*
X120840000Y-154755952D01*
X121411428Y-155327380D01*
X120792380Y-155327380D01*
X120173333Y-154327380D02*
X120078095Y-154327380D01*
X119982857Y-154375000D01*
X119935238Y-154422619D01*
X119887619Y-154517857D01*
X119840000Y-154708333D01*
X119840000Y-154946428D01*
X119887619Y-155136904D01*
X119935238Y-155232142D01*
X119982857Y-155279761D01*
X120078095Y-155327380D01*
X120173333Y-155327380D01*
X120268571Y-155279761D01*
X120316190Y-155232142D01*
X120363809Y-155136904D01*
X120411428Y-154946428D01*
X120411428Y-154708333D01*
X120363809Y-154517857D01*
X120316190Y-154422619D01*
X120268571Y-154375000D01*
X120173333Y-154327380D01*
X119459047Y-154422619D02*
X119411428Y-154375000D01*
X119316190Y-154327380D01*
X119078095Y-154327380D01*
X118982857Y-154375000D01*
X118935238Y-154422619D01*
X118887619Y-154517857D01*
X118887619Y-154613095D01*
X118935238Y-154755952D01*
X119506666Y-155327380D01*
X118887619Y-155327380D01*
X118268571Y-154327380D02*
X118173333Y-154327380D01*
X118078095Y-154375000D01*
X118030476Y-154422619D01*
X117982857Y-154517857D01*
X117935238Y-154708333D01*
X117935238Y-154946428D01*
X117982857Y-155136904D01*
X118030476Y-155232142D01*
X118078095Y-155279761D01*
X118173333Y-155327380D01*
X118268571Y-155327380D01*
X118363809Y-155279761D01*
X118411428Y-155232142D01*
X118459047Y-155136904D01*
X118506666Y-154946428D01*
X118506666Y-154708333D01*
X118459047Y-154517857D01*
X118411428Y-154422619D01*
X118363809Y-154375000D01*
X118268571Y-154327380D01*
X117506666Y-154946428D02*
X116744761Y-154946428D01*
X116078095Y-154327380D02*
X115982857Y-154327380D01*
X115887619Y-154375000D01*
X115840000Y-154422619D01*
X115792380Y-154517857D01*
X115744761Y-154708333D01*
X115744761Y-154946428D01*
X115792380Y-155136904D01*
X115840000Y-155232142D01*
X115887619Y-155279761D01*
X115982857Y-155327380D01*
X116078095Y-155327380D01*
X116173333Y-155279761D01*
X116220952Y-155232142D01*
X116268571Y-155136904D01*
X116316190Y-154946428D01*
X116316190Y-154708333D01*
X116268571Y-154517857D01*
X116220952Y-154422619D01*
X116173333Y-154375000D01*
X116078095Y-154327380D01*
X114840000Y-154327380D02*
X115316190Y-154327380D01*
X115363809Y-154803571D01*
X115316190Y-154755952D01*
X115220952Y-154708333D01*
X114982857Y-154708333D01*
X114887619Y-154755952D01*
X114840000Y-154803571D01*
X114792380Y-154898809D01*
X114792380Y-155136904D01*
X114840000Y-155232142D01*
X114887619Y-155279761D01*
X114982857Y-155327380D01*
X115220952Y-155327380D01*
X115316190Y-155279761D01*
X115363809Y-155232142D01*
X113697142Y-154660714D02*
X113459047Y-155327380D01*
X113220952Y-154660714D01*
X112316190Y-155327380D02*
X112887619Y-155327380D01*
X112601904Y-155327380D02*
X112601904Y-154327380D01*
X112697142Y-154470238D01*
X112792380Y-154565476D01*
X112887619Y-154613095D01*
D11*
G36*
X111858298Y-140206258D02*
G01*
X111526909Y-140262286D01*
X111347876Y-140317229D01*
X110937271Y-140561609D01*
X110545286Y-140919859D01*
X110223268Y-141339710D01*
X110082378Y-141605476D01*
X109882263Y-142067777D01*
X109416596Y-142069694D01*
X108785187Y-142138976D01*
X108222308Y-142332902D01*
X107751961Y-142638715D01*
X107398145Y-143043658D01*
X107316595Y-143185916D01*
X107178443Y-143586937D01*
X107112366Y-144065057D01*
X107121530Y-144549536D01*
X107209101Y-144969635D01*
X107233875Y-145034000D01*
X107538210Y-145547510D01*
X107962574Y-145950759D01*
X108488594Y-146231050D01*
X109097897Y-146375686D01*
X109187865Y-146384313D01*
X109775879Y-146431000D01*
X109299904Y-147038653D01*
X109090553Y-147310443D01*
X108928140Y-147529903D01*
X108836164Y-147664854D01*
X108823930Y-147690395D01*
X108900059Y-147720286D01*
X109094540Y-147748100D01*
X109243549Y-147760076D01*
X109663168Y-147785667D01*
X109066880Y-148575609D01*
X108836060Y-148886555D01*
X108651857Y-149144629D01*
X108533317Y-149322435D01*
X108499094Y-149392312D01*
X108574462Y-149355026D01*
X108771619Y-149236125D01*
X109071371Y-149047785D01*
X109454521Y-148802182D01*
X109901875Y-148511492D01*
X110305596Y-148246410D01*
X112083596Y-147073746D01*
X111383181Y-147048707D01*
X110682765Y-147023667D01*
X111206925Y-146388667D01*
X113423261Y-146386807D01*
X114101200Y-146385383D01*
X114632469Y-146381369D01*
X115039727Y-146373245D01*
X115345631Y-146359491D01*
X115572842Y-146338584D01*
X115744018Y-146309005D01*
X115881819Y-146269233D01*
X116008904Y-146217746D01*
X116020596Y-146212483D01*
X116534188Y-145896403D01*
X116915697Y-145481144D01*
X117157277Y-144982590D01*
X117251077Y-144416625D01*
X117206865Y-143943566D01*
X115008838Y-143943566D01*
X114858551Y-144132732D01*
X114612614Y-144435262D01*
X114369604Y-144722244D01*
X114154923Y-144964998D01*
X113993973Y-145134841D01*
X113912159Y-145203095D01*
X113910315Y-145203334D01*
X113825153Y-145152883D01*
X113646171Y-145019209D01*
X113408512Y-144828824D01*
X113352068Y-144782150D01*
X113107324Y-144582757D01*
X112914953Y-144433743D01*
X112809542Y-144361699D01*
X112801421Y-144358817D01*
X112736775Y-144421248D01*
X112587728Y-144594781D01*
X112373281Y-144856420D01*
X112112438Y-145183172D01*
X111963611Y-145372667D01*
X111169976Y-146388667D01*
X110491831Y-146388667D01*
X110158686Y-146386201D01*
X109967472Y-146373901D01*
X109890804Y-146344409D01*
X109901298Y-146290370D01*
X109940259Y-146240500D01*
X110106261Y-146039055D01*
X110329328Y-145758433D01*
X110590138Y-145424065D01*
X110869366Y-145061383D01*
X111147690Y-144695817D01*
X111405785Y-144352798D01*
X111624329Y-144057758D01*
X111783996Y-143836127D01*
X111865465Y-143713337D01*
X111871930Y-143698304D01*
X111807878Y-143621109D01*
X111635362Y-143470437D01*
X111383843Y-143271048D01*
X111194596Y-143129000D01*
X110908350Y-142913769D01*
X110681963Y-142734656D01*
X110544749Y-142615369D01*
X110517263Y-142581200D01*
X110592626Y-142536778D01*
X110797469Y-142453201D01*
X111099925Y-142342702D01*
X111443970Y-142225478D01*
X112370676Y-141919319D01*
X113689757Y-142931442D01*
X115008838Y-143943566D01*
X117206865Y-143943566D01*
X117196490Y-143832560D01*
X117110056Y-143533111D01*
X116970262Y-143287973D01*
X116735643Y-143026757D01*
X116702794Y-142994535D01*
X116317365Y-142689737D01*
X115890530Y-142503013D01*
X115378369Y-142418384D01*
X115094104Y-142409334D01*
X114801640Y-142389221D01*
X114672767Y-142328732D01*
X114665863Y-142303500D01*
X114619249Y-142114222D01*
X114496991Y-141836516D01*
X114325216Y-141517294D01*
X114130052Y-141203464D01*
X113937628Y-140941937D01*
X113857763Y-140852660D01*
X113392228Y-140481199D01*
X112865586Y-140261201D01*
X112257632Y-140184456D01*
X112212572Y-140184234D01*
X111858298Y-140206258D01*
G37*
X111858298Y-140206258D02*
X111526909Y-140262286D01*
X111347876Y-140317229D01*
X110937271Y-140561609D01*
X110545286Y-140919859D01*
X110223268Y-141339710D01*
X110082378Y-141605476D01*
X109882263Y-142067777D01*
X109416596Y-142069694D01*
X108785187Y-142138976D01*
X108222308Y-142332902D01*
X107751961Y-142638715D01*
X107398145Y-143043658D01*
X107316595Y-143185916D01*
X107178443Y-143586937D01*
X107112366Y-144065057D01*
X107121530Y-144549536D01*
X107209101Y-144969635D01*
X107233875Y-145034000D01*
X107538210Y-145547510D01*
X107962574Y-145950759D01*
X108488594Y-146231050D01*
X109097897Y-146375686D01*
X109187865Y-146384313D01*
X109775879Y-146431000D01*
X109299904Y-147038653D01*
X109090553Y-147310443D01*
X108928140Y-147529903D01*
X108836164Y-147664854D01*
X108823930Y-147690395D01*
X108900059Y-147720286D01*
X109094540Y-147748100D01*
X109243549Y-147760076D01*
X109663168Y-147785667D01*
X109066880Y-148575609D01*
X108836060Y-148886555D01*
X108651857Y-149144629D01*
X108533317Y-149322435D01*
X108499094Y-149392312D01*
X108574462Y-149355026D01*
X108771619Y-149236125D01*
X109071371Y-149047785D01*
X109454521Y-148802182D01*
X109901875Y-148511492D01*
X110305596Y-148246410D01*
X112083596Y-147073746D01*
X111383181Y-147048707D01*
X110682765Y-147023667D01*
X111206925Y-146388667D01*
X113423261Y-146386807D01*
X114101200Y-146385383D01*
X114632469Y-146381369D01*
X115039727Y-146373245D01*
X115345631Y-146359491D01*
X115572842Y-146338584D01*
X115744018Y-146309005D01*
X115881819Y-146269233D01*
X116008904Y-146217746D01*
X116020596Y-146212483D01*
X116534188Y-145896403D01*
X116915697Y-145481144D01*
X117157277Y-144982590D01*
X117251077Y-144416625D01*
X117206865Y-143943566D01*
X115008838Y-143943566D01*
X114858551Y-144132732D01*
X114612614Y-144435262D01*
X114369604Y-144722244D01*
X114154923Y-144964998D01*
X113993973Y-145134841D01*
X113912159Y-145203095D01*
X113910315Y-145203334D01*
X113825153Y-145152883D01*
X113646171Y-145019209D01*
X113408512Y-144828824D01*
X113352068Y-144782150D01*
X113107324Y-144582757D01*
X112914953Y-144433743D01*
X112809542Y-144361699D01*
X112801421Y-144358817D01*
X112736775Y-144421248D01*
X112587728Y-144594781D01*
X112373281Y-144856420D01*
X112112438Y-145183172D01*
X111963611Y-145372667D01*
X111169976Y-146388667D01*
X110491831Y-146388667D01*
X110158686Y-146386201D01*
X109967472Y-146373901D01*
X109890804Y-146344409D01*
X109901298Y-146290370D01*
X109940259Y-146240500D01*
X110106261Y-146039055D01*
X110329328Y-145758433D01*
X110590138Y-145424065D01*
X110869366Y-145061383D01*
X111147690Y-144695817D01*
X111405785Y-144352798D01*
X111624329Y-144057758D01*
X111783996Y-143836127D01*
X111865465Y-143713337D01*
X111871930Y-143698304D01*
X111807878Y-143621109D01*
X111635362Y-143470437D01*
X111383843Y-143271048D01*
X111194596Y-143129000D01*
X110908350Y-142913769D01*
X110681963Y-142734656D01*
X110544749Y-142615369D01*
X110517263Y-142581200D01*
X110592626Y-142536778D01*
X110797469Y-142453201D01*
X111099925Y-142342702D01*
X111443970Y-142225478D01*
X112370676Y-141919319D01*
X113689757Y-142931442D01*
X115008838Y-143943566D01*
X117206865Y-143943566D01*
X117196490Y-143832560D01*
X117110056Y-143533111D01*
X116970262Y-143287973D01*
X116735643Y-143026757D01*
X116702794Y-142994535D01*
X116317365Y-142689737D01*
X115890530Y-142503013D01*
X115378369Y-142418384D01*
X115094104Y-142409334D01*
X114801640Y-142389221D01*
X114672767Y-142328732D01*
X114665863Y-142303500D01*
X114619249Y-142114222D01*
X114496991Y-141836516D01*
X114325216Y-141517294D01*
X114130052Y-141203464D01*
X113937628Y-140941937D01*
X113857763Y-140852660D01*
X113392228Y-140481199D01*
X112865586Y-140261201D01*
X112257632Y-140184456D01*
X112212572Y-140184234D01*
X111858298Y-140206258D01*
M02*
