G04 #@! TF.GenerationSoftware,KiCad,Pcbnew,5.1.5-52549c5~86~ubuntu18.04.1*
G04 #@! TF.CreationDate,2020-05-17T18:15:10-04:00*
G04 #@! TF.ProjectId,RX EQ Shield,52582045-5120-4536-9869-656c642e6b69,rev?*
G04 #@! TF.SameCoordinates,Original*
G04 #@! TF.FileFunction,Paste,Top*
G04 #@! TF.FilePolarity,Positive*
%FSLAX46Y46*%
G04 Gerber Fmt 4.6, Leading zero omitted, Abs format (unit mm)*
G04 Created by KiCad (PCBNEW 5.1.5-52549c5~86~ubuntu18.04.1) date 2020-05-17 18:15:10*
%MOMM*%
%LPD*%
G04 APERTURE LIST*
%ADD10R,1.143000X0.508000*%
%ADD11R,1.500000X1.300000*%
%ADD12R,1.300000X1.500000*%
%ADD13R,1.250000X1.500000*%
%ADD14R,1.500000X1.250000*%
G04 APERTURE END LIST*
D10*
X152273000Y-146431000D03*
X152273000Y-147701000D03*
X152273000Y-148971000D03*
X152273000Y-150241000D03*
X145923000Y-150241000D03*
X145923000Y-148971000D03*
X145923000Y-147701000D03*
X145923000Y-146431000D03*
X160528000Y-136271000D03*
X160528000Y-137541000D03*
X160528000Y-138811000D03*
X160528000Y-140081000D03*
X154178000Y-140081000D03*
X154178000Y-138811000D03*
X154178000Y-137541000D03*
X154178000Y-136271000D03*
X137287000Y-136271000D03*
X137287000Y-137541000D03*
X137287000Y-138811000D03*
X137287000Y-140081000D03*
X130937000Y-140081000D03*
X130937000Y-138811000D03*
X130937000Y-137541000D03*
X130937000Y-136271000D03*
X115697000Y-149098000D03*
X115697000Y-150368000D03*
X115697000Y-151638000D03*
X115697000Y-152908000D03*
X109347000Y-152908000D03*
X109347000Y-151638000D03*
X109347000Y-150368000D03*
X109347000Y-149098000D03*
X114173000Y-136271000D03*
X114173000Y-137541000D03*
X114173000Y-138811000D03*
X114173000Y-140081000D03*
X107823000Y-140081000D03*
X107823000Y-138811000D03*
X107823000Y-137541000D03*
X107823000Y-136271000D03*
D11*
X140622000Y-144780000D03*
X137922000Y-144780000D03*
X165481000Y-138430000D03*
X162781000Y-138430000D03*
X142240000Y-138430000D03*
X139540000Y-138430000D03*
D12*
X121285000Y-149860000D03*
X121285000Y-147160000D03*
X125095000Y-147160000D03*
X125095000Y-149860000D03*
D11*
X111092000Y-154686000D03*
X113792000Y-154686000D03*
X119126000Y-138430000D03*
X116426000Y-138430000D03*
X146954000Y-155194000D03*
X149654000Y-155194000D03*
X146954000Y-153346000D03*
X149654000Y-153346000D03*
D13*
X167513000Y-134072000D03*
X167513000Y-131572000D03*
X167513000Y-129500000D03*
X167513000Y-127000000D03*
X167513000Y-124928000D03*
X167513000Y-122428000D03*
X152273000Y-134072000D03*
X152273000Y-131572000D03*
X152273000Y-129500000D03*
X152273000Y-127000000D03*
X152273000Y-124928000D03*
X152273000Y-122428000D03*
X144272000Y-134072000D03*
X144272000Y-131572000D03*
X144272000Y-129500000D03*
X144272000Y-127000000D03*
X144272000Y-124928000D03*
X144272000Y-122428000D03*
X129032000Y-134072000D03*
X129032000Y-131572000D03*
X129032000Y-129500000D03*
X129032000Y-127000000D03*
X129032000Y-124928000D03*
X129032000Y-122428000D03*
X121158000Y-134072000D03*
X121158000Y-131572000D03*
X121158000Y-129500000D03*
X121158000Y-127000000D03*
X121158000Y-124928000D03*
X121158000Y-122428000D03*
X105918000Y-134072000D03*
X105918000Y-131572000D03*
X105918000Y-129500000D03*
X105918000Y-127000000D03*
X105918000Y-124928000D03*
X105918000Y-122428000D03*
D12*
X118364000Y-152400000D03*
X118364000Y-149700000D03*
X126873000Y-155528000D03*
X126873000Y-152828000D03*
D14*
X145288000Y-144780000D03*
X142788000Y-144780000D03*
X150368000Y-144780000D03*
X147868000Y-144780000D03*
D13*
X151130000Y-141585000D03*
X151130000Y-139085000D03*
D14*
X135469000Y-142240000D03*
X132969000Y-142240000D03*
X113772000Y-147193000D03*
X111272000Y-147193000D03*
D13*
X125857000Y-137815000D03*
X125857000Y-140315000D03*
X123190000Y-149860000D03*
X123190000Y-147360000D03*
X123952000Y-140315000D03*
X123952000Y-137815000D03*
X126873000Y-147360000D03*
X126873000Y-149860000D03*
X124333000Y-152948000D03*
X124333000Y-155448000D03*
D14*
X112355000Y-142240000D03*
X109855000Y-142240000D03*
X132040000Y-147574000D03*
X129540000Y-147574000D03*
X134152000Y-147574000D03*
X136652000Y-147574000D03*
D13*
X169545000Y-134072000D03*
X169545000Y-131572000D03*
X169545000Y-124968000D03*
X169545000Y-122468000D03*
X169545000Y-127040000D03*
X169545000Y-129540000D03*
X150241000Y-134112000D03*
X150241000Y-131612000D03*
X150241000Y-124928000D03*
X150241000Y-122428000D03*
X150241000Y-127000000D03*
X150241000Y-129500000D03*
X146304000Y-134072000D03*
X146304000Y-131572000D03*
X146304000Y-124968000D03*
X146304000Y-122468000D03*
X146304000Y-127040000D03*
X146304000Y-129540000D03*
X127000000Y-134112000D03*
X127000000Y-131612000D03*
X127000000Y-124928000D03*
X127000000Y-122428000D03*
X127000000Y-127000000D03*
X127000000Y-129500000D03*
X123190000Y-134072000D03*
X123190000Y-131572000D03*
X123190000Y-124968000D03*
X123190000Y-122468000D03*
X123190000Y-127040000D03*
X123190000Y-129540000D03*
X103886000Y-134112000D03*
X103886000Y-131612000D03*
X103886000Y-124928000D03*
X103886000Y-122428000D03*
X103886000Y-127000000D03*
X103886000Y-129500000D03*
M02*
