G04 #@! TF.GenerationSoftware,KiCad,Pcbnew,5.1.5-52549c5~86~ubuntu18.04.1*
G04 #@! TF.CreationDate,2020-05-17T18:15:10-04:00*
G04 #@! TF.ProjectId,RX EQ Shield,52582045-5120-4536-9869-656c642e6b69,rev?*
G04 #@! TF.SameCoordinates,Original*
G04 #@! TF.FileFunction,Copper,L2,Bot*
G04 #@! TF.FilePolarity,Positive*
%FSLAX46Y46*%
G04 Gerber Fmt 4.6, Leading zero omitted, Abs format (unit mm)*
G04 Created by KiCad (PCBNEW 5.1.5-52549c5~86~ubuntu18.04.1) date 2020-05-17 18:15:10*
%MOMM*%
%LPD*%
G04 APERTURE LIST*
%ADD10C,2.000000*%
%ADD11C,1.800000*%
%ADD12C,3.000000*%
%ADD13R,1.700000X1.700000*%
%ADD14O,1.700000X1.700000*%
%ADD15C,0.800000*%
%ADD16C,0.508000*%
%ADD17C,0.254000*%
%ADD18C,0.250000*%
G04 APERTURE END LIST*
D10*
X118745000Y-142875000D03*
X104394000Y-141986000D03*
D11*
X157266000Y-155194000D03*
X159766000Y-155194000D03*
X162266000Y-155194000D03*
D12*
X154966000Y-148194000D03*
X164566000Y-148194000D03*
D11*
X157266000Y-134366000D03*
X159766000Y-134366000D03*
X162266000Y-134366000D03*
D12*
X154966000Y-127366000D03*
X164566000Y-127366000D03*
D11*
X134025000Y-134366000D03*
X136525000Y-134366000D03*
X139025000Y-134366000D03*
D12*
X131725000Y-127366000D03*
X141325000Y-127366000D03*
D11*
X110911000Y-134366000D03*
X113411000Y-134366000D03*
X115911000Y-134366000D03*
D12*
X108611000Y-127366000D03*
X118211000Y-127366000D03*
D13*
X139700000Y-150495000D03*
D14*
X139700000Y-153035000D03*
X137160000Y-150495000D03*
X137160000Y-153035000D03*
X134620000Y-150495000D03*
X134620000Y-153035000D03*
X132080000Y-150495000D03*
X132080000Y-153035000D03*
D15*
X124460000Y-131572000D03*
X125730000Y-131572000D03*
X127508000Y-136906000D03*
X122936000Y-136144000D03*
X123952000Y-136144000D03*
X125222000Y-136144000D03*
X126492000Y-136144000D03*
X104593930Y-122132079D03*
X169799000Y-122078009D03*
X170180000Y-132080000D03*
X149225000Y-122555000D03*
X147320000Y-122555000D03*
X147320000Y-131445000D03*
X149225000Y-131445000D03*
X144780000Y-136525000D03*
X143510000Y-147320000D03*
X144145000Y-140970000D03*
X124460000Y-122428000D03*
X125730000Y-122428000D03*
X104648000Y-132588000D03*
X118110000Y-146685000D03*
X115570000Y-147320000D03*
X161290000Y-148590000D03*
X168910000Y-140970000D03*
X168910000Y-143510000D03*
X168910000Y-146050000D03*
X168910000Y-148590000D03*
X168910000Y-151130000D03*
X104140000Y-151130000D03*
X104140000Y-148590000D03*
X104140000Y-146050000D03*
X132080000Y-156210000D03*
X134620000Y-156210000D03*
X137160000Y-156210000D03*
X139700000Y-156210000D03*
X142240000Y-156210000D03*
X107950000Y-140970000D03*
X147320000Y-150495000D03*
X148849213Y-144475833D03*
X149860000Y-139700000D03*
X152400000Y-139700000D03*
X122555000Y-145415000D03*
X121285000Y-145415000D03*
X126365000Y-141605000D03*
X128905000Y-149088000D03*
X131445000Y-142240000D03*
X111760000Y-144780000D03*
X111760000Y-149860000D03*
X114300000Y-149860000D03*
X110490000Y-139700000D03*
X125730000Y-143510000D03*
X128270000Y-143510000D03*
X139700000Y-147320000D03*
X142240000Y-147320000D03*
X142240000Y-149860000D03*
X142240000Y-152400000D03*
X144780000Y-152400000D03*
X148590000Y-149860000D03*
X165100000Y-143510000D03*
X165100000Y-153670000D03*
X165100000Y-151130000D03*
X161290000Y-146050000D03*
X161290000Y-151130000D03*
X106680000Y-146050000D03*
X106680000Y-151130000D03*
X106680000Y-148590000D03*
X133350000Y-139700000D03*
X129540000Y-139700000D03*
X147320000Y-139700000D03*
X152273000Y-151731000D03*
X147320000Y-146685000D03*
X150495000Y-148590000D03*
X132715000Y-144780000D03*
X135890000Y-144780000D03*
X139065000Y-143510000D03*
X141605000Y-140970000D03*
X151766109Y-142934899D03*
X147955000Y-142875000D03*
D16*
X118745000Y-140335000D02*
X122936000Y-136144000D01*
X118745000Y-142875000D02*
X118745000Y-140335000D01*
D17*
X143510000Y-147320000D02*
X143510000Y-141605000D01*
X143510000Y-141605000D02*
X144145000Y-140970000D01*
D16*
X118110000Y-146685000D02*
X116205000Y-146685000D01*
X116205000Y-146685000D02*
X115570000Y-147320000D01*
D17*
X152273000Y-151731000D02*
X147320000Y-146778000D01*
X147320000Y-146778000D02*
X147320000Y-146685000D01*
X158539000Y-153967000D02*
X158866001Y-154294001D01*
X158866001Y-154294001D02*
X159766000Y-155194000D01*
X152273000Y-151731000D02*
X154509000Y-153967000D01*
X154509000Y-153967000D02*
X158539000Y-153967000D01*
D18*
X161366001Y-154294001D02*
X162266000Y-155194000D01*
X155419989Y-153514989D02*
X160586989Y-153514989D01*
X150495000Y-148590000D02*
X155419989Y-153514989D01*
X160586989Y-153514989D02*
X161366001Y-154294001D01*
X132715000Y-144780000D02*
X135890000Y-144780000D01*
X139065000Y-143510000D02*
X141605000Y-140970000D01*
X148014899Y-142934899D02*
X147955000Y-142875000D01*
X151766109Y-142934899D02*
X148014899Y-142934899D01*
D17*
G36*
X169274545Y-120078909D02*
G01*
X169625208Y-120184780D01*
X169948625Y-120356744D01*
X170232484Y-120588254D01*
X170465965Y-120870486D01*
X170640183Y-121192695D01*
X170748502Y-121542614D01*
X170790000Y-121937443D01*
X170790000Y-137795000D01*
X102260000Y-137795000D01*
X102260000Y-134214816D01*
X109376000Y-134214816D01*
X109376000Y-134517184D01*
X109434989Y-134813743D01*
X109550701Y-135093095D01*
X109718688Y-135344505D01*
X109932495Y-135558312D01*
X110183905Y-135726299D01*
X110463257Y-135842011D01*
X110759816Y-135901000D01*
X111062184Y-135901000D01*
X111358743Y-135842011D01*
X111638095Y-135726299D01*
X111889505Y-135558312D01*
X112103312Y-135344505D01*
X112161000Y-135258169D01*
X112218688Y-135344505D01*
X112432495Y-135558312D01*
X112683905Y-135726299D01*
X112963257Y-135842011D01*
X113259816Y-135901000D01*
X113562184Y-135901000D01*
X113858743Y-135842011D01*
X114138095Y-135726299D01*
X114389505Y-135558312D01*
X114603312Y-135344505D01*
X114661000Y-135258169D01*
X114718688Y-135344505D01*
X114932495Y-135558312D01*
X115183905Y-135726299D01*
X115463257Y-135842011D01*
X115759816Y-135901000D01*
X116062184Y-135901000D01*
X116358743Y-135842011D01*
X116638095Y-135726299D01*
X116889505Y-135558312D01*
X117103312Y-135344505D01*
X117271299Y-135093095D01*
X117387011Y-134813743D01*
X117446000Y-134517184D01*
X117446000Y-134214816D01*
X132490000Y-134214816D01*
X132490000Y-134517184D01*
X132548989Y-134813743D01*
X132664701Y-135093095D01*
X132832688Y-135344505D01*
X133046495Y-135558312D01*
X133297905Y-135726299D01*
X133577257Y-135842011D01*
X133873816Y-135901000D01*
X134176184Y-135901000D01*
X134472743Y-135842011D01*
X134752095Y-135726299D01*
X135003505Y-135558312D01*
X135217312Y-135344505D01*
X135275000Y-135258169D01*
X135332688Y-135344505D01*
X135546495Y-135558312D01*
X135797905Y-135726299D01*
X136077257Y-135842011D01*
X136373816Y-135901000D01*
X136676184Y-135901000D01*
X136972743Y-135842011D01*
X137252095Y-135726299D01*
X137503505Y-135558312D01*
X137717312Y-135344505D01*
X137775000Y-135258169D01*
X137832688Y-135344505D01*
X138046495Y-135558312D01*
X138297905Y-135726299D01*
X138577257Y-135842011D01*
X138873816Y-135901000D01*
X139176184Y-135901000D01*
X139472743Y-135842011D01*
X139752095Y-135726299D01*
X140003505Y-135558312D01*
X140217312Y-135344505D01*
X140385299Y-135093095D01*
X140501011Y-134813743D01*
X140560000Y-134517184D01*
X140560000Y-134214816D01*
X155731000Y-134214816D01*
X155731000Y-134517184D01*
X155789989Y-134813743D01*
X155905701Y-135093095D01*
X156073688Y-135344505D01*
X156287495Y-135558312D01*
X156538905Y-135726299D01*
X156818257Y-135842011D01*
X157114816Y-135901000D01*
X157417184Y-135901000D01*
X157713743Y-135842011D01*
X157993095Y-135726299D01*
X158244505Y-135558312D01*
X158458312Y-135344505D01*
X158516000Y-135258169D01*
X158573688Y-135344505D01*
X158787495Y-135558312D01*
X159038905Y-135726299D01*
X159318257Y-135842011D01*
X159614816Y-135901000D01*
X159917184Y-135901000D01*
X160213743Y-135842011D01*
X160493095Y-135726299D01*
X160744505Y-135558312D01*
X160958312Y-135344505D01*
X161016000Y-135258169D01*
X161073688Y-135344505D01*
X161287495Y-135558312D01*
X161538905Y-135726299D01*
X161818257Y-135842011D01*
X162114816Y-135901000D01*
X162417184Y-135901000D01*
X162713743Y-135842011D01*
X162993095Y-135726299D01*
X163244505Y-135558312D01*
X163458312Y-135344505D01*
X163626299Y-135093095D01*
X163742011Y-134813743D01*
X163801000Y-134517184D01*
X163801000Y-134214816D01*
X163742011Y-133918257D01*
X163626299Y-133638905D01*
X163458312Y-133387495D01*
X163244505Y-133173688D01*
X162993095Y-133005701D01*
X162713743Y-132889989D01*
X162417184Y-132831000D01*
X162114816Y-132831000D01*
X161818257Y-132889989D01*
X161538905Y-133005701D01*
X161287495Y-133173688D01*
X161073688Y-133387495D01*
X161016000Y-133473831D01*
X160958312Y-133387495D01*
X160744505Y-133173688D01*
X160493095Y-133005701D01*
X160213743Y-132889989D01*
X159917184Y-132831000D01*
X159614816Y-132831000D01*
X159318257Y-132889989D01*
X159038905Y-133005701D01*
X158787495Y-133173688D01*
X158573688Y-133387495D01*
X158516000Y-133473831D01*
X158458312Y-133387495D01*
X158244505Y-133173688D01*
X157993095Y-133005701D01*
X157713743Y-132889989D01*
X157417184Y-132831000D01*
X157114816Y-132831000D01*
X156818257Y-132889989D01*
X156538905Y-133005701D01*
X156287495Y-133173688D01*
X156073688Y-133387495D01*
X155905701Y-133638905D01*
X155789989Y-133918257D01*
X155731000Y-134214816D01*
X140560000Y-134214816D01*
X140501011Y-133918257D01*
X140385299Y-133638905D01*
X140217312Y-133387495D01*
X140003505Y-133173688D01*
X139752095Y-133005701D01*
X139472743Y-132889989D01*
X139176184Y-132831000D01*
X138873816Y-132831000D01*
X138577257Y-132889989D01*
X138297905Y-133005701D01*
X138046495Y-133173688D01*
X137832688Y-133387495D01*
X137775000Y-133473831D01*
X137717312Y-133387495D01*
X137503505Y-133173688D01*
X137252095Y-133005701D01*
X136972743Y-132889989D01*
X136676184Y-132831000D01*
X136373816Y-132831000D01*
X136077257Y-132889989D01*
X135797905Y-133005701D01*
X135546495Y-133173688D01*
X135332688Y-133387495D01*
X135275000Y-133473831D01*
X135217312Y-133387495D01*
X135003505Y-133173688D01*
X134752095Y-133005701D01*
X134472743Y-132889989D01*
X134176184Y-132831000D01*
X133873816Y-132831000D01*
X133577257Y-132889989D01*
X133297905Y-133005701D01*
X133046495Y-133173688D01*
X132832688Y-133387495D01*
X132664701Y-133638905D01*
X132548989Y-133918257D01*
X132490000Y-134214816D01*
X117446000Y-134214816D01*
X117387011Y-133918257D01*
X117271299Y-133638905D01*
X117103312Y-133387495D01*
X116889505Y-133173688D01*
X116638095Y-133005701D01*
X116358743Y-132889989D01*
X116062184Y-132831000D01*
X115759816Y-132831000D01*
X115463257Y-132889989D01*
X115183905Y-133005701D01*
X114932495Y-133173688D01*
X114718688Y-133387495D01*
X114661000Y-133473831D01*
X114603312Y-133387495D01*
X114389505Y-133173688D01*
X114138095Y-133005701D01*
X113858743Y-132889989D01*
X113562184Y-132831000D01*
X113259816Y-132831000D01*
X112963257Y-132889989D01*
X112683905Y-133005701D01*
X112432495Y-133173688D01*
X112218688Y-133387495D01*
X112161000Y-133473831D01*
X112103312Y-133387495D01*
X111889505Y-133173688D01*
X111638095Y-133005701D01*
X111358743Y-132889989D01*
X111062184Y-132831000D01*
X110759816Y-132831000D01*
X110463257Y-132889989D01*
X110183905Y-133005701D01*
X109932495Y-133173688D01*
X109718688Y-133387495D01*
X109550701Y-133638905D01*
X109434989Y-133918257D01*
X109376000Y-134214816D01*
X102260000Y-134214816D01*
X102260000Y-127155721D01*
X106476000Y-127155721D01*
X106476000Y-127576279D01*
X106558047Y-127988756D01*
X106718988Y-128377302D01*
X106952637Y-128726983D01*
X107250017Y-129024363D01*
X107599698Y-129258012D01*
X107988244Y-129418953D01*
X108400721Y-129501000D01*
X108821279Y-129501000D01*
X109233756Y-129418953D01*
X109622302Y-129258012D01*
X109971983Y-129024363D01*
X110269363Y-128726983D01*
X110503012Y-128377302D01*
X110663953Y-127988756D01*
X110746000Y-127576279D01*
X110746000Y-127155721D01*
X116076000Y-127155721D01*
X116076000Y-127576279D01*
X116158047Y-127988756D01*
X116318988Y-128377302D01*
X116552637Y-128726983D01*
X116850017Y-129024363D01*
X117199698Y-129258012D01*
X117588244Y-129418953D01*
X118000721Y-129501000D01*
X118421279Y-129501000D01*
X118833756Y-129418953D01*
X119222302Y-129258012D01*
X119571983Y-129024363D01*
X119869363Y-128726983D01*
X120103012Y-128377302D01*
X120263953Y-127988756D01*
X120346000Y-127576279D01*
X120346000Y-127155721D01*
X129590000Y-127155721D01*
X129590000Y-127576279D01*
X129672047Y-127988756D01*
X129832988Y-128377302D01*
X130066637Y-128726983D01*
X130364017Y-129024363D01*
X130713698Y-129258012D01*
X131102244Y-129418953D01*
X131514721Y-129501000D01*
X131935279Y-129501000D01*
X132347756Y-129418953D01*
X132736302Y-129258012D01*
X133085983Y-129024363D01*
X133383363Y-128726983D01*
X133617012Y-128377302D01*
X133777953Y-127988756D01*
X133860000Y-127576279D01*
X133860000Y-127155721D01*
X139190000Y-127155721D01*
X139190000Y-127576279D01*
X139272047Y-127988756D01*
X139432988Y-128377302D01*
X139666637Y-128726983D01*
X139964017Y-129024363D01*
X140313698Y-129258012D01*
X140702244Y-129418953D01*
X141114721Y-129501000D01*
X141535279Y-129501000D01*
X141947756Y-129418953D01*
X142336302Y-129258012D01*
X142685983Y-129024363D01*
X142983363Y-128726983D01*
X143217012Y-128377302D01*
X143377953Y-127988756D01*
X143460000Y-127576279D01*
X143460000Y-127155721D01*
X152831000Y-127155721D01*
X152831000Y-127576279D01*
X152913047Y-127988756D01*
X153073988Y-128377302D01*
X153307637Y-128726983D01*
X153605017Y-129024363D01*
X153954698Y-129258012D01*
X154343244Y-129418953D01*
X154755721Y-129501000D01*
X155176279Y-129501000D01*
X155588756Y-129418953D01*
X155977302Y-129258012D01*
X156326983Y-129024363D01*
X156624363Y-128726983D01*
X156858012Y-128377302D01*
X157018953Y-127988756D01*
X157101000Y-127576279D01*
X157101000Y-127155721D01*
X162431000Y-127155721D01*
X162431000Y-127576279D01*
X162513047Y-127988756D01*
X162673988Y-128377302D01*
X162907637Y-128726983D01*
X163205017Y-129024363D01*
X163554698Y-129258012D01*
X163943244Y-129418953D01*
X164355721Y-129501000D01*
X164776279Y-129501000D01*
X165188756Y-129418953D01*
X165577302Y-129258012D01*
X165926983Y-129024363D01*
X166224363Y-128726983D01*
X166458012Y-128377302D01*
X166618953Y-127988756D01*
X166701000Y-127576279D01*
X166701000Y-127155721D01*
X166618953Y-126743244D01*
X166458012Y-126354698D01*
X166224363Y-126005017D01*
X165926983Y-125707637D01*
X165577302Y-125473988D01*
X165188756Y-125313047D01*
X164776279Y-125231000D01*
X164355721Y-125231000D01*
X163943244Y-125313047D01*
X163554698Y-125473988D01*
X163205017Y-125707637D01*
X162907637Y-126005017D01*
X162673988Y-126354698D01*
X162513047Y-126743244D01*
X162431000Y-127155721D01*
X157101000Y-127155721D01*
X157018953Y-126743244D01*
X156858012Y-126354698D01*
X156624363Y-126005017D01*
X156326983Y-125707637D01*
X155977302Y-125473988D01*
X155588756Y-125313047D01*
X155176279Y-125231000D01*
X154755721Y-125231000D01*
X154343244Y-125313047D01*
X153954698Y-125473988D01*
X153605017Y-125707637D01*
X153307637Y-126005017D01*
X153073988Y-126354698D01*
X152913047Y-126743244D01*
X152831000Y-127155721D01*
X143460000Y-127155721D01*
X143377953Y-126743244D01*
X143217012Y-126354698D01*
X142983363Y-126005017D01*
X142685983Y-125707637D01*
X142336302Y-125473988D01*
X141947756Y-125313047D01*
X141535279Y-125231000D01*
X141114721Y-125231000D01*
X140702244Y-125313047D01*
X140313698Y-125473988D01*
X139964017Y-125707637D01*
X139666637Y-126005017D01*
X139432988Y-126354698D01*
X139272047Y-126743244D01*
X139190000Y-127155721D01*
X133860000Y-127155721D01*
X133777953Y-126743244D01*
X133617012Y-126354698D01*
X133383363Y-126005017D01*
X133085983Y-125707637D01*
X132736302Y-125473988D01*
X132347756Y-125313047D01*
X131935279Y-125231000D01*
X131514721Y-125231000D01*
X131102244Y-125313047D01*
X130713698Y-125473988D01*
X130364017Y-125707637D01*
X130066637Y-126005017D01*
X129832988Y-126354698D01*
X129672047Y-126743244D01*
X129590000Y-127155721D01*
X120346000Y-127155721D01*
X120263953Y-126743244D01*
X120103012Y-126354698D01*
X119869363Y-126005017D01*
X119571983Y-125707637D01*
X119222302Y-125473988D01*
X118833756Y-125313047D01*
X118421279Y-125231000D01*
X118000721Y-125231000D01*
X117588244Y-125313047D01*
X117199698Y-125473988D01*
X116850017Y-125707637D01*
X116552637Y-126005017D01*
X116318988Y-126354698D01*
X116158047Y-126743244D01*
X116076000Y-127155721D01*
X110746000Y-127155721D01*
X110663953Y-126743244D01*
X110503012Y-126354698D01*
X110269363Y-126005017D01*
X109971983Y-125707637D01*
X109622302Y-125473988D01*
X109233756Y-125313047D01*
X108821279Y-125231000D01*
X108400721Y-125231000D01*
X107988244Y-125313047D01*
X107599698Y-125473988D01*
X107250017Y-125707637D01*
X106952637Y-126005017D01*
X106718988Y-126354698D01*
X106558047Y-126743244D01*
X106476000Y-127155721D01*
X102260000Y-127155721D01*
X102260000Y-121952279D01*
X102298909Y-121555455D01*
X102404780Y-121204792D01*
X102576744Y-120881375D01*
X102808254Y-120597516D01*
X103090486Y-120364035D01*
X103412695Y-120189817D01*
X103762614Y-120081498D01*
X104157443Y-120040000D01*
X168877721Y-120040000D01*
X169274545Y-120078909D01*
G37*
X169274545Y-120078909D02*
X169625208Y-120184780D01*
X169948625Y-120356744D01*
X170232484Y-120588254D01*
X170465965Y-120870486D01*
X170640183Y-121192695D01*
X170748502Y-121542614D01*
X170790000Y-121937443D01*
X170790000Y-137795000D01*
X102260000Y-137795000D01*
X102260000Y-134214816D01*
X109376000Y-134214816D01*
X109376000Y-134517184D01*
X109434989Y-134813743D01*
X109550701Y-135093095D01*
X109718688Y-135344505D01*
X109932495Y-135558312D01*
X110183905Y-135726299D01*
X110463257Y-135842011D01*
X110759816Y-135901000D01*
X111062184Y-135901000D01*
X111358743Y-135842011D01*
X111638095Y-135726299D01*
X111889505Y-135558312D01*
X112103312Y-135344505D01*
X112161000Y-135258169D01*
X112218688Y-135344505D01*
X112432495Y-135558312D01*
X112683905Y-135726299D01*
X112963257Y-135842011D01*
X113259816Y-135901000D01*
X113562184Y-135901000D01*
X113858743Y-135842011D01*
X114138095Y-135726299D01*
X114389505Y-135558312D01*
X114603312Y-135344505D01*
X114661000Y-135258169D01*
X114718688Y-135344505D01*
X114932495Y-135558312D01*
X115183905Y-135726299D01*
X115463257Y-135842011D01*
X115759816Y-135901000D01*
X116062184Y-135901000D01*
X116358743Y-135842011D01*
X116638095Y-135726299D01*
X116889505Y-135558312D01*
X117103312Y-135344505D01*
X117271299Y-135093095D01*
X117387011Y-134813743D01*
X117446000Y-134517184D01*
X117446000Y-134214816D01*
X132490000Y-134214816D01*
X132490000Y-134517184D01*
X132548989Y-134813743D01*
X132664701Y-135093095D01*
X132832688Y-135344505D01*
X133046495Y-135558312D01*
X133297905Y-135726299D01*
X133577257Y-135842011D01*
X133873816Y-135901000D01*
X134176184Y-135901000D01*
X134472743Y-135842011D01*
X134752095Y-135726299D01*
X135003505Y-135558312D01*
X135217312Y-135344505D01*
X135275000Y-135258169D01*
X135332688Y-135344505D01*
X135546495Y-135558312D01*
X135797905Y-135726299D01*
X136077257Y-135842011D01*
X136373816Y-135901000D01*
X136676184Y-135901000D01*
X136972743Y-135842011D01*
X137252095Y-135726299D01*
X137503505Y-135558312D01*
X137717312Y-135344505D01*
X137775000Y-135258169D01*
X137832688Y-135344505D01*
X138046495Y-135558312D01*
X138297905Y-135726299D01*
X138577257Y-135842011D01*
X138873816Y-135901000D01*
X139176184Y-135901000D01*
X139472743Y-135842011D01*
X139752095Y-135726299D01*
X140003505Y-135558312D01*
X140217312Y-135344505D01*
X140385299Y-135093095D01*
X140501011Y-134813743D01*
X140560000Y-134517184D01*
X140560000Y-134214816D01*
X155731000Y-134214816D01*
X155731000Y-134517184D01*
X155789989Y-134813743D01*
X155905701Y-135093095D01*
X156073688Y-135344505D01*
X156287495Y-135558312D01*
X156538905Y-135726299D01*
X156818257Y-135842011D01*
X157114816Y-135901000D01*
X157417184Y-135901000D01*
X157713743Y-135842011D01*
X157993095Y-135726299D01*
X158244505Y-135558312D01*
X158458312Y-135344505D01*
X158516000Y-135258169D01*
X158573688Y-135344505D01*
X158787495Y-135558312D01*
X159038905Y-135726299D01*
X159318257Y-135842011D01*
X159614816Y-135901000D01*
X159917184Y-135901000D01*
X160213743Y-135842011D01*
X160493095Y-135726299D01*
X160744505Y-135558312D01*
X160958312Y-135344505D01*
X161016000Y-135258169D01*
X161073688Y-135344505D01*
X161287495Y-135558312D01*
X161538905Y-135726299D01*
X161818257Y-135842011D01*
X162114816Y-135901000D01*
X162417184Y-135901000D01*
X162713743Y-135842011D01*
X162993095Y-135726299D01*
X163244505Y-135558312D01*
X163458312Y-135344505D01*
X163626299Y-135093095D01*
X163742011Y-134813743D01*
X163801000Y-134517184D01*
X163801000Y-134214816D01*
X163742011Y-133918257D01*
X163626299Y-133638905D01*
X163458312Y-133387495D01*
X163244505Y-133173688D01*
X162993095Y-133005701D01*
X162713743Y-132889989D01*
X162417184Y-132831000D01*
X162114816Y-132831000D01*
X161818257Y-132889989D01*
X161538905Y-133005701D01*
X161287495Y-133173688D01*
X161073688Y-133387495D01*
X161016000Y-133473831D01*
X160958312Y-133387495D01*
X160744505Y-133173688D01*
X160493095Y-133005701D01*
X160213743Y-132889989D01*
X159917184Y-132831000D01*
X159614816Y-132831000D01*
X159318257Y-132889989D01*
X159038905Y-133005701D01*
X158787495Y-133173688D01*
X158573688Y-133387495D01*
X158516000Y-133473831D01*
X158458312Y-133387495D01*
X158244505Y-133173688D01*
X157993095Y-133005701D01*
X157713743Y-132889989D01*
X157417184Y-132831000D01*
X157114816Y-132831000D01*
X156818257Y-132889989D01*
X156538905Y-133005701D01*
X156287495Y-133173688D01*
X156073688Y-133387495D01*
X155905701Y-133638905D01*
X155789989Y-133918257D01*
X155731000Y-134214816D01*
X140560000Y-134214816D01*
X140501011Y-133918257D01*
X140385299Y-133638905D01*
X140217312Y-133387495D01*
X140003505Y-133173688D01*
X139752095Y-133005701D01*
X139472743Y-132889989D01*
X139176184Y-132831000D01*
X138873816Y-132831000D01*
X138577257Y-132889989D01*
X138297905Y-133005701D01*
X138046495Y-133173688D01*
X137832688Y-133387495D01*
X137775000Y-133473831D01*
X137717312Y-133387495D01*
X137503505Y-133173688D01*
X137252095Y-133005701D01*
X136972743Y-132889989D01*
X136676184Y-132831000D01*
X136373816Y-132831000D01*
X136077257Y-132889989D01*
X135797905Y-133005701D01*
X135546495Y-133173688D01*
X135332688Y-133387495D01*
X135275000Y-133473831D01*
X135217312Y-133387495D01*
X135003505Y-133173688D01*
X134752095Y-133005701D01*
X134472743Y-132889989D01*
X134176184Y-132831000D01*
X133873816Y-132831000D01*
X133577257Y-132889989D01*
X133297905Y-133005701D01*
X133046495Y-133173688D01*
X132832688Y-133387495D01*
X132664701Y-133638905D01*
X132548989Y-133918257D01*
X132490000Y-134214816D01*
X117446000Y-134214816D01*
X117387011Y-133918257D01*
X117271299Y-133638905D01*
X117103312Y-133387495D01*
X116889505Y-133173688D01*
X116638095Y-133005701D01*
X116358743Y-132889989D01*
X116062184Y-132831000D01*
X115759816Y-132831000D01*
X115463257Y-132889989D01*
X115183905Y-133005701D01*
X114932495Y-133173688D01*
X114718688Y-133387495D01*
X114661000Y-133473831D01*
X114603312Y-133387495D01*
X114389505Y-133173688D01*
X114138095Y-133005701D01*
X113858743Y-132889989D01*
X113562184Y-132831000D01*
X113259816Y-132831000D01*
X112963257Y-132889989D01*
X112683905Y-133005701D01*
X112432495Y-133173688D01*
X112218688Y-133387495D01*
X112161000Y-133473831D01*
X112103312Y-133387495D01*
X111889505Y-133173688D01*
X111638095Y-133005701D01*
X111358743Y-132889989D01*
X111062184Y-132831000D01*
X110759816Y-132831000D01*
X110463257Y-132889989D01*
X110183905Y-133005701D01*
X109932495Y-133173688D01*
X109718688Y-133387495D01*
X109550701Y-133638905D01*
X109434989Y-133918257D01*
X109376000Y-134214816D01*
X102260000Y-134214816D01*
X102260000Y-127155721D01*
X106476000Y-127155721D01*
X106476000Y-127576279D01*
X106558047Y-127988756D01*
X106718988Y-128377302D01*
X106952637Y-128726983D01*
X107250017Y-129024363D01*
X107599698Y-129258012D01*
X107988244Y-129418953D01*
X108400721Y-129501000D01*
X108821279Y-129501000D01*
X109233756Y-129418953D01*
X109622302Y-129258012D01*
X109971983Y-129024363D01*
X110269363Y-128726983D01*
X110503012Y-128377302D01*
X110663953Y-127988756D01*
X110746000Y-127576279D01*
X110746000Y-127155721D01*
X116076000Y-127155721D01*
X116076000Y-127576279D01*
X116158047Y-127988756D01*
X116318988Y-128377302D01*
X116552637Y-128726983D01*
X116850017Y-129024363D01*
X117199698Y-129258012D01*
X117588244Y-129418953D01*
X118000721Y-129501000D01*
X118421279Y-129501000D01*
X118833756Y-129418953D01*
X119222302Y-129258012D01*
X119571983Y-129024363D01*
X119869363Y-128726983D01*
X120103012Y-128377302D01*
X120263953Y-127988756D01*
X120346000Y-127576279D01*
X120346000Y-127155721D01*
X129590000Y-127155721D01*
X129590000Y-127576279D01*
X129672047Y-127988756D01*
X129832988Y-128377302D01*
X130066637Y-128726983D01*
X130364017Y-129024363D01*
X130713698Y-129258012D01*
X131102244Y-129418953D01*
X131514721Y-129501000D01*
X131935279Y-129501000D01*
X132347756Y-129418953D01*
X132736302Y-129258012D01*
X133085983Y-129024363D01*
X133383363Y-128726983D01*
X133617012Y-128377302D01*
X133777953Y-127988756D01*
X133860000Y-127576279D01*
X133860000Y-127155721D01*
X139190000Y-127155721D01*
X139190000Y-127576279D01*
X139272047Y-127988756D01*
X139432988Y-128377302D01*
X139666637Y-128726983D01*
X139964017Y-129024363D01*
X140313698Y-129258012D01*
X140702244Y-129418953D01*
X141114721Y-129501000D01*
X141535279Y-129501000D01*
X141947756Y-129418953D01*
X142336302Y-129258012D01*
X142685983Y-129024363D01*
X142983363Y-128726983D01*
X143217012Y-128377302D01*
X143377953Y-127988756D01*
X143460000Y-127576279D01*
X143460000Y-127155721D01*
X152831000Y-127155721D01*
X152831000Y-127576279D01*
X152913047Y-127988756D01*
X153073988Y-128377302D01*
X153307637Y-128726983D01*
X153605017Y-129024363D01*
X153954698Y-129258012D01*
X154343244Y-129418953D01*
X154755721Y-129501000D01*
X155176279Y-129501000D01*
X155588756Y-129418953D01*
X155977302Y-129258012D01*
X156326983Y-129024363D01*
X156624363Y-128726983D01*
X156858012Y-128377302D01*
X157018953Y-127988756D01*
X157101000Y-127576279D01*
X157101000Y-127155721D01*
X162431000Y-127155721D01*
X162431000Y-127576279D01*
X162513047Y-127988756D01*
X162673988Y-128377302D01*
X162907637Y-128726983D01*
X163205017Y-129024363D01*
X163554698Y-129258012D01*
X163943244Y-129418953D01*
X164355721Y-129501000D01*
X164776279Y-129501000D01*
X165188756Y-129418953D01*
X165577302Y-129258012D01*
X165926983Y-129024363D01*
X166224363Y-128726983D01*
X166458012Y-128377302D01*
X166618953Y-127988756D01*
X166701000Y-127576279D01*
X166701000Y-127155721D01*
X166618953Y-126743244D01*
X166458012Y-126354698D01*
X166224363Y-126005017D01*
X165926983Y-125707637D01*
X165577302Y-125473988D01*
X165188756Y-125313047D01*
X164776279Y-125231000D01*
X164355721Y-125231000D01*
X163943244Y-125313047D01*
X163554698Y-125473988D01*
X163205017Y-125707637D01*
X162907637Y-126005017D01*
X162673988Y-126354698D01*
X162513047Y-126743244D01*
X162431000Y-127155721D01*
X157101000Y-127155721D01*
X157018953Y-126743244D01*
X156858012Y-126354698D01*
X156624363Y-126005017D01*
X156326983Y-125707637D01*
X155977302Y-125473988D01*
X155588756Y-125313047D01*
X155176279Y-125231000D01*
X154755721Y-125231000D01*
X154343244Y-125313047D01*
X153954698Y-125473988D01*
X153605017Y-125707637D01*
X153307637Y-126005017D01*
X153073988Y-126354698D01*
X152913047Y-126743244D01*
X152831000Y-127155721D01*
X143460000Y-127155721D01*
X143377953Y-126743244D01*
X143217012Y-126354698D01*
X142983363Y-126005017D01*
X142685983Y-125707637D01*
X142336302Y-125473988D01*
X141947756Y-125313047D01*
X141535279Y-125231000D01*
X141114721Y-125231000D01*
X140702244Y-125313047D01*
X140313698Y-125473988D01*
X139964017Y-125707637D01*
X139666637Y-126005017D01*
X139432988Y-126354698D01*
X139272047Y-126743244D01*
X139190000Y-127155721D01*
X133860000Y-127155721D01*
X133777953Y-126743244D01*
X133617012Y-126354698D01*
X133383363Y-126005017D01*
X133085983Y-125707637D01*
X132736302Y-125473988D01*
X132347756Y-125313047D01*
X131935279Y-125231000D01*
X131514721Y-125231000D01*
X131102244Y-125313047D01*
X130713698Y-125473988D01*
X130364017Y-125707637D01*
X130066637Y-126005017D01*
X129832988Y-126354698D01*
X129672047Y-126743244D01*
X129590000Y-127155721D01*
X120346000Y-127155721D01*
X120263953Y-126743244D01*
X120103012Y-126354698D01*
X119869363Y-126005017D01*
X119571983Y-125707637D01*
X119222302Y-125473988D01*
X118833756Y-125313047D01*
X118421279Y-125231000D01*
X118000721Y-125231000D01*
X117588244Y-125313047D01*
X117199698Y-125473988D01*
X116850017Y-125707637D01*
X116552637Y-126005017D01*
X116318988Y-126354698D01*
X116158047Y-126743244D01*
X116076000Y-127155721D01*
X110746000Y-127155721D01*
X110663953Y-126743244D01*
X110503012Y-126354698D01*
X110269363Y-126005017D01*
X109971983Y-125707637D01*
X109622302Y-125473988D01*
X109233756Y-125313047D01*
X108821279Y-125231000D01*
X108400721Y-125231000D01*
X107988244Y-125313047D01*
X107599698Y-125473988D01*
X107250017Y-125707637D01*
X106952637Y-126005017D01*
X106718988Y-126354698D01*
X106558047Y-126743244D01*
X106476000Y-127155721D01*
X102260000Y-127155721D01*
X102260000Y-121952279D01*
X102298909Y-121555455D01*
X102404780Y-121204792D01*
X102576744Y-120881375D01*
X102808254Y-120597516D01*
X103090486Y-120364035D01*
X103412695Y-120189817D01*
X103762614Y-120081498D01*
X104157443Y-120040000D01*
X168877721Y-120040000D01*
X169274545Y-120078909D01*
G36*
X118147259Y-139675506D02*
G01*
X118113342Y-139703341D01*
X118085507Y-139737258D01*
X118085505Y-139737260D01*
X118002248Y-139838709D01*
X117919698Y-139993148D01*
X117868864Y-140160726D01*
X117851700Y-140335000D01*
X117856001Y-140378670D01*
X117856001Y-141502613D01*
X117702748Y-141605013D01*
X117475013Y-141832748D01*
X117296082Y-142100537D01*
X117172832Y-142398088D01*
X117110000Y-142713967D01*
X117110000Y-143036033D01*
X117172832Y-143351912D01*
X117296082Y-143649463D01*
X117475013Y-143917252D01*
X117702748Y-144144987D01*
X117970537Y-144323918D01*
X118268088Y-144447168D01*
X118583967Y-144510000D01*
X118906033Y-144510000D01*
X119221912Y-144447168D01*
X119519463Y-144323918D01*
X119787252Y-144144987D01*
X120014987Y-143917252D01*
X120193918Y-143649463D01*
X120293910Y-143408061D01*
X138030000Y-143408061D01*
X138030000Y-143611939D01*
X138069774Y-143811898D01*
X138147795Y-144000256D01*
X138261063Y-144169774D01*
X138405226Y-144313937D01*
X138574744Y-144427205D01*
X138763102Y-144505226D01*
X138963061Y-144545000D01*
X139166939Y-144545000D01*
X139366898Y-144505226D01*
X139555256Y-144427205D01*
X139724774Y-144313937D01*
X139868937Y-144169774D01*
X139982205Y-144000256D01*
X140060226Y-143811898D01*
X140100000Y-143611939D01*
X140100000Y-143549801D01*
X141644803Y-142005000D01*
X141706939Y-142005000D01*
X141906898Y-141965226D01*
X142095256Y-141887205D01*
X142264774Y-141773937D01*
X142408937Y-141629774D01*
X142522205Y-141460256D01*
X142600226Y-141271898D01*
X142640000Y-141071939D01*
X142640000Y-140868061D01*
X142600226Y-140668102D01*
X142522205Y-140479744D01*
X142408937Y-140310226D01*
X142264774Y-140166063D01*
X142095256Y-140052795D01*
X141906898Y-139974774D01*
X141706939Y-139935000D01*
X141503061Y-139935000D01*
X141303102Y-139974774D01*
X141114744Y-140052795D01*
X140945226Y-140166063D01*
X140801063Y-140310226D01*
X140687795Y-140479744D01*
X140609774Y-140668102D01*
X140570000Y-140868061D01*
X140570000Y-140930197D01*
X139025199Y-142475000D01*
X138963061Y-142475000D01*
X138763102Y-142514774D01*
X138574744Y-142592795D01*
X138405226Y-142706063D01*
X138261063Y-142850226D01*
X138147795Y-143019744D01*
X138069774Y-143208102D01*
X138030000Y-143408061D01*
X120293910Y-143408061D01*
X120317168Y-143351912D01*
X120380000Y-143036033D01*
X120380000Y-142713967D01*
X120317168Y-142398088D01*
X120193918Y-142100537D01*
X120014987Y-141832748D01*
X119787252Y-141605013D01*
X119634000Y-141502613D01*
X119634000Y-140703235D01*
X121780236Y-138557000D01*
X170790001Y-138557000D01*
X170790001Y-154907711D01*
X170751091Y-155304545D01*
X170645220Y-155655206D01*
X170473257Y-155978623D01*
X170241748Y-156262482D01*
X169959514Y-156495965D01*
X169637304Y-156670184D01*
X169287385Y-156778502D01*
X168892557Y-156820000D01*
X104172279Y-156820000D01*
X103775455Y-156781091D01*
X103424794Y-156675220D01*
X103101377Y-156503257D01*
X102817518Y-156271748D01*
X102584035Y-155989514D01*
X102409816Y-155667304D01*
X102301498Y-155317385D01*
X102260000Y-154922557D01*
X102260000Y-154236495D01*
X102663000Y-154236495D01*
X102663000Y-154627505D01*
X102739282Y-155011003D01*
X102888915Y-155372250D01*
X103106149Y-155697364D01*
X103382636Y-155973851D01*
X103707750Y-156191085D01*
X104068997Y-156340718D01*
X104452495Y-156417000D01*
X104843505Y-156417000D01*
X105227003Y-156340718D01*
X105588250Y-156191085D01*
X105913364Y-155973851D01*
X106189851Y-155697364D01*
X106407085Y-155372250D01*
X106556718Y-155011003D01*
X106633000Y-154627505D01*
X106633000Y-154236495D01*
X106556718Y-153852997D01*
X106407085Y-153491750D01*
X106340362Y-153391891D01*
X130638519Y-153391891D01*
X130735843Y-153666252D01*
X130884822Y-153916355D01*
X131079731Y-154132588D01*
X131313080Y-154306641D01*
X131575901Y-154431825D01*
X131723110Y-154476476D01*
X131953000Y-154355155D01*
X131953000Y-153162000D01*
X130759186Y-153162000D01*
X130638519Y-153391891D01*
X106340362Y-153391891D01*
X106189851Y-153166636D01*
X105913364Y-152890149D01*
X105588250Y-152672915D01*
X105227003Y-152523282D01*
X104843505Y-152447000D01*
X104452495Y-152447000D01*
X104068997Y-152523282D01*
X103707750Y-152672915D01*
X103382636Y-152890149D01*
X103106149Y-153166636D01*
X102888915Y-153491750D01*
X102739282Y-153852997D01*
X102663000Y-154236495D01*
X102260000Y-154236495D01*
X102260000Y-150348740D01*
X130595000Y-150348740D01*
X130595000Y-150641260D01*
X130652068Y-150928158D01*
X130764010Y-151198411D01*
X130926525Y-151441632D01*
X131133368Y-151648475D01*
X131309406Y-151766100D01*
X131079731Y-151937412D01*
X130884822Y-152153645D01*
X130735843Y-152403748D01*
X130638519Y-152678109D01*
X130759186Y-152908000D01*
X131953000Y-152908000D01*
X131953000Y-152888000D01*
X132207000Y-152888000D01*
X132207000Y-152908000D01*
X132227000Y-152908000D01*
X132227000Y-153162000D01*
X132207000Y-153162000D01*
X132207000Y-154355155D01*
X132436890Y-154476476D01*
X132584099Y-154431825D01*
X132846920Y-154306641D01*
X133080269Y-154132588D01*
X133275178Y-153916355D01*
X133344805Y-153799466D01*
X133466525Y-153981632D01*
X133673368Y-154188475D01*
X133916589Y-154350990D01*
X134186842Y-154462932D01*
X134473740Y-154520000D01*
X134766260Y-154520000D01*
X135053158Y-154462932D01*
X135323411Y-154350990D01*
X135566632Y-154188475D01*
X135773475Y-153981632D01*
X135890000Y-153807240D01*
X136006525Y-153981632D01*
X136213368Y-154188475D01*
X136456589Y-154350990D01*
X136726842Y-154462932D01*
X137013740Y-154520000D01*
X137306260Y-154520000D01*
X137593158Y-154462932D01*
X137863411Y-154350990D01*
X138106632Y-154188475D01*
X138313475Y-153981632D01*
X138430000Y-153807240D01*
X138546525Y-153981632D01*
X138753368Y-154188475D01*
X138996589Y-154350990D01*
X139266842Y-154462932D01*
X139553740Y-154520000D01*
X139846260Y-154520000D01*
X140133158Y-154462932D01*
X140403411Y-154350990D01*
X140646632Y-154188475D01*
X140853475Y-153981632D01*
X141015990Y-153738411D01*
X141127932Y-153468158D01*
X141185000Y-153181260D01*
X141185000Y-152888740D01*
X141127932Y-152601842D01*
X141015990Y-152331589D01*
X140853475Y-152088368D01*
X140721620Y-151956513D01*
X140794180Y-151934502D01*
X140904494Y-151875537D01*
X141001185Y-151796185D01*
X141080537Y-151699494D01*
X141139502Y-151589180D01*
X141175812Y-151469482D01*
X141188072Y-151345000D01*
X141188072Y-149645000D01*
X141175812Y-149520518D01*
X141139502Y-149400820D01*
X141080537Y-149290506D01*
X141001185Y-149193815D01*
X140904494Y-149114463D01*
X140794180Y-149055498D01*
X140674482Y-149019188D01*
X140550000Y-149006928D01*
X138850000Y-149006928D01*
X138725518Y-149019188D01*
X138605820Y-149055498D01*
X138495506Y-149114463D01*
X138398815Y-149193815D01*
X138319463Y-149290506D01*
X138260498Y-149400820D01*
X138238487Y-149473380D01*
X138106632Y-149341525D01*
X137863411Y-149179010D01*
X137593158Y-149067068D01*
X137306260Y-149010000D01*
X137013740Y-149010000D01*
X136726842Y-149067068D01*
X136456589Y-149179010D01*
X136213368Y-149341525D01*
X136006525Y-149548368D01*
X135890000Y-149722760D01*
X135773475Y-149548368D01*
X135566632Y-149341525D01*
X135323411Y-149179010D01*
X135053158Y-149067068D01*
X134766260Y-149010000D01*
X134473740Y-149010000D01*
X134186842Y-149067068D01*
X133916589Y-149179010D01*
X133673368Y-149341525D01*
X133466525Y-149548368D01*
X133350000Y-149722760D01*
X133233475Y-149548368D01*
X133026632Y-149341525D01*
X132783411Y-149179010D01*
X132513158Y-149067068D01*
X132226260Y-149010000D01*
X131933740Y-149010000D01*
X131646842Y-149067068D01*
X131376589Y-149179010D01*
X131133368Y-149341525D01*
X130926525Y-149548368D01*
X130764010Y-149791589D01*
X130652068Y-150061842D01*
X130595000Y-150348740D01*
X102260000Y-150348740D01*
X102260000Y-147218061D01*
X114535000Y-147218061D01*
X114535000Y-147421939D01*
X114574774Y-147621898D01*
X114652795Y-147810256D01*
X114766063Y-147979774D01*
X114910226Y-148123937D01*
X115079744Y-148237205D01*
X115268102Y-148315226D01*
X115468061Y-148355000D01*
X115671939Y-148355000D01*
X115871898Y-148315226D01*
X116060256Y-148237205D01*
X116229774Y-148123937D01*
X116373937Y-147979774D01*
X116487205Y-147810256D01*
X116565226Y-147621898D01*
X116574753Y-147574000D01*
X117577532Y-147574000D01*
X117619744Y-147602205D01*
X117808102Y-147680226D01*
X118008061Y-147720000D01*
X118211939Y-147720000D01*
X118411898Y-147680226D01*
X118600256Y-147602205D01*
X118769774Y-147488937D01*
X118913937Y-147344774D01*
X118998603Y-147218061D01*
X142475000Y-147218061D01*
X142475000Y-147421939D01*
X142514774Y-147621898D01*
X142592795Y-147810256D01*
X142706063Y-147979774D01*
X142850226Y-148123937D01*
X143019744Y-148237205D01*
X143208102Y-148315226D01*
X143408061Y-148355000D01*
X143611939Y-148355000D01*
X143811898Y-148315226D01*
X144000256Y-148237205D01*
X144169774Y-148123937D01*
X144313937Y-147979774D01*
X144427205Y-147810256D01*
X144505226Y-147621898D01*
X144545000Y-147421939D01*
X144545000Y-147218061D01*
X144505226Y-147018102D01*
X144427205Y-146829744D01*
X144313937Y-146660226D01*
X144272000Y-146618289D01*
X144272000Y-146583061D01*
X146285000Y-146583061D01*
X146285000Y-146786939D01*
X146324774Y-146986898D01*
X146402795Y-147175256D01*
X146516063Y-147344774D01*
X146660226Y-147488937D01*
X146829744Y-147602205D01*
X147018102Y-147680226D01*
X147176004Y-147711634D01*
X151238000Y-151773631D01*
X151238000Y-151832939D01*
X151277774Y-152032898D01*
X151355795Y-152221256D01*
X151469063Y-152390774D01*
X151613226Y-152534937D01*
X151782744Y-152648205D01*
X151971102Y-152726226D01*
X152171061Y-152766000D01*
X152230370Y-152766000D01*
X153943716Y-154479346D01*
X153967578Y-154508422D01*
X154041219Y-154568857D01*
X154083607Y-154603645D01*
X154118026Y-154622042D01*
X154215985Y-154674402D01*
X154359622Y-154717974D01*
X154471574Y-154729000D01*
X154471577Y-154729000D01*
X154509000Y-154732686D01*
X154546423Y-154729000D01*
X155797137Y-154729000D01*
X155789989Y-154746257D01*
X155731000Y-155042816D01*
X155731000Y-155345184D01*
X155789989Y-155641743D01*
X155905701Y-155921095D01*
X156073688Y-156172505D01*
X156287495Y-156386312D01*
X156538905Y-156554299D01*
X156818257Y-156670011D01*
X157114816Y-156729000D01*
X157417184Y-156729000D01*
X157713743Y-156670011D01*
X157993095Y-156554299D01*
X158244505Y-156386312D01*
X158458312Y-156172505D01*
X158516000Y-156086169D01*
X158573688Y-156172505D01*
X158787495Y-156386312D01*
X159038905Y-156554299D01*
X159318257Y-156670011D01*
X159614816Y-156729000D01*
X159917184Y-156729000D01*
X160213743Y-156670011D01*
X160493095Y-156554299D01*
X160744505Y-156386312D01*
X160958312Y-156172505D01*
X161016000Y-156086169D01*
X161073688Y-156172505D01*
X161287495Y-156386312D01*
X161538905Y-156554299D01*
X161818257Y-156670011D01*
X162114816Y-156729000D01*
X162417184Y-156729000D01*
X162713743Y-156670011D01*
X162993095Y-156554299D01*
X163244505Y-156386312D01*
X163458312Y-156172505D01*
X163626299Y-155921095D01*
X163742011Y-155641743D01*
X163801000Y-155345184D01*
X163801000Y-155042816D01*
X163742011Y-154746257D01*
X163626299Y-154466905D01*
X163472344Y-154236495D01*
X166417000Y-154236495D01*
X166417000Y-154627505D01*
X166493282Y-155011003D01*
X166642915Y-155372250D01*
X166860149Y-155697364D01*
X167136636Y-155973851D01*
X167461750Y-156191085D01*
X167822997Y-156340718D01*
X168206495Y-156417000D01*
X168597505Y-156417000D01*
X168981003Y-156340718D01*
X169342250Y-156191085D01*
X169667364Y-155973851D01*
X169943851Y-155697364D01*
X170161085Y-155372250D01*
X170310718Y-155011003D01*
X170387000Y-154627505D01*
X170387000Y-154236495D01*
X170310718Y-153852997D01*
X170161085Y-153491750D01*
X169943851Y-153166636D01*
X169667364Y-152890149D01*
X169342250Y-152672915D01*
X168981003Y-152523282D01*
X168597505Y-152447000D01*
X168206495Y-152447000D01*
X167822997Y-152523282D01*
X167461750Y-152672915D01*
X167136636Y-152890149D01*
X166860149Y-153166636D01*
X166642915Y-153491750D01*
X166493282Y-153852997D01*
X166417000Y-154236495D01*
X163472344Y-154236495D01*
X163458312Y-154215495D01*
X163244505Y-154001688D01*
X162993095Y-153833701D01*
X162713743Y-153717989D01*
X162417184Y-153659000D01*
X162114816Y-153659000D01*
X161857070Y-153710269D01*
X161150792Y-153003991D01*
X161126990Y-152974988D01*
X161011265Y-152880015D01*
X160879236Y-152809443D01*
X160735975Y-152765986D01*
X160624322Y-152754989D01*
X160624311Y-152754989D01*
X160586989Y-152751313D01*
X160549667Y-152754989D01*
X155734791Y-152754989D01*
X151530000Y-148550199D01*
X151530000Y-148488061D01*
X151490226Y-148288102D01*
X151412205Y-148099744D01*
X151334682Y-147983721D01*
X152831000Y-147983721D01*
X152831000Y-148404279D01*
X152913047Y-148816756D01*
X153073988Y-149205302D01*
X153307637Y-149554983D01*
X153605017Y-149852363D01*
X153954698Y-150086012D01*
X154343244Y-150246953D01*
X154755721Y-150329000D01*
X155176279Y-150329000D01*
X155588756Y-150246953D01*
X155977302Y-150086012D01*
X156326983Y-149852363D01*
X156624363Y-149554983D01*
X156858012Y-149205302D01*
X157018953Y-148816756D01*
X157101000Y-148404279D01*
X157101000Y-147983721D01*
X162431000Y-147983721D01*
X162431000Y-148404279D01*
X162513047Y-148816756D01*
X162673988Y-149205302D01*
X162907637Y-149554983D01*
X163205017Y-149852363D01*
X163554698Y-150086012D01*
X163943244Y-150246953D01*
X164355721Y-150329000D01*
X164776279Y-150329000D01*
X165188756Y-150246953D01*
X165577302Y-150086012D01*
X165926983Y-149852363D01*
X166224363Y-149554983D01*
X166458012Y-149205302D01*
X166618953Y-148816756D01*
X166701000Y-148404279D01*
X166701000Y-147983721D01*
X166618953Y-147571244D01*
X166458012Y-147182698D01*
X166224363Y-146833017D01*
X165926983Y-146535637D01*
X165577302Y-146301988D01*
X165188756Y-146141047D01*
X164776279Y-146059000D01*
X164355721Y-146059000D01*
X163943244Y-146141047D01*
X163554698Y-146301988D01*
X163205017Y-146535637D01*
X162907637Y-146833017D01*
X162673988Y-147182698D01*
X162513047Y-147571244D01*
X162431000Y-147983721D01*
X157101000Y-147983721D01*
X157018953Y-147571244D01*
X156858012Y-147182698D01*
X156624363Y-146833017D01*
X156326983Y-146535637D01*
X155977302Y-146301988D01*
X155588756Y-146141047D01*
X155176279Y-146059000D01*
X154755721Y-146059000D01*
X154343244Y-146141047D01*
X153954698Y-146301988D01*
X153605017Y-146535637D01*
X153307637Y-146833017D01*
X153073988Y-147182698D01*
X152913047Y-147571244D01*
X152831000Y-147983721D01*
X151334682Y-147983721D01*
X151298937Y-147930226D01*
X151154774Y-147786063D01*
X150985256Y-147672795D01*
X150796898Y-147594774D01*
X150596939Y-147555000D01*
X150393061Y-147555000D01*
X150193102Y-147594774D01*
X150004744Y-147672795D01*
X149835226Y-147786063D01*
X149691063Y-147930226D01*
X149634504Y-148014873D01*
X148355000Y-146735370D01*
X148355000Y-146583061D01*
X148315226Y-146383102D01*
X148237205Y-146194744D01*
X148123937Y-146025226D01*
X147979774Y-145881063D01*
X147810256Y-145767795D01*
X147621898Y-145689774D01*
X147421939Y-145650000D01*
X147218061Y-145650000D01*
X147018102Y-145689774D01*
X146829744Y-145767795D01*
X146660226Y-145881063D01*
X146516063Y-146025226D01*
X146402795Y-146194744D01*
X146324774Y-146383102D01*
X146285000Y-146583061D01*
X144272000Y-146583061D01*
X144272000Y-142773061D01*
X146920000Y-142773061D01*
X146920000Y-142976939D01*
X146959774Y-143176898D01*
X147037795Y-143365256D01*
X147151063Y-143534774D01*
X147295226Y-143678937D01*
X147464744Y-143792205D01*
X147653102Y-143870226D01*
X147853061Y-143910000D01*
X148056939Y-143910000D01*
X148256898Y-143870226D01*
X148445256Y-143792205D01*
X148590885Y-143694899D01*
X151062398Y-143694899D01*
X151106335Y-143738836D01*
X151275853Y-143852104D01*
X151464211Y-143930125D01*
X151664170Y-143969899D01*
X151868048Y-143969899D01*
X152068007Y-143930125D01*
X152256365Y-143852104D01*
X152425883Y-143738836D01*
X152570046Y-143594673D01*
X152683314Y-143425155D01*
X152761335Y-143236797D01*
X152801109Y-143036838D01*
X152801109Y-142832960D01*
X152761335Y-142633001D01*
X152683314Y-142444643D01*
X152570046Y-142275125D01*
X152425883Y-142130962D01*
X152256365Y-142017694D01*
X152068007Y-141939673D01*
X151868048Y-141899899D01*
X151664170Y-141899899D01*
X151464211Y-141939673D01*
X151275853Y-142017694D01*
X151106335Y-142130962D01*
X151062398Y-142174899D01*
X148718610Y-142174899D01*
X148614774Y-142071063D01*
X148445256Y-141957795D01*
X148256898Y-141879774D01*
X148056939Y-141840000D01*
X147853061Y-141840000D01*
X147653102Y-141879774D01*
X147464744Y-141957795D01*
X147295226Y-142071063D01*
X147151063Y-142215226D01*
X147037795Y-142384744D01*
X146959774Y-142573102D01*
X146920000Y-142773061D01*
X144272000Y-142773061D01*
X144272000Y-142000015D01*
X144446898Y-141965226D01*
X144635256Y-141887205D01*
X144804774Y-141773937D01*
X144948937Y-141629774D01*
X145062205Y-141460256D01*
X145140226Y-141271898D01*
X145180000Y-141071939D01*
X145180000Y-140868061D01*
X145140226Y-140668102D01*
X145062205Y-140479744D01*
X144948937Y-140310226D01*
X144804774Y-140166063D01*
X144635256Y-140052795D01*
X144446898Y-139974774D01*
X144246939Y-139935000D01*
X144043061Y-139935000D01*
X143843102Y-139974774D01*
X143654744Y-140052795D01*
X143485226Y-140166063D01*
X143341063Y-140310226D01*
X143227795Y-140479744D01*
X143149774Y-140668102D01*
X143110000Y-140868061D01*
X143110000Y-140927370D01*
X142997649Y-141039721D01*
X142968579Y-141063578D01*
X142944722Y-141092648D01*
X142944721Y-141092649D01*
X142873355Y-141179608D01*
X142802599Y-141311985D01*
X142759027Y-141455622D01*
X142744314Y-141605000D01*
X142748001Y-141642433D01*
X142748000Y-146618289D01*
X142706063Y-146660226D01*
X142592795Y-146829744D01*
X142514774Y-147018102D01*
X142475000Y-147218061D01*
X118998603Y-147218061D01*
X119027205Y-147175256D01*
X119105226Y-146986898D01*
X119145000Y-146786939D01*
X119145000Y-146583061D01*
X119105226Y-146383102D01*
X119027205Y-146194744D01*
X118913937Y-146025226D01*
X118769774Y-145881063D01*
X118600256Y-145767795D01*
X118411898Y-145689774D01*
X118211939Y-145650000D01*
X118008061Y-145650000D01*
X117808102Y-145689774D01*
X117619744Y-145767795D01*
X117577532Y-145796000D01*
X116248660Y-145796000D01*
X116205000Y-145791700D01*
X116161340Y-145796000D01*
X116161333Y-145796000D01*
X116047325Y-145807229D01*
X116030725Y-145808864D01*
X115979892Y-145824284D01*
X115863149Y-145859697D01*
X115708709Y-145942247D01*
X115573341Y-146053341D01*
X115545505Y-146087259D01*
X115317895Y-146314870D01*
X115268102Y-146324774D01*
X115079744Y-146402795D01*
X114910226Y-146516063D01*
X114766063Y-146660226D01*
X114652795Y-146829744D01*
X114574774Y-147018102D01*
X114535000Y-147218061D01*
X102260000Y-147218061D01*
X102260000Y-144678061D01*
X131680000Y-144678061D01*
X131680000Y-144881939D01*
X131719774Y-145081898D01*
X131797795Y-145270256D01*
X131911063Y-145439774D01*
X132055226Y-145583937D01*
X132224744Y-145697205D01*
X132413102Y-145775226D01*
X132613061Y-145815000D01*
X132816939Y-145815000D01*
X133016898Y-145775226D01*
X133205256Y-145697205D01*
X133374774Y-145583937D01*
X133418711Y-145540000D01*
X135186289Y-145540000D01*
X135230226Y-145583937D01*
X135399744Y-145697205D01*
X135588102Y-145775226D01*
X135788061Y-145815000D01*
X135991939Y-145815000D01*
X136191898Y-145775226D01*
X136380256Y-145697205D01*
X136549774Y-145583937D01*
X136693937Y-145439774D01*
X136807205Y-145270256D01*
X136885226Y-145081898D01*
X136925000Y-144881939D01*
X136925000Y-144678061D01*
X136885226Y-144478102D01*
X136807205Y-144289744D01*
X136693937Y-144120226D01*
X136549774Y-143976063D01*
X136380256Y-143862795D01*
X136191898Y-143784774D01*
X135991939Y-143745000D01*
X135788061Y-143745000D01*
X135588102Y-143784774D01*
X135399744Y-143862795D01*
X135230226Y-143976063D01*
X135186289Y-144020000D01*
X133418711Y-144020000D01*
X133374774Y-143976063D01*
X133205256Y-143862795D01*
X133016898Y-143784774D01*
X132816939Y-143745000D01*
X132613061Y-143745000D01*
X132413102Y-143784774D01*
X132224744Y-143862795D01*
X132055226Y-143976063D01*
X131911063Y-144120226D01*
X131797795Y-144289744D01*
X131719774Y-144478102D01*
X131680000Y-144678061D01*
X102260000Y-144678061D01*
X102260000Y-141824967D01*
X102759000Y-141824967D01*
X102759000Y-142147033D01*
X102821832Y-142462912D01*
X102945082Y-142760463D01*
X103124013Y-143028252D01*
X103351748Y-143255987D01*
X103619537Y-143434918D01*
X103917088Y-143558168D01*
X104232967Y-143621000D01*
X104555033Y-143621000D01*
X104870912Y-143558168D01*
X105168463Y-143434918D01*
X105436252Y-143255987D01*
X105663987Y-143028252D01*
X105842918Y-142760463D01*
X105966168Y-142462912D01*
X106029000Y-142147033D01*
X106029000Y-141824967D01*
X105966168Y-141509088D01*
X105842918Y-141211537D01*
X105663987Y-140943748D01*
X105436252Y-140716013D01*
X105168463Y-140537082D01*
X104870912Y-140413832D01*
X104555033Y-140351000D01*
X104232967Y-140351000D01*
X103917088Y-140413832D01*
X103619537Y-140537082D01*
X103351748Y-140716013D01*
X103124013Y-140943748D01*
X102945082Y-141211537D01*
X102821832Y-141509088D01*
X102759000Y-141824967D01*
X102260000Y-141824967D01*
X102260000Y-138557000D01*
X119265765Y-138557000D01*
X118147259Y-139675506D01*
G37*
X118147259Y-139675506D02*
X118113342Y-139703341D01*
X118085507Y-139737258D01*
X118085505Y-139737260D01*
X118002248Y-139838709D01*
X117919698Y-139993148D01*
X117868864Y-140160726D01*
X117851700Y-140335000D01*
X117856001Y-140378670D01*
X117856001Y-141502613D01*
X117702748Y-141605013D01*
X117475013Y-141832748D01*
X117296082Y-142100537D01*
X117172832Y-142398088D01*
X117110000Y-142713967D01*
X117110000Y-143036033D01*
X117172832Y-143351912D01*
X117296082Y-143649463D01*
X117475013Y-143917252D01*
X117702748Y-144144987D01*
X117970537Y-144323918D01*
X118268088Y-144447168D01*
X118583967Y-144510000D01*
X118906033Y-144510000D01*
X119221912Y-144447168D01*
X119519463Y-144323918D01*
X119787252Y-144144987D01*
X120014987Y-143917252D01*
X120193918Y-143649463D01*
X120293910Y-143408061D01*
X138030000Y-143408061D01*
X138030000Y-143611939D01*
X138069774Y-143811898D01*
X138147795Y-144000256D01*
X138261063Y-144169774D01*
X138405226Y-144313937D01*
X138574744Y-144427205D01*
X138763102Y-144505226D01*
X138963061Y-144545000D01*
X139166939Y-144545000D01*
X139366898Y-144505226D01*
X139555256Y-144427205D01*
X139724774Y-144313937D01*
X139868937Y-144169774D01*
X139982205Y-144000256D01*
X140060226Y-143811898D01*
X140100000Y-143611939D01*
X140100000Y-143549801D01*
X141644803Y-142005000D01*
X141706939Y-142005000D01*
X141906898Y-141965226D01*
X142095256Y-141887205D01*
X142264774Y-141773937D01*
X142408937Y-141629774D01*
X142522205Y-141460256D01*
X142600226Y-141271898D01*
X142640000Y-141071939D01*
X142640000Y-140868061D01*
X142600226Y-140668102D01*
X142522205Y-140479744D01*
X142408937Y-140310226D01*
X142264774Y-140166063D01*
X142095256Y-140052795D01*
X141906898Y-139974774D01*
X141706939Y-139935000D01*
X141503061Y-139935000D01*
X141303102Y-139974774D01*
X141114744Y-140052795D01*
X140945226Y-140166063D01*
X140801063Y-140310226D01*
X140687795Y-140479744D01*
X140609774Y-140668102D01*
X140570000Y-140868061D01*
X140570000Y-140930197D01*
X139025199Y-142475000D01*
X138963061Y-142475000D01*
X138763102Y-142514774D01*
X138574744Y-142592795D01*
X138405226Y-142706063D01*
X138261063Y-142850226D01*
X138147795Y-143019744D01*
X138069774Y-143208102D01*
X138030000Y-143408061D01*
X120293910Y-143408061D01*
X120317168Y-143351912D01*
X120380000Y-143036033D01*
X120380000Y-142713967D01*
X120317168Y-142398088D01*
X120193918Y-142100537D01*
X120014987Y-141832748D01*
X119787252Y-141605013D01*
X119634000Y-141502613D01*
X119634000Y-140703235D01*
X121780236Y-138557000D01*
X170790001Y-138557000D01*
X170790001Y-154907711D01*
X170751091Y-155304545D01*
X170645220Y-155655206D01*
X170473257Y-155978623D01*
X170241748Y-156262482D01*
X169959514Y-156495965D01*
X169637304Y-156670184D01*
X169287385Y-156778502D01*
X168892557Y-156820000D01*
X104172279Y-156820000D01*
X103775455Y-156781091D01*
X103424794Y-156675220D01*
X103101377Y-156503257D01*
X102817518Y-156271748D01*
X102584035Y-155989514D01*
X102409816Y-155667304D01*
X102301498Y-155317385D01*
X102260000Y-154922557D01*
X102260000Y-154236495D01*
X102663000Y-154236495D01*
X102663000Y-154627505D01*
X102739282Y-155011003D01*
X102888915Y-155372250D01*
X103106149Y-155697364D01*
X103382636Y-155973851D01*
X103707750Y-156191085D01*
X104068997Y-156340718D01*
X104452495Y-156417000D01*
X104843505Y-156417000D01*
X105227003Y-156340718D01*
X105588250Y-156191085D01*
X105913364Y-155973851D01*
X106189851Y-155697364D01*
X106407085Y-155372250D01*
X106556718Y-155011003D01*
X106633000Y-154627505D01*
X106633000Y-154236495D01*
X106556718Y-153852997D01*
X106407085Y-153491750D01*
X106340362Y-153391891D01*
X130638519Y-153391891D01*
X130735843Y-153666252D01*
X130884822Y-153916355D01*
X131079731Y-154132588D01*
X131313080Y-154306641D01*
X131575901Y-154431825D01*
X131723110Y-154476476D01*
X131953000Y-154355155D01*
X131953000Y-153162000D01*
X130759186Y-153162000D01*
X130638519Y-153391891D01*
X106340362Y-153391891D01*
X106189851Y-153166636D01*
X105913364Y-152890149D01*
X105588250Y-152672915D01*
X105227003Y-152523282D01*
X104843505Y-152447000D01*
X104452495Y-152447000D01*
X104068997Y-152523282D01*
X103707750Y-152672915D01*
X103382636Y-152890149D01*
X103106149Y-153166636D01*
X102888915Y-153491750D01*
X102739282Y-153852997D01*
X102663000Y-154236495D01*
X102260000Y-154236495D01*
X102260000Y-150348740D01*
X130595000Y-150348740D01*
X130595000Y-150641260D01*
X130652068Y-150928158D01*
X130764010Y-151198411D01*
X130926525Y-151441632D01*
X131133368Y-151648475D01*
X131309406Y-151766100D01*
X131079731Y-151937412D01*
X130884822Y-152153645D01*
X130735843Y-152403748D01*
X130638519Y-152678109D01*
X130759186Y-152908000D01*
X131953000Y-152908000D01*
X131953000Y-152888000D01*
X132207000Y-152888000D01*
X132207000Y-152908000D01*
X132227000Y-152908000D01*
X132227000Y-153162000D01*
X132207000Y-153162000D01*
X132207000Y-154355155D01*
X132436890Y-154476476D01*
X132584099Y-154431825D01*
X132846920Y-154306641D01*
X133080269Y-154132588D01*
X133275178Y-153916355D01*
X133344805Y-153799466D01*
X133466525Y-153981632D01*
X133673368Y-154188475D01*
X133916589Y-154350990D01*
X134186842Y-154462932D01*
X134473740Y-154520000D01*
X134766260Y-154520000D01*
X135053158Y-154462932D01*
X135323411Y-154350990D01*
X135566632Y-154188475D01*
X135773475Y-153981632D01*
X135890000Y-153807240D01*
X136006525Y-153981632D01*
X136213368Y-154188475D01*
X136456589Y-154350990D01*
X136726842Y-154462932D01*
X137013740Y-154520000D01*
X137306260Y-154520000D01*
X137593158Y-154462932D01*
X137863411Y-154350990D01*
X138106632Y-154188475D01*
X138313475Y-153981632D01*
X138430000Y-153807240D01*
X138546525Y-153981632D01*
X138753368Y-154188475D01*
X138996589Y-154350990D01*
X139266842Y-154462932D01*
X139553740Y-154520000D01*
X139846260Y-154520000D01*
X140133158Y-154462932D01*
X140403411Y-154350990D01*
X140646632Y-154188475D01*
X140853475Y-153981632D01*
X141015990Y-153738411D01*
X141127932Y-153468158D01*
X141185000Y-153181260D01*
X141185000Y-152888740D01*
X141127932Y-152601842D01*
X141015990Y-152331589D01*
X140853475Y-152088368D01*
X140721620Y-151956513D01*
X140794180Y-151934502D01*
X140904494Y-151875537D01*
X141001185Y-151796185D01*
X141080537Y-151699494D01*
X141139502Y-151589180D01*
X141175812Y-151469482D01*
X141188072Y-151345000D01*
X141188072Y-149645000D01*
X141175812Y-149520518D01*
X141139502Y-149400820D01*
X141080537Y-149290506D01*
X141001185Y-149193815D01*
X140904494Y-149114463D01*
X140794180Y-149055498D01*
X140674482Y-149019188D01*
X140550000Y-149006928D01*
X138850000Y-149006928D01*
X138725518Y-149019188D01*
X138605820Y-149055498D01*
X138495506Y-149114463D01*
X138398815Y-149193815D01*
X138319463Y-149290506D01*
X138260498Y-149400820D01*
X138238487Y-149473380D01*
X138106632Y-149341525D01*
X137863411Y-149179010D01*
X137593158Y-149067068D01*
X137306260Y-149010000D01*
X137013740Y-149010000D01*
X136726842Y-149067068D01*
X136456589Y-149179010D01*
X136213368Y-149341525D01*
X136006525Y-149548368D01*
X135890000Y-149722760D01*
X135773475Y-149548368D01*
X135566632Y-149341525D01*
X135323411Y-149179010D01*
X135053158Y-149067068D01*
X134766260Y-149010000D01*
X134473740Y-149010000D01*
X134186842Y-149067068D01*
X133916589Y-149179010D01*
X133673368Y-149341525D01*
X133466525Y-149548368D01*
X133350000Y-149722760D01*
X133233475Y-149548368D01*
X133026632Y-149341525D01*
X132783411Y-149179010D01*
X132513158Y-149067068D01*
X132226260Y-149010000D01*
X131933740Y-149010000D01*
X131646842Y-149067068D01*
X131376589Y-149179010D01*
X131133368Y-149341525D01*
X130926525Y-149548368D01*
X130764010Y-149791589D01*
X130652068Y-150061842D01*
X130595000Y-150348740D01*
X102260000Y-150348740D01*
X102260000Y-147218061D01*
X114535000Y-147218061D01*
X114535000Y-147421939D01*
X114574774Y-147621898D01*
X114652795Y-147810256D01*
X114766063Y-147979774D01*
X114910226Y-148123937D01*
X115079744Y-148237205D01*
X115268102Y-148315226D01*
X115468061Y-148355000D01*
X115671939Y-148355000D01*
X115871898Y-148315226D01*
X116060256Y-148237205D01*
X116229774Y-148123937D01*
X116373937Y-147979774D01*
X116487205Y-147810256D01*
X116565226Y-147621898D01*
X116574753Y-147574000D01*
X117577532Y-147574000D01*
X117619744Y-147602205D01*
X117808102Y-147680226D01*
X118008061Y-147720000D01*
X118211939Y-147720000D01*
X118411898Y-147680226D01*
X118600256Y-147602205D01*
X118769774Y-147488937D01*
X118913937Y-147344774D01*
X118998603Y-147218061D01*
X142475000Y-147218061D01*
X142475000Y-147421939D01*
X142514774Y-147621898D01*
X142592795Y-147810256D01*
X142706063Y-147979774D01*
X142850226Y-148123937D01*
X143019744Y-148237205D01*
X143208102Y-148315226D01*
X143408061Y-148355000D01*
X143611939Y-148355000D01*
X143811898Y-148315226D01*
X144000256Y-148237205D01*
X144169774Y-148123937D01*
X144313937Y-147979774D01*
X144427205Y-147810256D01*
X144505226Y-147621898D01*
X144545000Y-147421939D01*
X144545000Y-147218061D01*
X144505226Y-147018102D01*
X144427205Y-146829744D01*
X144313937Y-146660226D01*
X144272000Y-146618289D01*
X144272000Y-146583061D01*
X146285000Y-146583061D01*
X146285000Y-146786939D01*
X146324774Y-146986898D01*
X146402795Y-147175256D01*
X146516063Y-147344774D01*
X146660226Y-147488937D01*
X146829744Y-147602205D01*
X147018102Y-147680226D01*
X147176004Y-147711634D01*
X151238000Y-151773631D01*
X151238000Y-151832939D01*
X151277774Y-152032898D01*
X151355795Y-152221256D01*
X151469063Y-152390774D01*
X151613226Y-152534937D01*
X151782744Y-152648205D01*
X151971102Y-152726226D01*
X152171061Y-152766000D01*
X152230370Y-152766000D01*
X153943716Y-154479346D01*
X153967578Y-154508422D01*
X154041219Y-154568857D01*
X154083607Y-154603645D01*
X154118026Y-154622042D01*
X154215985Y-154674402D01*
X154359622Y-154717974D01*
X154471574Y-154729000D01*
X154471577Y-154729000D01*
X154509000Y-154732686D01*
X154546423Y-154729000D01*
X155797137Y-154729000D01*
X155789989Y-154746257D01*
X155731000Y-155042816D01*
X155731000Y-155345184D01*
X155789989Y-155641743D01*
X155905701Y-155921095D01*
X156073688Y-156172505D01*
X156287495Y-156386312D01*
X156538905Y-156554299D01*
X156818257Y-156670011D01*
X157114816Y-156729000D01*
X157417184Y-156729000D01*
X157713743Y-156670011D01*
X157993095Y-156554299D01*
X158244505Y-156386312D01*
X158458312Y-156172505D01*
X158516000Y-156086169D01*
X158573688Y-156172505D01*
X158787495Y-156386312D01*
X159038905Y-156554299D01*
X159318257Y-156670011D01*
X159614816Y-156729000D01*
X159917184Y-156729000D01*
X160213743Y-156670011D01*
X160493095Y-156554299D01*
X160744505Y-156386312D01*
X160958312Y-156172505D01*
X161016000Y-156086169D01*
X161073688Y-156172505D01*
X161287495Y-156386312D01*
X161538905Y-156554299D01*
X161818257Y-156670011D01*
X162114816Y-156729000D01*
X162417184Y-156729000D01*
X162713743Y-156670011D01*
X162993095Y-156554299D01*
X163244505Y-156386312D01*
X163458312Y-156172505D01*
X163626299Y-155921095D01*
X163742011Y-155641743D01*
X163801000Y-155345184D01*
X163801000Y-155042816D01*
X163742011Y-154746257D01*
X163626299Y-154466905D01*
X163472344Y-154236495D01*
X166417000Y-154236495D01*
X166417000Y-154627505D01*
X166493282Y-155011003D01*
X166642915Y-155372250D01*
X166860149Y-155697364D01*
X167136636Y-155973851D01*
X167461750Y-156191085D01*
X167822997Y-156340718D01*
X168206495Y-156417000D01*
X168597505Y-156417000D01*
X168981003Y-156340718D01*
X169342250Y-156191085D01*
X169667364Y-155973851D01*
X169943851Y-155697364D01*
X170161085Y-155372250D01*
X170310718Y-155011003D01*
X170387000Y-154627505D01*
X170387000Y-154236495D01*
X170310718Y-153852997D01*
X170161085Y-153491750D01*
X169943851Y-153166636D01*
X169667364Y-152890149D01*
X169342250Y-152672915D01*
X168981003Y-152523282D01*
X168597505Y-152447000D01*
X168206495Y-152447000D01*
X167822997Y-152523282D01*
X167461750Y-152672915D01*
X167136636Y-152890149D01*
X166860149Y-153166636D01*
X166642915Y-153491750D01*
X166493282Y-153852997D01*
X166417000Y-154236495D01*
X163472344Y-154236495D01*
X163458312Y-154215495D01*
X163244505Y-154001688D01*
X162993095Y-153833701D01*
X162713743Y-153717989D01*
X162417184Y-153659000D01*
X162114816Y-153659000D01*
X161857070Y-153710269D01*
X161150792Y-153003991D01*
X161126990Y-152974988D01*
X161011265Y-152880015D01*
X160879236Y-152809443D01*
X160735975Y-152765986D01*
X160624322Y-152754989D01*
X160624311Y-152754989D01*
X160586989Y-152751313D01*
X160549667Y-152754989D01*
X155734791Y-152754989D01*
X151530000Y-148550199D01*
X151530000Y-148488061D01*
X151490226Y-148288102D01*
X151412205Y-148099744D01*
X151334682Y-147983721D01*
X152831000Y-147983721D01*
X152831000Y-148404279D01*
X152913047Y-148816756D01*
X153073988Y-149205302D01*
X153307637Y-149554983D01*
X153605017Y-149852363D01*
X153954698Y-150086012D01*
X154343244Y-150246953D01*
X154755721Y-150329000D01*
X155176279Y-150329000D01*
X155588756Y-150246953D01*
X155977302Y-150086012D01*
X156326983Y-149852363D01*
X156624363Y-149554983D01*
X156858012Y-149205302D01*
X157018953Y-148816756D01*
X157101000Y-148404279D01*
X157101000Y-147983721D01*
X162431000Y-147983721D01*
X162431000Y-148404279D01*
X162513047Y-148816756D01*
X162673988Y-149205302D01*
X162907637Y-149554983D01*
X163205017Y-149852363D01*
X163554698Y-150086012D01*
X163943244Y-150246953D01*
X164355721Y-150329000D01*
X164776279Y-150329000D01*
X165188756Y-150246953D01*
X165577302Y-150086012D01*
X165926983Y-149852363D01*
X166224363Y-149554983D01*
X166458012Y-149205302D01*
X166618953Y-148816756D01*
X166701000Y-148404279D01*
X166701000Y-147983721D01*
X166618953Y-147571244D01*
X166458012Y-147182698D01*
X166224363Y-146833017D01*
X165926983Y-146535637D01*
X165577302Y-146301988D01*
X165188756Y-146141047D01*
X164776279Y-146059000D01*
X164355721Y-146059000D01*
X163943244Y-146141047D01*
X163554698Y-146301988D01*
X163205017Y-146535637D01*
X162907637Y-146833017D01*
X162673988Y-147182698D01*
X162513047Y-147571244D01*
X162431000Y-147983721D01*
X157101000Y-147983721D01*
X157018953Y-147571244D01*
X156858012Y-147182698D01*
X156624363Y-146833017D01*
X156326983Y-146535637D01*
X155977302Y-146301988D01*
X155588756Y-146141047D01*
X155176279Y-146059000D01*
X154755721Y-146059000D01*
X154343244Y-146141047D01*
X153954698Y-146301988D01*
X153605017Y-146535637D01*
X153307637Y-146833017D01*
X153073988Y-147182698D01*
X152913047Y-147571244D01*
X152831000Y-147983721D01*
X151334682Y-147983721D01*
X151298937Y-147930226D01*
X151154774Y-147786063D01*
X150985256Y-147672795D01*
X150796898Y-147594774D01*
X150596939Y-147555000D01*
X150393061Y-147555000D01*
X150193102Y-147594774D01*
X150004744Y-147672795D01*
X149835226Y-147786063D01*
X149691063Y-147930226D01*
X149634504Y-148014873D01*
X148355000Y-146735370D01*
X148355000Y-146583061D01*
X148315226Y-146383102D01*
X148237205Y-146194744D01*
X148123937Y-146025226D01*
X147979774Y-145881063D01*
X147810256Y-145767795D01*
X147621898Y-145689774D01*
X147421939Y-145650000D01*
X147218061Y-145650000D01*
X147018102Y-145689774D01*
X146829744Y-145767795D01*
X146660226Y-145881063D01*
X146516063Y-146025226D01*
X146402795Y-146194744D01*
X146324774Y-146383102D01*
X146285000Y-146583061D01*
X144272000Y-146583061D01*
X144272000Y-142773061D01*
X146920000Y-142773061D01*
X146920000Y-142976939D01*
X146959774Y-143176898D01*
X147037795Y-143365256D01*
X147151063Y-143534774D01*
X147295226Y-143678937D01*
X147464744Y-143792205D01*
X147653102Y-143870226D01*
X147853061Y-143910000D01*
X148056939Y-143910000D01*
X148256898Y-143870226D01*
X148445256Y-143792205D01*
X148590885Y-143694899D01*
X151062398Y-143694899D01*
X151106335Y-143738836D01*
X151275853Y-143852104D01*
X151464211Y-143930125D01*
X151664170Y-143969899D01*
X151868048Y-143969899D01*
X152068007Y-143930125D01*
X152256365Y-143852104D01*
X152425883Y-143738836D01*
X152570046Y-143594673D01*
X152683314Y-143425155D01*
X152761335Y-143236797D01*
X152801109Y-143036838D01*
X152801109Y-142832960D01*
X152761335Y-142633001D01*
X152683314Y-142444643D01*
X152570046Y-142275125D01*
X152425883Y-142130962D01*
X152256365Y-142017694D01*
X152068007Y-141939673D01*
X151868048Y-141899899D01*
X151664170Y-141899899D01*
X151464211Y-141939673D01*
X151275853Y-142017694D01*
X151106335Y-142130962D01*
X151062398Y-142174899D01*
X148718610Y-142174899D01*
X148614774Y-142071063D01*
X148445256Y-141957795D01*
X148256898Y-141879774D01*
X148056939Y-141840000D01*
X147853061Y-141840000D01*
X147653102Y-141879774D01*
X147464744Y-141957795D01*
X147295226Y-142071063D01*
X147151063Y-142215226D01*
X147037795Y-142384744D01*
X146959774Y-142573102D01*
X146920000Y-142773061D01*
X144272000Y-142773061D01*
X144272000Y-142000015D01*
X144446898Y-141965226D01*
X144635256Y-141887205D01*
X144804774Y-141773937D01*
X144948937Y-141629774D01*
X145062205Y-141460256D01*
X145140226Y-141271898D01*
X145180000Y-141071939D01*
X145180000Y-140868061D01*
X145140226Y-140668102D01*
X145062205Y-140479744D01*
X144948937Y-140310226D01*
X144804774Y-140166063D01*
X144635256Y-140052795D01*
X144446898Y-139974774D01*
X144246939Y-139935000D01*
X144043061Y-139935000D01*
X143843102Y-139974774D01*
X143654744Y-140052795D01*
X143485226Y-140166063D01*
X143341063Y-140310226D01*
X143227795Y-140479744D01*
X143149774Y-140668102D01*
X143110000Y-140868061D01*
X143110000Y-140927370D01*
X142997649Y-141039721D01*
X142968579Y-141063578D01*
X142944722Y-141092648D01*
X142944721Y-141092649D01*
X142873355Y-141179608D01*
X142802599Y-141311985D01*
X142759027Y-141455622D01*
X142744314Y-141605000D01*
X142748001Y-141642433D01*
X142748000Y-146618289D01*
X142706063Y-146660226D01*
X142592795Y-146829744D01*
X142514774Y-147018102D01*
X142475000Y-147218061D01*
X118998603Y-147218061D01*
X119027205Y-147175256D01*
X119105226Y-146986898D01*
X119145000Y-146786939D01*
X119145000Y-146583061D01*
X119105226Y-146383102D01*
X119027205Y-146194744D01*
X118913937Y-146025226D01*
X118769774Y-145881063D01*
X118600256Y-145767795D01*
X118411898Y-145689774D01*
X118211939Y-145650000D01*
X118008061Y-145650000D01*
X117808102Y-145689774D01*
X117619744Y-145767795D01*
X117577532Y-145796000D01*
X116248660Y-145796000D01*
X116205000Y-145791700D01*
X116161340Y-145796000D01*
X116161333Y-145796000D01*
X116047325Y-145807229D01*
X116030725Y-145808864D01*
X115979892Y-145824284D01*
X115863149Y-145859697D01*
X115708709Y-145942247D01*
X115573341Y-146053341D01*
X115545505Y-146087259D01*
X115317895Y-146314870D01*
X115268102Y-146324774D01*
X115079744Y-146402795D01*
X114910226Y-146516063D01*
X114766063Y-146660226D01*
X114652795Y-146829744D01*
X114574774Y-147018102D01*
X114535000Y-147218061D01*
X102260000Y-147218061D01*
X102260000Y-144678061D01*
X131680000Y-144678061D01*
X131680000Y-144881939D01*
X131719774Y-145081898D01*
X131797795Y-145270256D01*
X131911063Y-145439774D01*
X132055226Y-145583937D01*
X132224744Y-145697205D01*
X132413102Y-145775226D01*
X132613061Y-145815000D01*
X132816939Y-145815000D01*
X133016898Y-145775226D01*
X133205256Y-145697205D01*
X133374774Y-145583937D01*
X133418711Y-145540000D01*
X135186289Y-145540000D01*
X135230226Y-145583937D01*
X135399744Y-145697205D01*
X135588102Y-145775226D01*
X135788061Y-145815000D01*
X135991939Y-145815000D01*
X136191898Y-145775226D01*
X136380256Y-145697205D01*
X136549774Y-145583937D01*
X136693937Y-145439774D01*
X136807205Y-145270256D01*
X136885226Y-145081898D01*
X136925000Y-144881939D01*
X136925000Y-144678061D01*
X136885226Y-144478102D01*
X136807205Y-144289744D01*
X136693937Y-144120226D01*
X136549774Y-143976063D01*
X136380256Y-143862795D01*
X136191898Y-143784774D01*
X135991939Y-143745000D01*
X135788061Y-143745000D01*
X135588102Y-143784774D01*
X135399744Y-143862795D01*
X135230226Y-143976063D01*
X135186289Y-144020000D01*
X133418711Y-144020000D01*
X133374774Y-143976063D01*
X133205256Y-143862795D01*
X133016898Y-143784774D01*
X132816939Y-143745000D01*
X132613061Y-143745000D01*
X132413102Y-143784774D01*
X132224744Y-143862795D01*
X132055226Y-143976063D01*
X131911063Y-144120226D01*
X131797795Y-144289744D01*
X131719774Y-144478102D01*
X131680000Y-144678061D01*
X102260000Y-144678061D01*
X102260000Y-141824967D01*
X102759000Y-141824967D01*
X102759000Y-142147033D01*
X102821832Y-142462912D01*
X102945082Y-142760463D01*
X103124013Y-143028252D01*
X103351748Y-143255987D01*
X103619537Y-143434918D01*
X103917088Y-143558168D01*
X104232967Y-143621000D01*
X104555033Y-143621000D01*
X104870912Y-143558168D01*
X105168463Y-143434918D01*
X105436252Y-143255987D01*
X105663987Y-143028252D01*
X105842918Y-142760463D01*
X105966168Y-142462912D01*
X106029000Y-142147033D01*
X106029000Y-141824967D01*
X105966168Y-141509088D01*
X105842918Y-141211537D01*
X105663987Y-140943748D01*
X105436252Y-140716013D01*
X105168463Y-140537082D01*
X104870912Y-140413832D01*
X104555033Y-140351000D01*
X104232967Y-140351000D01*
X103917088Y-140413832D01*
X103619537Y-140537082D01*
X103351748Y-140716013D01*
X103124013Y-140943748D01*
X102945082Y-141211537D01*
X102821832Y-141509088D01*
X102759000Y-141824967D01*
X102260000Y-141824967D01*
X102260000Y-138557000D01*
X119265765Y-138557000D01*
X118147259Y-139675506D01*
M02*
